<?xml version="1.0" encoding="UTF-8" standalone="no" ?>
<!DOCTYPE svg PUBLIC "-//W3C//DTD SVG 1.1//EN" "http://www.w3.org/Graphics/SVG/1.1/DTD/svg11.dtd">
<svg xmlns="http://www.w3.org/2000/svg" xmlns:xlink="http://www.w3.org/1999/xlink" version="1.1" width="1480" height="1000" viewBox="0 0 1480 1000" xml:space="preserve">
<desc>Created with Fabric.js 1.7.3</desc>
<defs>
</defs>
<rect x="0" y="0" width="1480" height="1000" fill="#447b4f"></rect>
<path id="vovapath2383_2_" d="m 250.789 129.5708 c 0.018 60.508 -49.028 109.569 -109.537 109.569 c -60.509002 0 -109.556002 -49.061 -109.537002 -109.569 c -0.019 -60.507997 49.028 -109.568997 109.537002 -109.568997 c 60.509 0 109.555 49.061 109.537 109.568997 z" style="stroke: rgb(1,1,1); stroke-width: 4; stroke-dasharray: none; stroke-linecap: round; stroke-linejoin: round; stroke-miterlimit: 10; fill: rgb(147,157,172); fill-rule: nonzero; opacity: 1;" transform="translate(143.25 131.57) translate(-141.25199871729814, -129.57080149999996)  matrix(1.000000035652758 0 0 1.000000035652758 1.998001282701864 1.999198500000034) " stroke-linecap="round" />
<path id="vovapath3353" d="m 144.74625 18.003803 c -11.78252 0 -23.01243 2.360872 -33.25 6.625 c 0.05 -0.190375 0.10546 -0.371562 0.15625 -0.5625 C 65.522609 36.980504 31.699218 79.3134 31.714998 129.5663 c -0.0048 15.127 3.052812 29.54784 8.59375 42.65625 c 8.116759 -3.4247 22.465273 -13.99838 34.373284 -23.49828 c 15.40572 23.87746 60.455688 46.75178 66.803778 46.75178 c 6.34809 0 50.28982 -25.63604 65.9965 -47.50529 c 6.31163 4.83433 20.00153 16.15203 25.42019 19.40804 c -24.25297 30.03528 -61.36217 49.25 -102.96875 49.25 c -30.327003 0 -58.250501 -10.211 -80.562502 -27.375 c 19.534 30.03 53.377002 49.875 91.875002 49.875 c 45.38039 0 84.31426 -27.58643 100.9375 -66.90625 c 0.0838 -0.19828 0.16731 -0.39488 0.25 -0.59375 c 0.0127 -0.0304 0.0186 -0.0633 0.0312 -0.0937 c 0.24556 -0.5921 0.48333 -1.18396 0.71875 -1.78125 c 0.0736 -0.1867 0.14619 -0.3753 0.21875 -0.5625 c 0.24941 -0.64327 0.51246 -1.28841 0.75 -1.9375 c 0.0532 -0.14556 0.10361 -0.29165 0.15625 -0.4375 c 0.25048 -0.6936 0.48196 -1.39372 0.71875 -2.09375 c 0.0347 -0.1026 0.0594 -0.20976 0.0937 -0.3125 c 0.40733 -1.21727 0.79095 -2.45153 1.15625 -3.6875 c 0.35959 -1.21522 0.71309 -2.42381 1.03125 -3.65625 c 0.0107 -0.0414 0.0206 -0.0836 0.0312 -0.125 c 0.2034 -0.79209 0.40773 -1.57608 0.59375 -2.375 c 0.0196 -0.0842 0.0431 -0.16573 0.0625 -0.25 c 0.17231 -0.74811 0.31184 -1.49612 0.46875 -2.25 c 0.028 -0.13451 0.0662 -0.27156 0.0937 -0.40625 c 0.14612 -0.71584 0.27416 -1.43541 0.40625 -2.15625 c 0.0324 -0.17634 0.0622 -0.35461 0.0937 -0.53125 c 0.11966 -0.67173 0.23639 -1.35535 0.34375 -2.03125 c 0.13551 -0.8531 0.25929 -1.70298 0.375 -2.5625 c 0.0379 -0.28132 0.0892 -0.56176 0.125 -0.84375 c 0.029 -0.22912 0.0661 -0.45794 0.0937 -0.6875 c 0.0824 -0.68452 0.14901 -1.37415 0.21875 -2.0625 c 0.0534 -0.52815 0.11036 -1.06343 0.15625 -1.59375 c 0.27421 -3.16886 0.40721 -6.38541 0.40625 -9.625 C 250.78971 88.520416 228.24307 52.741192 194.84 33.972553 C 180.69973 23.9146 163.42086 18.003803 144.74625 18.003803 z" style="stroke: none; stroke-width: 1; stroke-dasharray: none; stroke-linecap: butt; stroke-linejoin: miter; stroke-miterlimit: 10; fill: rgb(1,1,1); fill-opacity: 0.31; fill-rule: nonzero; opacity: 1;" transform="translate(141.75 129.07) translate(-141.24609875826292, -128.5663015)  matrix(1.000000035652758 0 0 1.000000035652758 0.5039012417370827 0.5036984999999845) " stroke-linecap="round" />
<path id="path3245" d="m 56.251998 229.3698 c -0.006 20.842 16.887 23.497 37.729 23.497 c 20.842002 0 37.735002 -2.655 37.729002 -23.497 c 0.006 -20.841 -17.598 -32.346 -37.729002 -37.739 c -31.318 -8.392 -37.735 16.898 -37.729 37.739 z" style="stroke: rgb(1,1,1); stroke-width: 4; stroke-dasharray: none; stroke-linecap: round; stroke-linejoin: round; stroke-miterlimit: 10; fill: rgb(147,157,172); fill-rule: nonzero; opacity: 1;" transform="translate(95.98 223.42) translate(-93.98099769801897, -221.42329271371293)  matrix(1.000000035652758 0 0 1.000000035652758 1.9990023019810366 1.9967072862870623) " stroke-linecap="round" />
<path id="path3239" d="m 123.349 241.1238 c 1.51 5.63 -2.987 7.604 -8.773 9.154 c -5.786 1.55 -10.667 2.089 -12.174 -3.542 c -1.511 -5.631 1.956 -11.452 7.741 -13.003 c 5.785 -1.551 11.698 1.759 13.206 7.391 z" style="stroke: rgb(1,1,1); stroke-width: 4; stroke-dasharray: none; stroke-linecap: round; stroke-linejoin: round; stroke-miterlimit: 10; fill: rgb(255,255,255); fill-rule: nonzero; opacity: 1;" transform="translate(114.85 244.34) translate(-112.84596118035918, -242.33735850466775)  matrix(1.000000035652758 0 0 1.000000035652758 2.0040388196408117 2.0026414953322558) " stroke-linecap="round" />
<path id="path3241" d="m 85.266998 247.2228 c -1.507 5.632 -6.389 5.092 -12.174 3.543 c -5.786 -1.551 -10.284 -3.525 -8.773 -9.155 c 1.507 -5.631 7.42 -8.94 13.206 -7.39 c 5.785 1.55 9.251 7.371 7.741 13.002 z" style="stroke: rgb(1,1,1); stroke-width: 4; stroke-dasharray: none; stroke-linecap: round; stroke-linejoin: round; stroke-miterlimit: 10; fill: rgb(255,255,255); fill-rule: nonzero; opacity: 1;" transform="translate(76.82 244.83) translate(-74.8227188336165, -242.8252828192295)  matrix(1.000000035652758 0 0 1.000000035652758 1.9972811663834875 2.0047171807705126) " stroke-linecap="round" />
<path id="path3243" d="m 103.905 246.2958 c 0.002 5.829 -4.853002 6.571 -10.843002 6.571 c -5.989 0 -10.844 -0.742 -10.842 -6.571 c -0.002 -5.83 4.853 -10.557 10.842 -10.557 c 5.99 0 10.845002 4.726 10.843002 10.557 z" style="stroke: rgb(1,1,1); stroke-width: 4; stroke-dasharray: none; stroke-linecap: round; stroke-linejoin: round; stroke-miterlimit: 10; fill: rgb(255,255,255); fill-rule: nonzero; opacity: 1;" transform="translate(95.06 246.3) translate(-93.06249899999986, -244.30280000000002)  matrix(1.000000035652758 0 0 1.000000035652758 1.9975010000001419 1.9971999999999923) " stroke-linecap="round" />
<path id="path3297" d="m 105.923 195.7568 c 5.162 6.766 8.33 15.213 8.328 25.644 c 0.006 24.649 -16.893002 27.798 -37.734002 27.798 c -3.225 0 -6.345 -0.097 -9.333 -0.315 c 6.836 3.318 16.312 3.991 26.793 3.991 c 20.841002 0 37.740002 -2.677 37.733002 -23.519 c 0.005 -16.562 -11.119 -27.209 -25.787 -33.599 z" style="stroke: none; stroke-width: 1; stroke-dasharray: none; stroke-linecap: butt; stroke-linejoin: miter; stroke-miterlimit: 10; fill: rgb(1,1,1); fill-opacity: 0.31; fill-rule: nonzero; opacity: 1;" transform="translate(99.95 224.82) translate(-99.44700008694976, -224.31580000000002)  matrix(1.000000035652758 0 0 1.000000035652758 0.502999913050246 0.5041999999999689) " stroke-linecap="round" />
<path id="path3220" d="m 226.252 229.3698 c 0.006 20.842 -16.887 23.497 -37.729 23.497 c -20.842 0 -37.735 -2.655 -37.729 -23.497 c -0.007 -20.841 17.598 -32.346 37.729 -37.739 c 31.319 -8.392 37.735 16.898 37.729 37.739 z" style="stroke: rgb(1,1,1); stroke-width: 4; stroke-dasharray: none; stroke-linecap: round; stroke-linejoin: round; stroke-miterlimit: 10; fill: rgb(147,157,172); fill-rule: nonzero; opacity: 1;" transform="translate(190.52 223.42) translate(-188.5230010578259, -221.42329271371293)  matrix(1.000000035652758 0 0 1.000000035652758 135.9969989421741 134.9967072862871) " stroke-linecap="round" />
<path id="path3235_1_" d="m 218.811 241.1238 c 1.51 5.63 -2.987 7.604 -8.773 9.154 c -5.785 1.551 -10.666 2.089 -12.174 -3.542 c -1.511 -5.631 1.956 -11.452 7.741 -13.003 c 5.785 -1.551 11.698 1.759 13.206 7.391 z" style="stroke: rgb(1,1,1); stroke-width: 4; stroke-dasharray: none; stroke-linecap: round; stroke-linejoin: round; stroke-miterlimit: 10; fill: rgb(255,255,255); fill-rule: nonzero; opacity: 1;" transform="translate(210.31 244.34) translate(-208.30796118035917, -242.33757676621107)  matrix(1.000000035652758 0 0 1.000000035652758 2.0020388196408305 2.0024232337889316) " stroke-linecap="round" />
<path id="path3237" d="m 180.729 247.2228 c -1.508 5.632 -6.389 5.092 -12.175 3.543 c -5.785 -1.551 -10.283 -3.525 -8.772 -9.155 c 1.508 -5.631 7.421 -8.94 13.206 -7.39 c 5.784 1.55 9.25 7.371 7.741 13.002 z" style="stroke: rgb(1,1,1); stroke-width: 4; stroke-dasharray: none; stroke-linecap: round; stroke-linejoin: round; stroke-miterlimit: 10; fill: rgb(255,255,255); fill-rule: nonzero; opacity: 1;" transform="translate(172.28 244.83) translate(-170.2845197108554, -242.8252828192295)  matrix(1.000000035652758 0 0 1.000000035652758 1.9954802891446093 2.0047171807705126) " stroke-linecap="round" />
<path id="vovapath3224" d="m 199.366 246.2958 c 0.002 5.829 -4.853 6.571 -10.843 6.571 c -5.989 0 -10.845 -0.742 -10.843 -6.571 c -0.002 -5.83 4.854 -10.557 10.843 -10.557 c 5.991 0 10.845 4.726 10.843 10.557 z" style="stroke: rgb(1,1,1); stroke-width: 4; stroke-dasharray: none; stroke-linecap: round; stroke-linejoin: round; stroke-miterlimit: 10; fill: rgb(255,255,255); fill-rule: nonzero; opacity: 1;" transform="translate(190.52 246.3) translate(-188.52300000012718, -244.30280000000002)  matrix(1.000000035652758 0 0 1.000000035652758 1.996999999872827 1.9971999999999923) " stroke-linecap="round" />
<path id="path3358" d="m 205.543 190.5388 c 9.705 7.491 12.266 22.672 12.263 36.068 c 0.006 21.566 -17.468 24.323 -39.026 24.323 c -4.679 0 -9.14 -0.151 -13.296 -0.574 c 6.372 2.04 14.355 2.498 23.03 2.498 c 20.842 0 37.74 -2.648 37.734 -23.49 c 0.004 -16.328 -3.938 -35.372 -20.705 -38.825 z" style="stroke: none; stroke-width: 1; stroke-dasharray: none; stroke-linecap: butt; stroke-linejoin: miter; stroke-miterlimit: 10; fill: rgb(1,1,1); fill-opacity: 0.31; fill-rule: nonzero; opacity: 1;" transform="translate(196.37 222.2) translate(-195.86600151994958, -221.6963)  matrix(1.000000035652758 0 0 1.000000035652758 192.50399848005043 16.50369999999998) " stroke-linecap="round" />
<path id="path2523_1_" d="M 13.503852 11.655912 C 35.456792 -6.4519742 78.738201 5.0912388 104.59304 12.586833 C 90.536751 61.893744 101.76842 92.682397 89.682489 120.59872 C 61.911883 148.25657 18.928086 178.71314 21.34955 160.68813 C 33.016778 73.83904 -20.557969 39.751828 13.503852 11.655912 z" style="stroke: rgb(1,1,1); stroke-width: 4; stroke-dasharray: none; stroke-linecap: round; stroke-linejoin: round; stroke-miterlimit: 4; fill: rgb(147,157,172); fill-rule: nonzero; opacity: 1;" transform="translate(55.23 86.38) translate(-53.2348718696079, -84.3771884192967)  matrix(1.000000035652758 0 0 1.000000035652758 1.9951281303920965 2.0028115807032947) " stroke-linecap="round" />
<path id="path4380" d="m 266.97936 11.655912 c -21.95294 -18.1078862 -65.23435 -6.5646732 -91.08919 0.930921 c 14.05629 49.306911 2.82462 80.095564 14.91055 108.011887 c 27.77061 27.65785 70.7544 58.11442 68.33294 40.08941 c -11.66723 -86.84909 41.90752 -120.936302 7.8457 -149.032218 z" style="stroke: rgb(1,1,1); stroke-width: 4; stroke-dasharray: none; stroke-linecap: round; stroke-linejoin: round; stroke-miterlimit: 4; fill: rgb(147,157,172); fill-rule: nonzero; opacity: 1;" transform="translate(229.19 86.05) translate(-227.1866903690971, -84.05239700553412)  matrix(1.000000035652758 0 0 1.000000035652758 28.00330963090289 51.99760299446589) " stroke-linecap="round" />
<path id="path267" d="m 140.242 4.001803 c -80.354203 0 -100.304361 35.21464 -86.544002 86.569 c 16.30721 60.859337 69.458442 86.568997 86.543002 86.568997 c 17.08456 0 70.50382 -26.70622 86.544 -86.568997 c 13.73407 -51.256239 -6.1888 -86.569 -86.543 -86.569 z" style="stroke: rgb(1,1,1); stroke-width: 4; stroke-dasharray: none; stroke-linecap: round; stroke-linejoin: round; stroke-miterlimit: 10; fill: rgb(147,157,172); fill-rule: nonzero; opacity: 1;" transform="translate(142.24 92.57) translate(-140.23663354685743, -90.57080149999997)  matrix(1.000000035652758 0 0 1.000000035652758 508.0033664531426 116.99919850000002) " stroke-linecap="round" />
<path id="path3159" d="m 190.281 58.100803 c 0.003 12.519 -10.145 22.669 -22.663 22.669 c -12.52 0 -22.667 -10.15 -22.663 -22.669 c -0.004 -12.519 10.144 -22.669 22.663 -22.669 c 12.519 -0.001 22.666 10.15 22.663 22.669 z" style="stroke: rgb(1,1,1); stroke-width: 4; stroke-dasharray: none; stroke-linecap: round; stroke-linejoin: round; stroke-miterlimit: 10; fill: rgb(255,255,255); fill-rule: nonzero; opacity: 1;" transform="translate(169.62 60.1) translate(-167.61799974142036, -58.100802963061)  matrix(1.000000035652758 0 0 1.000000035652758 2.002000258579642 1.9991970369390017) " stroke-linecap="round" />
<path id="path3161" d="m 170.136 62.100803 c 0.002 4.173 -3.381 7.557 -7.554 7.557 c -4.173 0 -7.556 -3.384 -7.555 -7.557 c -0.001 -4.173 3.382 -7.557 7.555 -7.557 c 4.173 0 7.556 3.384 7.554 7.557 z" style="stroke: none; stroke-width: 1; stroke-dasharray: none; stroke-linecap: butt; stroke-linejoin: miter; stroke-miterlimit: 10; fill: rgb(1,1,1); fill-rule: nonzero; opacity: 1;" transform="translate(163.08 62.6) translate(-162.58150033234512, -62.100803)  matrix(1.000000035652758 0 0 1.000000035652758 0.4984996676548974 0.49919700000000233) " stroke-linecap="round" />
<path id="path3157" d="m 137.549 58.100803 c 0.004 12.519 -10.145 22.669 -22.663 22.669 c -12.518 0 -22.666002 -10.15 -22.663002 -22.669 c -0.003 -12.519 10.145002 -22.669 22.663002 -22.669 c 12.518 0 22.667 10.15 22.663 22.669 z" style="stroke: rgb(1,1,1); stroke-width: 4; stroke-dasharray: none; stroke-linecap: round; stroke-linejoin: round; stroke-miterlimit: 10; fill: rgb(255,255,255); fill-rule: nonzero; opacity: 1;" transform="translate(116.89 60.1) translate(-114.88599925849606, -58.100803)  matrix(1.000000035652758 0 0 1.000000035652758 2.004000741503944 1.9991970000000023) " stroke-linecap="round" />
<path id="path3163" d="m 128.106 62.100803 c 0.002 4.173 -3.381 7.557 -7.554 7.557 c -4.173 0 -7.556 -3.384 -7.555 -7.557 c -0.001 -4.173 3.382 -7.557 7.555 -7.557 c 4.173 0 7.556 3.384 7.554 7.557 z" style="stroke: none; stroke-width: 1; stroke-dasharray: none; stroke-linecap: butt; stroke-linejoin: miter; stroke-miterlimit: 10; fill: rgb(1,1,1); fill-rule: nonzero; opacity: 1;" transform="translate(121.05 62.6) translate(-120.55150033234513, -62.100803)  matrix(1.000000035652758 0 0 1.000000035652758 0.49849966765486897 0.49919700000000233) " stroke-linecap="round" />
<path id="path4388" d="m 113.25411 104.13772 c 37.97527 131.35834 -10.59217 127.41587 32.30806 128.15612 c 42.90022 0.74026 4.44788 7.10685 22.5271 -122.99376" style="stroke: rgb(1,1,1); stroke-width: 4.00224257; stroke-dasharray: none; stroke-linecap: round; stroke-linejoin: round; stroke-miterlimit: 4; fill: rgb(0,0,0); fill-rule: nonzero; opacity: 0.32473683;" transform="translate(142.67 170.35) translate(-140.67168999999998, -168.3478510053909)  matrix(1.000000035652758 0 0 1.000000035652758 1.9983100000000036 2.0021489946090867) " stroke-linecap="round" />
<path id="path4386" d="m 109.15491 95.147863 c 36.53946 136.367097 -10.19169 132.274287 31.08652 133.042777 c 41.27821 0.76849 -3.30178 4.27513 31.08687 -133.042777" style="stroke: rgb(1,1,1); stroke-width: 4; stroke-dasharray: none; stroke-linecap: round; stroke-linejoin: round; stroke-miterlimit: 4; fill: rgb(147,157,172); fill-rule: nonzero; opacity: 1;" transform="translate(142.24 163.75) translate(-140.241605, -161.75428714421855)  matrix(1.000000035652758 0 0 1.000000035652758 1.9983950000000164 1.9957128557814485) " stroke-linecap="round" />
<path id="path4407" d="m 130.18859 213.76403 l 20.10604 0" style="stroke: rgb(104,117,136); stroke-width: 4; stroke-dasharray: none; stroke-linecap: round; stroke-linejoin: round; stroke-miterlimit: 4; fill: none; fill-rule: nonzero; opacity: 1;" transform="translate(142.24 215.76) translate(-140.24161, -213.76403)  matrix(1.000000035652758 0 0 1.000000035652758 1.9983900000000006 1.9959699999999998) " stroke-linecap="round" />
<path id="path4425" d="m 132.18859 197.76403 l 16.10604 0" style="stroke: rgb(104,117,136); stroke-width: 4; stroke-dasharray: none; stroke-linecap: round; stroke-linejoin: round; stroke-miterlimit: 4; fill: none; fill-rule: nonzero; opacity: 1;" transform="translate(142.24 199.76) translate(-140.24161, -197.76403)  matrix(1.000000035652758 0 0 1.000000035652758 1.9983900000000006 1.9959699999999998) " stroke-linecap="round" />
<path id="path4427" d="m 132.18859 181.76403 l 16.10604 0" style="stroke: rgb(104,117,136); stroke-width: 4; stroke-dasharray: none; stroke-linecap: round; stroke-linejoin: round; stroke-miterlimit: 4; fill: none; fill-rule: nonzero; opacity: 1;" transform="translate(142.24 183.76) translate(-140.24161, -181.76403)  matrix(1.000000035652758 0 0 1.000000035652758 1.9983900000000006 1.9959699999999998) " stroke-linecap="round" />
<path id="path4429" d="m 130.18859 165.76403 l 20.10604 0" style="stroke: rgb(104,117,136); stroke-width: 4; stroke-dasharray: none; stroke-linecap: round; stroke-linejoin: round; stroke-miterlimit: 4; fill: none; fill-rule: nonzero; opacity: 1;" transform="translate(142.24 167.76) translate(-140.24161, -165.76403)  matrix(1.000000035652758 0 0 1.000000035652758 1.9983900000000006 1.9959699999999998) " stroke-linecap="round" />
<path id="path4431" d="m 128.18859 149.76403 l 24.10604 0" style="stroke: rgb(104,117,136); stroke-width: 4; stroke-dasharray: none; stroke-linecap: round; stroke-linejoin: round; stroke-miterlimit: 4; fill: none; fill-rule: nonzero; opacity: 1;" transform="translate(142.24 151.76) translate(-140.24161, -149.76403)  matrix(1.000000035652758 0 0 1.000000035652758 1.9983900000000006 1.9959699999999998) " stroke-linecap="round" />
<path id="path4433" d="m 126.18859 133.76403 l 28.10604 0" style="stroke: rgb(104,117,136); stroke-width: 4; stroke-dasharray: none; stroke-linecap: round; stroke-linejoin: round; stroke-miterlimit: 4; fill: none; fill-rule: nonzero; opacity: 1;" transform="translate(142.24 135.76) translate(-140.24161, -133.76403)  matrix(1.000000035652758 0 0 1.000000035652758 1.9983900000000006 1.9959699999999998) " stroke-linecap="round" />
<path id="path4435" d="m 122.18859 117.76403 l 36.10604 0" style="stroke: rgb(104,117,136); stroke-width: 4; stroke-dasharray: none; stroke-linecap: round; stroke-linejoin: round; stroke-miterlimit: 4; fill: none; fill-rule: nonzero; opacity: 1;" transform="translate(142.24 119.76) translate(-140.24161, -117.76403)  matrix(1.000000035652758 0 0 1.000000035652758 1.9983900000000006 1.9959699999999998) " stroke-linecap="round" />
<rect x="-25" y="-25" rx="0" ry="0" width="50" height="50" style="stroke: none; stroke-width: 1; stroke-dasharray: none; stroke-linecap: butt; stroke-linejoin: miter; stroke-miterlimit: 10; fill: rgb(192,216,12); fill-rule: nonzero; opacity: 0.8;" transform="translate(0.5 0.5) matrix(1 0 0 1 68.5 302.5) "/>
<circle cx="0" cy="0" r="50" style="stroke: none; stroke-width: 1; stroke-dasharray: none; stroke-linecap: butt; stroke-linejoin: miter; stroke-miterlimit: 10; fill: rgb(171,15,175); fill-rule: nonzero; opacity: 0.8;" transform="translate(0.5 0.5)  matrix(1 0 0 1 0 0) "/>
</svg>