<?xml version="1.0" encoding="utf-8"?>
<!-- Generator: Adobe Illustrator 15.1.0, SVG Export Plug-In . SVG Version: 6.00 Build 0)  -->
<!DOCTYPE svg PUBLIC "-//W3C//DTD SVG 1.1//EN" "http://www.w3.org/Graphics/SVG/1.1/DTD/svg11.dtd">
<svg version="1.1" id="Layer_01" xmlns="http://www.w3.org/2000/svg" xmlns:xlink="http://www.w3.org/1999/xlink" x="0px" y="0px"
	 width="75px" height="125px" viewBox="0 0 75 125" xmlns:agg="http://www.example.com" xml:space="preserve">
	 
<agg:params>
	<agg:param type="C" name="color" description="Color" cssAttributes="fill" classes="color"/>
	<agg:param type="F" name="saturation" description="Saturation" min="0" max="1" cssAttributes="opacity" classes="color"/>
</agg:params>

<style type="text/css" >
   <![CDATA[

	.stroke,.thin,.thick{
		stroke-linecap:butt;
		stroke-linejoin:round;
		stroke: black;
		fill:none;
		opacity:0.5;
	}

	.stroke{stroke-width:0.5;}

	.thin {stroke-width:0.25;}

	.thick {stroke-width:0.75;}
	
	.color {
		fill:#3664BF;
		opacity:0.2;
	}

      ]]>
</style>

<defs>
	<linearGradient id="cyl" gradientUnits="userSpaceOnUse">
		<stop  offset="0" style="stop-color:#757575"/>
		<stop  offset="0.0583" style="stop-color:#959595"/>
		<stop  offset="0.132" style="stop-color:#BABABA"/>
		<stop  offset="0.2058" style="stop-color:#D7D7D7"/>
		<stop  offset="0.2788" style="stop-color:#EBEBEB"/>
		<stop  offset="0.3507" style="stop-color:#F8F8F8"/>
		<stop  offset="0.42" style="stop-color:#FCFCFC"/>
		<stop  offset="0.4749" style="stop-color:#F8F8F8"/>
		<stop  offset="0.5318" style="stop-color:#EBEBEB"/>
		<stop  offset="0.5897" style="stop-color:#D7D7D7"/>
		<stop  offset="0.6481" style="stop-color:#BABABA"/>
		<stop  offset="0.7066" style="stop-color:#959595"/>
		<stop  offset="0.72" style="stop-color:#8B8B8B"/>
		<stop  offset="1" style="stop-color:#FCFCFC"/>
	</linearGradient>
	
	<linearGradient id="cyl_1" xlink:href="#cyl" gradientUnits="userSpaceOnUse" x1="21.1045" y1="114.9209" x2="66.4692" y2="114.9209"/>
	<linearGradient id="cyl_2" xlink:href="#cyl" gradientUnits="userSpaceOnUse" x1="27.0474" y1="60.4482" x2="60.4854" y2="60.4482"/>
	<linearGradient id="cyl_3" xlink:href="#cyl" gradientUnits="userSpaceOnUse" x1="53.8188" y1="8.7651" x2="58.8936" y2="8.7651"/>
	<linearGradient id="cyl_4" xlink:href="#cyl" gradientUnits="userSpaceOnUse" x1="63.9272" y1="60.4482" x2="66.4692" y2="60.4482"/>
	<linearGradient id="cyl_5" xlink:href="#cyl" gradientUnits="userSpaceOnUse" x1="18.6079" y1="94.4829" x2="68.9658" y2="94.4829"/>
	<linearGradient id="cyl_6" xlink:href="#cyl" gradientUnits="userSpaceOnUse" x1="18.6079" y1="26.4146" x2="68.9658" y2="26.4146"/>
	<linearGradient id="cyl_7" xlink:href="#cyl" gradientUnits="userSpaceOnUse" x1="23.6416" y1="16.3291" x2="63.9272" y2="16.3291"/>
	<linearGradient id="cyl_8" xlink:href="#cyl" gradientUnits="userSpaceOnUse" x1="41.2495" y1="6.2432" x2="46.3242" y2="6.2432"/>
	<linearGradient id="cyl_9" xlink:href="#cyl" gradientUnits="userSpaceOnUse" x1="42.5386" y1="60.4482" x2="45.0352" y2="60.4482"/>
	<linearGradient id="cyl_10" xlink:href="#cyl" gradientUnits="userSpaceOnUse" x1="21.1045" y1="60.4482" x2="23.6416" y2="60.4482"/>
	<linearGradient id="cyl_11" xlink:href="#cyl" gradientUnits="userSpaceOnUse" x1="1" y1="91.9609" x2="16.1113" y2="91.9609"/>
	
	<linearGradient id="boss_1" gradientUnits="userSpaceOnUse" x1="1" y1="102.0488" x2="74" y2="102.0488">
		<stop  offset="0" style="stop-color:#767677"/>
		<stop  offset="0.0285" style="stop-color:#959595"/>
		<stop  offset="0.061" style="stop-color:#BBBBBB"/>
		<stop  offset="0.0935" style="stop-color:#D7D7D7"/>
		<stop  offset="0.1256" style="stop-color:#EBEBEB"/>
		<stop  offset="0.1573" style="stop-color:#F7F8F8"/>
		<stop  offset="0.1878" style="stop-color:#FDFEFF"/>
		<stop  offset="0.3189" style="stop-color:#F7F8F8"/>
		<stop  offset="0.4546" style="stop-color:#EBEBEB"/>
		<stop  offset="0.5926" style="stop-color:#D7D7D7"/>
		<stop  offset="0.7321" style="stop-color:#BBBBBB"/>
		<stop  offset="0.8715" style="stop-color:#959595"/>
		<stop  offset="0.9036" style="stop-color:#8B8B8B"/>
		<stop  offset="1" style="stop-color:#FDFEFF"/>
	</linearGradient>
</defs>
	 
<g id="cyl">
	<rect x="21.104" y="105.842" fill="url(#cyl_1)" width="45.365" height="18.158"/>
	<rect x="27.047" y="30.187" fill="url(#cyl_2)" width="33.438" height="60.523"/>
	<rect x="53.819" y="7.514" fill="url(#cyl_3)" width="5.075" height="2.502"/>
	<polygon fill="url(#cyl_4)" points="66.469,30.187 66.469,90.71 63.968,90.71 63.927,30.187 	"/>
	<rect x="18.608" y="90.71" fill="url(#cyl_5)" width="50.358" height="7.546"/>
	<rect x="18.608" y="22.642" fill="url(#cyl_6)" width="50.358" height="7.545"/>
	<polygon fill="url(#cyl_7)" points="63.927,22.642 23.642,22.642 23.642,10.016 63.927,10.016 	"/>
	<polygon fill="url(#cyl_8)" points="46.324,4.045 46.324,10.016 41.25,10.016 41.25,2.471 46.324,2.471 	"/>
	<rect x="42.539" y="30.187" fill="url(#cyl_9)" width="2.497" height="60.523"/>
	<polygon fill="url(#cyl_10)" points="23.642,30.187 23.642,90.71 21.145,90.71 21.104,30.187 	"/>
	<rect x="1" y="85.666" fill="url(#cyl_11)" width="15.111" height="12.59"/>
</g>

<rect id="boss" x="1" y="98.256" fill="url(#boss_1)" width="73" height="7.586"/>

<path class="color" d="M74,98.256h-5.034V90.71h-2.497V30.187h2.497v-7.545h-5.039v-0.041V10.016h-5.034V7.514h-5.075v2.502
	h-7.495V4.045V2.471H41.25v7.545H23.642v12.585v0.041h-5.034v7.545h2.497l0.041,60.523h-2.537v7.546h-2.497v-12.59H1v12.59v7.586
	h20.104V124h45.365v-18.158H74V98.256z M60.485,30.187h3.442l0.041,60.523h-3.483V30.187z M23.642,30.187h3.406V90.71h-3.406V30.187
	z"/>

<g id="lines" class="stroke">
	<line x1="60.522" y1="30.187" x2="60.485" y2="90.71"/>
	<line x1="27.047" y1="30.187" x2="27.047" y2="90.71"/>
	<rect x="18.608" y="22.642" width="50.358" height="7.545"/>
	<line x1="45.035" y1="30.187" x2="45.035" y2="90.71"/>
	<line x1="42.539" y1="30.187" x2="42.539" y2="90.71"/>
	<line x1="66.469" y1="30.187" x2="66.469" y2="90.71"/>
	<line x1="21.104" y1="30.187" x2="21.145" y2="90.71"/>
	<line x1="23.642" y1="30.187" x2="23.642" y2="90.71"/>
	<line x1="63.927" y1="30.187" x2="63.968" y2="90.71"/>
	<polyline points="66.469,105.842 66.469,124 21.104,124 21.104,105.842 	"/>
	<polyline points="53.819,10.016 53.819,7.514 58.894,7.514 58.894,10.016 	"/>
	<polyline points="41.25,10.016 41.25,2.471 46.324,2.471 46.324,10.016 	"/>
	<polyline points="1,98.256 1,85.666 16.111,85.666 16.111,98.256"/>
	<rect x="1" y="98.256" width="73" height="7.586"/>
	<polyline points="18.608,98.256 18.608,90.71 68.966,90.71 68.966,98.256 	"/>
	<polyline points="23.642,22.601 23.642,10.016 63.927,10.016 63.927,22.601 	"/>
</g>

<path id="wire" opacity="0.5" fill="none" stroke-width="1.5" stroke="black" d="
	M46.324,4.045c2.402-0.073,3.315-0.38,3.985-0.878c0.66-0.488,1.09-1.163,1.728-1.592c1.307-0.873,3.492-0.724,4.699,0.258
	c0.697,0.57,1.072,1.412,0.833,2.185c-0.24,0.787-1.117,1.506-1.212,3.497"/>
	
<g id="holes" opacity="0.5">
	<path d="M64.013,117.946c0.083,0,0.166-0.018,0.243-0.049c0.082-0.035,0.157-0.086,0.223-0.147c0.077-0.07,0.142-0.152,0.198-0.24
		c0.074-0.115,0.134-0.238,0.186-0.366c0.055-0.137,0.1-0.278,0.137-0.421c0.047-0.18,0.083-0.364,0.112-0.548
		c0.063-0.41,0.09-0.824,0.091-1.239c0-0.403-0.023-0.807-0.082-1.206c-0.028-0.192-0.064-0.383-0.111-0.571
		c-0.038-0.15-0.083-0.298-0.139-0.441c-0.047-0.121-0.102-0.238-0.169-0.349c-0.058-0.096-0.125-0.187-0.207-0.264
		c-0.068-0.066-0.147-0.123-0.235-0.16c-0.081-0.035-0.169-0.052-0.257-0.051c-0.1,0.001-0.2,0.028-0.292,0.068
		c-0.113,0.05-0.216,0.122-0.309,0.205c-0.11,0.098-0.207,0.211-0.293,0.331c-0.083,0.115-0.156,0.237-0.221,0.364
		c-0.154,0.297-0.264,0.617-0.34,0.944c-0.084,0.364-0.125,0.738-0.126,1.112c0,0.374,0.041,0.747,0.124,1.11
		c0.079,0.343,0.196,0.678,0.362,0.989c0.074,0.139,0.158,0.273,0.255,0.398c0.08,0.103,0.168,0.199,0.269,0.284
		c0.092,0.078,0.193,0.145,0.304,0.19C63.824,117.925,63.917,117.946,64.013,117.946z"/>
	<path d="M54.117,117.946c0.343,0.001,0.688-0.075,1-0.218c0.317-0.146,0.6-0.364,0.831-0.625c0.253-0.287,0.443-0.626,0.572-0.987
		c0.135-0.378,0.201-0.778,0.203-1.18c0.001-0.41-0.064-0.819-0.201-1.206c-0.125-0.351-0.308-0.683-0.55-0.965
		c-0.239-0.277-0.535-0.508-0.867-0.659c-0.314-0.143-0.66-0.215-1.005-0.212c-0.358,0.002-0.715,0.085-1.042,0.23
		c-0.35,0.155-0.667,0.382-0.932,0.658c-0.268,0.279-0.482,0.61-0.629,0.968c-0.151,0.37-0.231,0.769-0.231,1.168
		c0,0.398,0.079,0.797,0.229,1.165c0.147,0.361,0.363,0.694,0.633,0.976c0.266,0.278,0.585,0.505,0.937,0.661
		C53.393,117.865,53.754,117.946,54.117,117.946z"/>
	<path d="M57.214,110.381c0,0.443,0.079,0.886,0.236,1.301c0.146,0.384,0.359,0.744,0.642,1.042
		c0.258,0.271,0.574,0.491,0.932,0.604c0.154,0.049,0.317,0.077,0.479,0.08c0.164,0.003,0.327-0.019,0.482-0.066
		c0.153-0.046,0.3-0.116,0.435-0.203c0.142-0.093,0.27-0.206,0.384-0.331c0.127-0.14,0.236-0.295,0.33-0.459
		c0.106-0.188,0.191-0.386,0.259-0.589c0.141-0.423,0.208-0.869,0.214-1.316c0.006-0.45-0.051-0.901-0.181-1.332
		c-0.087-0.29-0.208-0.57-0.371-0.825c-0.151-0.236-0.339-0.45-0.567-0.614c-0.196-0.141-0.42-0.243-0.657-0.289
		c-0.252-0.049-0.517-0.032-0.765,0.039c-0.259,0.075-0.499,0.208-0.71,0.375c-0.242,0.192-0.446,0.43-0.611,0.691
		c-0.174,0.275-0.305,0.577-0.394,0.891C57.26,109.705,57.214,110.042,57.214,110.381z"/>
	<path d="M59.534,122.485c0.144,0,0.289-0.02,0.427-0.059c0.14-0.04,0.275-0.099,0.4-0.174c0.261-0.156,0.478-0.38,0.65-0.632
		c0.202-0.294,0.342-0.626,0.437-0.969c0.11-0.396,0.161-0.806,0.159-1.216c-0.002-0.392-0.052-0.783-0.156-1.16
		c-0.094-0.339-0.231-0.668-0.428-0.96c-0.179-0.265-0.405-0.5-0.681-0.66c-0.162-0.094-0.341-0.163-0.526-0.196
		c-0.097-0.018-0.195-0.026-0.293-0.025c-0.31,0.003-0.617,0.099-0.887,0.252c-0.303,0.173-0.559,0.419-0.766,0.7
		c-0.218,0.295-0.381,0.629-0.49,0.979c-0.113,0.365-0.168,0.75-0.164,1.132c0.004,0.376,0.064,0.75,0.181,1.107
		s0.29,0.696,0.521,0.991c0.203,0.26,0.451,0.487,0.739,0.648C58.923,122.394,59.226,122.486,59.534,122.485z"/>
	<circle cx="40.275" cy="114.92" r="3.026"/>
	<circle cx="46.931" cy="110.381" r="3.025"/>
	<circle cx="46.931" cy="119.459" r="3.026"/>
	<path d="M27.774,117.946c0.305,0.001,0.604-0.092,0.868-0.242c0.284-0.161,0.527-0.387,0.727-0.645
		c0.232-0.299,0.404-0.642,0.52-1.002c0.115-0.361,0.174-0.741,0.176-1.121c0.001-0.388-0.056-0.775-0.173-1.145
		c-0.111-0.351-0.277-0.686-0.499-0.98c-0.207-0.275-0.462-0.516-0.763-0.683c-0.266-0.148-0.566-0.238-0.869-0.235
		c-0.278,0.003-0.558,0.086-0.798,0.229c-0.27,0.16-0.488,0.397-0.661,0.66c-0.194,0.295-0.33,0.625-0.421,0.966
		c-0.102,0.38-0.149,0.774-0.15,1.167c0,0.413,0.051,0.824,0.163,1.22c0.096,0.341,0.235,0.67,0.436,0.962
		c0.169,0.247,0.381,0.466,0.637,0.619c0.122,0.073,0.254,0.131,0.391,0.17C27.493,117.927,27.634,117.946,27.774,117.946z"/>
	<path d="M30.551,110.381c0,0.402,0.064,0.804,0.197,1.184c0.126,0.362,0.314,0.703,0.565,0.993c0.225,0.259,0.5,0.476,0.81,0.624
		c0.316,0.15,0.668,0.228,1.02,0.226c0.353-0.001,0.705-0.083,1.028-0.227c0.366-0.163,0.696-0.406,0.966-0.702
		c0.263-0.289,0.471-0.627,0.61-0.992c0.133-0.352,0.203-0.728,0.203-1.104c0-0.377-0.069-0.755-0.204-1.108
		c-0.139-0.364-0.346-0.701-0.608-0.988c-0.259-0.285-0.573-0.52-0.922-0.683c-0.336-0.157-0.705-0.246-1.075-0.248
		c-0.351-0.001-0.703,0.076-1.02,0.227c-0.309,0.147-0.584,0.364-0.809,0.623c-0.251,0.291-0.44,0.633-0.565,0.996
		C30.615,109.579,30.551,109.98,30.551,110.381z"/>
	<path d="M33.127,122.485c0.363,0,0.725-0.083,1.055-0.233c0.352-0.158,0.669-0.391,0.932-0.673c0.266-0.285,0.477-0.62,0.619-0.983
		c0.145-0.369,0.219-0.765,0.216-1.162s-0.083-0.793-0.234-1.16c-0.146-0.355-0.358-0.683-0.623-0.96
		c-0.265-0.278-0.583-0.506-0.935-0.661c-0.328-0.144-0.685-0.223-1.043-0.221c-0.344,0.002-0.688,0.08-0.999,0.229
		c-0.329,0.157-0.618,0.394-0.85,0.676c-0.234,0.285-0.409,0.617-0.527,0.966c-0.129,0.382-0.19,0.788-0.187,1.191
		c0.004,0.396,0.071,0.792,0.203,1.167c0.126,0.356,0.313,0.692,0.561,0.977c0.229,0.263,0.509,0.481,0.824,0.628
		C32.447,122.411,32.788,122.486,33.127,122.485z"/>
	<path d="M22.252,110.381c0,0.474,0.032,0.949,0.113,1.416c0.034,0.194,0.077,0.387,0.133,0.577c0.048,0.158,0.105,0.313,0.18,0.459
		c0.059,0.117,0.128,0.229,0.216,0.325c0.072,0.08,0.156,0.149,0.253,0.194c0.087,0.04,0.185,0.06,0.28,0.055
		c0.106-0.005,0.21-0.041,0.304-0.091c0.091-0.048,0.173-0.109,0.249-0.178c0.088-0.081,0.167-0.171,0.239-0.268
		c0.152-0.203,0.271-0.428,0.369-0.662c0.119-0.286,0.204-0.585,0.261-0.89c0.058-0.309,0.085-0.623,0.085-0.937
		c0-0.315-0.028-0.63-0.086-0.94c-0.057-0.304-0.142-0.603-0.26-0.888c-0.097-0.234-0.216-0.458-0.368-0.661
		c-0.072-0.096-0.151-0.187-0.239-0.268c-0.076-0.069-0.158-0.131-0.25-0.179c-0.094-0.049-0.198-0.084-0.304-0.09
		c-0.096-0.005-0.194,0.014-0.281,0.054c-0.097,0.044-0.182,0.115-0.253,0.195c-0.088,0.098-0.157,0.208-0.216,0.325
		c-0.075,0.147-0.132,0.302-0.18,0.46c-0.057,0.189-0.1,0.383-0.134,0.579C22.284,109.434,22.252,109.908,22.252,110.381z"/>
	<path d="M23.395,122.485c0.093,0,0.186-0.023,0.271-0.059c0.11-0.047,0.209-0.116,0.298-0.195c0.098-0.086,0.185-0.186,0.263-0.29
		c0.094-0.127,0.176-0.263,0.248-0.404c0.16-0.314,0.271-0.65,0.347-0.996c0.079-0.363,0.116-0.734,0.115-1.106
		c-0.002-0.371-0.043-0.743-0.125-1.105c-0.074-0.324-0.181-0.64-0.33-0.936c-0.063-0.127-0.135-0.25-0.217-0.367
		c-0.084-0.12-0.179-0.232-0.288-0.331c-0.09-0.082-0.19-0.153-0.302-0.202c-0.089-0.039-0.187-0.063-0.284-0.062
		c-0.085,0.001-0.171,0.022-0.249,0.059c-0.077,0.037-0.145,0.089-0.205,0.149c-0.079,0.078-0.145,0.169-0.201,0.265
		c-0.064,0.109-0.116,0.224-0.161,0.342c-0.054,0.142-0.097,0.288-0.133,0.436c-0.045,0.185-0.08,0.374-0.106,0.562
		c-0.059,0.414-0.083,0.833-0.081,1.251c0.001,0.41,0.028,0.819,0.088,1.224c0.027,0.183,0.062,0.364,0.106,0.542
		c0.036,0.142,0.078,0.282,0.13,0.418c0.049,0.127,0.106,0.251,0.178,0.368c0.054,0.087,0.117,0.17,0.191,0.241
		c0.063,0.06,0.135,0.112,0.215,0.146C23.234,122.468,23.315,122.485,23.395,122.485z"/>
</g>
</svg>
