<?xml version="1.0" standalone="no"?><!DOCTYPE svg PUBLIC "-//W3C//DTD SVG 1.1//EN" "http://www.w3.org/Graphics/SVG/1.1/DTD/svg11.dtd"><svg width="100%" height="100%" version="1.1" xmlns="http://www.w3.org/2000/svg"><g transform="translate(28.38 87.54)" style="">
	<path id="path6821" d="m 370.01237 221.32725 c 0 -1.10776 0.87335 -1.98747 1.94082 -1.98747 c 1.09973 0 1.97267 0.87971 1.97267 1.98747 c 0 1.07523 -0.87294 1.95492 -1.97267 1.95492 c -1.06747 0 -1.94082 -0.87969 -1.94082 -1.95492 z" style="stroke: none; stroke-width: 1; stroke-dasharray: none; stroke-linecap: butt; stroke-linejoin: miter; stroke-miterlimit: 10; fill: rgb(255,255,255); fill-rule: evenodd; opacity: 1;" transform="translate(0.12 -82.87) scale(1.91 1.89) translate(-371.969115, -221.31097499999998)  matrix(1 0 0 1 0 0) " stroke-linecap="round" />
	<path id="path6823" d="m 370.01237 221.32725 c 0 -1.10776 0.87335 -1.98747 1.94082 -1.98747 c 1.09973 0 1.97267 0.87971 1.97267 1.98747 c 0 1.07523 -0.87294 1.95492 -1.97267 1.95492 c -1.06747 0 -1.94082 -0.87969 -1.94082 -1.95492" style="stroke: rgb(255,255,255); stroke-width: 0.51938933; stroke-dasharray: none; stroke-linecap: round; stroke-linejoin: round; stroke-miterlimit: 4; fill: none; fill-rule: nonzero; opacity: 1;" transform="translate(0.12 -82.87) scale(1.91 1.89) translate(-371.969115, -221.31097499999998)  matrix(1 0 0 1 0 0) " stroke-linecap="round" />
	<path id="path6903" d="m 371.8882 245.89243 l 0 7.88432" style="stroke: rgb(102,0,204); stroke-width: 0.51938933; stroke-dasharray: none; stroke-linecap: round; stroke-linejoin: round; stroke-miterlimit: 4; fill: none; fill-rule: nonzero; opacity: 1;" transform="translate(-0.03 -29.07) scale(1.91 1.89) translate(-371.8882, -249.83459)  matrix(1 0 0 1 0 0) " stroke-linecap="round" />
	<path id="path6905" d="m 371.95319 269.57793 l 0 -9.87177" style="stroke: rgb(102,0,204); stroke-width: 0.51938933; stroke-dasharray: none; stroke-linecap: round; stroke-linejoin: round; stroke-miterlimit: 4; fill: none; fill-rule: nonzero; opacity: 1;" transform="translate(0.09 -1.13) scale(1.91 1.89) translate(-371.95319, -264.64204499999994)  matrix(1 0 0 1 0 0) " stroke-linecap="round" />
	<path id="path6911" d="m 371.8882 241.95047 l 2.78186 4.26758" style="stroke: rgb(102,0,204); stroke-width: 0.51938933; stroke-dasharray: none; stroke-linecap: round; stroke-linejoin: round; stroke-miterlimit: 4; fill: none; fill-rule: nonzero; opacity: 1;" transform="translate(2.62 -39.91) scale(1.91 1.89) translate(-373.27913, -244.08426)  matrix(1 0 0 1 0 0) " stroke-linecap="round" />
	<path id="path6913" d="m 369.13904 246.21805 l 2.74916 -4.26758" style="stroke: rgb(102,0,204); stroke-width: 0.51938933; stroke-dasharray: none; stroke-linecap: round; stroke-linejoin: round; stroke-miterlimit: 4; fill: none; fill-rule: nonzero; opacity: 1;" transform="translate(-2.66 -39.91) scale(1.91 1.89) translate(-370.51362000000006, -244.08426)  matrix(1 0 0 1 0 0) " stroke-linecap="round" />
	<path id="path6915" d="m 371.8882 245.56683 l 2.78186 4.26755" style="stroke: rgb(102,0,204); stroke-width: 0.51938933; stroke-dasharray: none; stroke-linecap: round; stroke-linejoin: round; stroke-miterlimit: 4; fill: none; fill-rule: nonzero; opacity: 1;" transform="translate(2.62 -33.09) scale(1.91 1.89) translate(-373.27913, -247.700605)  matrix(1 0 0 1 0 0) " stroke-linecap="round" />
	<path id="path6917" d="m 369.13904 249.83438 l 2.74916 -4.26755" style="stroke: rgb(102,0,204); stroke-width: 0.51938933; stroke-dasharray: none; stroke-linecap: round; stroke-linejoin: round; stroke-miterlimit: 4; fill: none; fill-rule: nonzero; opacity: 1;" transform="translate(-2.66 -33.09) scale(1.91 1.89) translate(-370.51362000000006, -247.700605)  matrix(1 0 0 1 0 0) " stroke-linecap="round" />
	<path id="path6919" d="m 372.01775 273.58534 l 2.71689 -4.07246" style="stroke: rgb(102,0,204); stroke-width: 0.51938933; stroke-dasharray: none; stroke-linecap: round; stroke-linejoin: round; stroke-miterlimit: 4; fill: none; fill-rule: nonzero; opacity: 1;" transform="translate(2.81 11.89) scale(1.91 1.89) translate(-373.37619499999994, -271.54911)  matrix(1 0 0 1 0 0) " stroke-linecap="round" />
	<path id="path6921" d="m 369.20359 269.57793 l 2.7496 4.13748" style="stroke: rgb(102,0,204); stroke-width: 0.51938933; stroke-dasharray: none; stroke-linecap: round; stroke-linejoin: round; stroke-miterlimit: 4; fill: none; fill-rule: nonzero; opacity: 1;" transform="translate(-2.54 12.08) scale(1.91 1.89) translate(-370.57839, -271.64667)  matrix(1 0 0 1 0 0) " stroke-linecap="round" />
	<path id="path6923" d="m 372.01775 269.77346 l -2.78145 -4.13789" style="stroke: rgb(102,0,204); stroke-width: 0.51938933; stroke-dasharray: none; stroke-linecap: round; stroke-linejoin: round; stroke-miterlimit: 4; fill: none; fill-rule: nonzero; opacity: 1;" transform="translate(-2.44 4.64) scale(1.91 1.89) translate(-370.627025, -267.704515)  matrix(1 0 0 1 0 0) " stroke-linecap="round" />
	<path id="path6925" d="m 374.79922 265.63557 l -2.78147 4.13789" style="stroke: rgb(102,0,204); stroke-width: 0.51938933; stroke-dasharray: none; stroke-linecap: round; stroke-linejoin: round; stroke-miterlimit: 4; fill: none; fill-rule: nonzero; opacity: 1;" transform="translate(2.87 4.64) scale(1.91 1.89) translate(-373.408485, -267.704515)  matrix(1 0 0 1 0 0) " stroke-linecap="round" />
	<path id="path6929" d="m 371.95319 224.45497 l 0 17.75608" style="stroke: rgb(102,0,204); stroke-width: 0.51938933; stroke-dasharray: none; stroke-linecap: round; stroke-linejoin: round; stroke-miterlimit: 4; fill: none; fill-rule: nonzero; opacity: 1;" transform="translate(0.09 -60.19) scale(1.91 1.89) translate(-371.95319, -233.33301)  matrix(1 0 0 1 0 0) " stroke-linecap="round" />
	<path id="path6931" d="m 371.95319 273.71541 l 0 3.94238" style="stroke: rgb(102,0,204); stroke-width: 0.51938933; stroke-dasharray: none; stroke-linecap: round; stroke-linejoin: round; stroke-miterlimit: 4; fill: none; fill-rule: nonzero; opacity: 1;" transform="translate(0.09 19.7) scale(1.91 1.89) translate(-371.95319, -275.6866)  matrix(1 0 0 1 0 0) " stroke-linecap="round" />
	<path id="path6933" d="m 374.41137 308.67351 l -4.88409 0 l 2.42591 2.47608 l 2.45818 -2.47608 z" style="stroke: none; stroke-width: 1; stroke-dasharray: none; stroke-linecap: butt; stroke-linejoin: miter; stroke-miterlimit: 10; fill: rgb(255,255,255); fill-rule: evenodd; opacity: 1;" transform="translate(0.12 84.26) scale(1.91 1.89) translate(-371.96932499999997, -309.91155000000003)  matrix(1 0 0 1 0 0) " stroke-linecap="round" />
	<path id="path6935" d="m 374.41137 308.67351 l -4.88409 0 l 2.42591 2.47608 l 2.45818 -2.47608 z m -2.45818 -7.36317 l 0 7.36317 z" style="stroke: rgb(102,0,204); stroke-width: 0.51938933; stroke-dasharray: none; stroke-linecap: round; stroke-linejoin: round; stroke-miterlimit: 4; fill: none; fill-rule: nonzero; opacity: 1;" transform="translate(0.12 77.32) scale(1.91 1.89) translate(-371.96932499999997, -306.229965)  matrix(1 0 0 1 0 0) " stroke-linecap="round" />
	<path id="path6937" d="m 371.95319 277.65779 l 0 23.65255" style="stroke: rgb(102,0,204); stroke-width: 0.51938933; stroke-dasharray: none; stroke-linecap: round; stroke-linejoin: round; stroke-miterlimit: 4; fill: none; fill-rule: nonzero; opacity: 1;" transform="translate(0.09 45.73) scale(1.91 1.89) translate(-371.95319, -289.484065)  matrix(1 0 0 1 0 0) " stroke-linecap="round" />
	<path id="path6939" d="m 372.53513 277.13623 c 0 -0.32562 -0.25868 -0.5862 -0.58194 -0.5862 c -0.3237 0 -0.58238 0.26058 -0.58238 0.5862 c 0 0.32601 0.25868 0.5866 0.58238 0.5866 c 0.32326 0 0.58194 -0.26059 0.58194 -0.5866 z" style="stroke: none; stroke-width: 1; stroke-dasharray: none; stroke-linecap: butt; stroke-linejoin: miter; stroke-miterlimit: 10; fill: rgb(102,0,204); fill-rule: evenodd; opacity: 1;" transform="translate(0.09 22.43) scale(1.91 1.89) translate(-371.95297, -277.13643)  matrix(1 0 0 1 0 0) " stroke-linecap="round" />
	<path id="path6941" d="m 372.53513 277.13623 c 0 -0.32562 -0.25868 -0.5862 -0.58194 -0.5862 c -0.3237 0 -0.58238 0.26058 -0.58238 0.5862 c 0 0.32601 0.25868 0.5866 0.58238 0.5866 c 0.32326 0 0.58194 -0.26059 0.58194 -0.5866" style="stroke: rgb(102,0,204); stroke-width: 0.51938933; stroke-dasharray: none; stroke-linecap: round; stroke-linejoin: round; stroke-miterlimit: 4; fill: none; fill-rule: nonzero; opacity: 1;" transform="translate(0.09 22.43) scale(1.91 1.89) translate(-371.95297, -277.13643)  matrix(1 0 0 1 0 0) " stroke-linecap="round" />
	<path id="path6943" d="m 359.59765 300.56113 l 1.55257 0 m -2.32906 -0.78172 l 3.10513 0 m -3.88119 -0.78213 l 4.65726 0 m -2.32863 -9.38273 l 0 9.38273" style="stroke: rgb(102,0,204); stroke-width: 0.51938933; stroke-dasharray: none; stroke-linecap: round; stroke-linejoin: round; stroke-miterlimit: 4; fill: none; fill-rule: nonzero; opacity: 1;" transform="translate(-22.02 56.3) scale(1.91 1.89) translate(-360.3737299999999, -295.08784)  matrix(1 0 0 1 0 0) " stroke-linecap="round" />
	<path id="path6945" d="m 358.07738 286.06323 l 0 9.35023 l 4.62498 0 l 0 -9.35023 l -4.62498 0 z" style="stroke: none; stroke-width: 1; stroke-dasharray: none; stroke-linecap: butt; stroke-linejoin: miter; stroke-miterlimit: 10; fill: rgb(255,255,255); fill-rule: evenodd; opacity: 1;" transform="translate(-21.99 48.09) scale(1.91 1.89) translate(-360.38987, -290.738345)  matrix(1 0 0 1 0 0) " stroke-linecap="round" />
	<path id="path6947" d="m 362.70236 295.41346 l -4.62498 0 l 0 -9.35023 l 4.62498 0 l 0 9.35023 z" style="stroke: rgb(102,0,204); stroke-width: 0.51938933; stroke-dasharray: none; stroke-linecap: round; stroke-linejoin: round; stroke-miterlimit: 4; fill: none; fill-rule: nonzero; opacity: 1;" transform="translate(-21.99 48.09) scale(1.91 1.89) translate(-360.38987, -290.738345)  matrix(1 0 0 1 0 0) " stroke-linecap="round" />
	<path id="path6949" d="m 383.88818 291.96012 l 2.62002 -5.27774" style="stroke: rgb(102,0,204); stroke-width: 0.51938933; stroke-dasharray: none; stroke-linecap: round; stroke-linejoin: round; stroke-miterlimit: 4; fill: none; fill-rule: nonzero; opacity: 1;" transform="translate(25.38 45.42) scale(1.91 1.89) translate(-385.19818999999995, -289.32125)  matrix(1 0 0 1 0 0) " stroke-linecap="round" />
	<path id="path6951" d="m 383.88818 286.68238 l 0 -7.26563 m 0 19.77607 l 0 -7.2327 m 0.51738 -5.27774 l -1.03475 0" style="stroke: rgb(102,0,204); stroke-width: 0.51938933; stroke-dasharray: none; stroke-linecap: round; stroke-linejoin: round; stroke-miterlimit: 4; fill: none; fill-rule: nonzero; opacity: 1;" transform="translate(22.88 45.39) scale(1.91 1.89) translate(-383.888185, -289.30478500000004)  matrix(1 0 0 1 0 0) " stroke-linecap="round" />
	<path id="path6953" d="m 384.76152 300.52862 l -1.74667 0 m 2.62 -0.87971 l -3.49336 0 m 4.36671 -0.87969 l -5.24006 0 m 2.62004 -6.15744 l 0 6.15744" style="stroke: rgb(102,0,204); stroke-width: 0.51938933; stroke-dasharray: none; stroke-linecap: round; stroke-linejoin: round; stroke-miterlimit: 4; fill: none; fill-rule: nonzero; opacity: 1;" transform="translate(22.88 59.09) scale(1.91 1.89) translate(-383.88817000000006, -296.5702)  matrix(1 0 0 1 0 0) " stroke-linecap="round" />
	<path id="path6955" d="m 360.40602 277.07119 l 23.48216 0" style="stroke: rgb(102,0,204); stroke-width: 0.51938933; stroke-dasharray: none; stroke-linecap: round; stroke-linejoin: round; stroke-miterlimit: 4; fill: none; fill-rule: nonzero; opacity: 1;" transform="translate(0.46 22.31) scale(1.91 1.89) translate(-372.1471, -277.07119)  matrix(1 0 0 1 0 0) " stroke-linecap="round" />
	<path id="path6957" d="m 383.88818 279.41675 l 0 -2.34556" style="stroke: rgb(102,0,204); stroke-width: 0.51938933; stroke-dasharray: none; stroke-linecap: round; stroke-linejoin: round; stroke-miterlimit: 4; fill: none; fill-rule: nonzero; opacity: 1;" transform="translate(22.88 24.52) scale(1.91 1.89) translate(-383.88818, -278.24397)  matrix(1 0 0 1 0 0) " stroke-linecap="round" />
	<path id="path6959" d="m 360.40602 277.26671 l 0 8.66605" style="stroke: rgb(102,0,204); stroke-width: 0.51938933; stroke-dasharray: none; stroke-linecap: round; stroke-linejoin: round; stroke-miterlimit: 4; fill: none; fill-rule: nonzero; opacity: 1;" transform="translate(-21.96 30.85) scale(1.91 1.89) translate(-360.40602, -281.599735)  matrix(1 0 0 1 0 0) " stroke-linecap="round" />
	<path id="path6961" d="m 363.54344 295.38094 l 0 -3.12771" style="stroke: rgb(102,0,204); stroke-width: 0.51938933; stroke-dasharray: none; stroke-linecap: round; stroke-linejoin: round; stroke-miterlimit: 4; fill: none; fill-rule: nonzero; opacity: 1;" transform="translate(-15.97 53.9) scale(1.91 1.89) translate(-363.54344, -293.817085)  matrix(1 0 0 1 0 0) " stroke-linecap="round" />
	<path id="path6963" d="m 357.30088 285.93276 l 6.24256 6.32047" style="stroke: rgb(102,0,204); stroke-width: 0.51938933; stroke-dasharray: none; stroke-linecap: round; stroke-linejoin: round; stroke-miterlimit: 4; fill: none; fill-rule: nonzero; opacity: 1;" transform="translate(-21.93 44.99) scale(1.91 1.89) translate(-360.42216, -289.092995)  matrix(1 0 0 1 0 0) " stroke-linecap="round" />
	<rect x="-25" y="-25" rx="0" ry="0" width="50" height="50" style="stroke: none; stroke-width: 1; stroke-dasharray: none; stroke-linecap: butt; stroke-linejoin: miter; stroke-miterlimit: 10; fill: rgb(255,0,0); fill-rule: nonzero; opacity: 1;" transform="translate(-0.65 -14.71) scale(0.44 0.44) matrix(1 0 0 1 0 0) "/>
</g>
</svg>