<?xml version="1.0" standalone="no"?><!DOCTYPE svg PUBLIC "-//W3C//DTD SVG 1.1//EN" "http://www.w3.org/Graphics/SVG/1.1/DTD/svg11.dtd"><svg width="100%" height="100%" version="1.1" xmlns="http://www.w3.org/2000/svg"><g transform="translate(63.66 202.91)" style="">
	<path id="path48873" d="m 405.88812 559.05114 l 0 16.09808" style="stroke: rgb(0,0,255); stroke-width: 2.21118379; stroke-dasharray: none; stroke-linecap: round; stroke-linejoin: round; stroke-miterlimit: 4; fill: none; fill-rule: nonzero; opacity: 1;" transform="translate(-23.09 193.14) scale(1.07 1.07) translate(-405.88812, -567.10018)  matrix(1 0 0 1 0 0) " stroke-linecap="round" />
	<path id="path48875" d="m 398.91796 563.04437 l 6.97016 10.04478" style="stroke: rgb(0,0,255); stroke-width: 2.21118379; stroke-dasharray: none; stroke-linecap: round; stroke-linejoin: round; stroke-miterlimit: 4; fill: none; fill-rule: nonzero; opacity: 1;" transform="translate(-26.81 194.17) scale(1.07 1.07) translate(-402.40304000000003, -568.0667599999999)  matrix(1 0 0 1 0 0) " stroke-linecap="round" />
	<path id="path48877" d="m 412.71015 563.04437 l -6.82203 10.04478" style="stroke: rgb(0,0,255); stroke-width: 2.21118379; stroke-dasharray: none; stroke-linecap: round; stroke-linejoin: round; stroke-miterlimit: 4; fill: none; fill-rule: nonzero; opacity: 1;" transform="translate(-19.46 194.17) scale(1.07 1.07) translate(-409.299135, -568.0667599999999)  matrix(1 0 0 1 0 0) " stroke-linecap="round" />
	<path id="path48879" d="m 412.71015 278.42901 c 0 2.83333 -2.52127 5.02257 -5.7839 5.02257 c -3.1143 0 -5.6355 -2.18924 -5.6355 -5.02257 c 0 -2.83327 2.5212 -5.02257 5.6355 -5.02257 c 3.26263 0 5.7839 2.1893 5.7839 5.02257" style="stroke: rgb(0,0,255); stroke-width: 2.21118379; stroke-dasharray: none; stroke-linecap: round; stroke-linejoin: round; stroke-miterlimit: 4; fill: none; fill-rule: nonzero; opacity: 1;" transform="translate(-21.91 -114.77) scale(1.07 1.07) translate(-407.00045, -278.42901)  matrix(1 0 0 1 0 0) " stroke-linecap="round" />
	<path id="path48881" d="m 405.88812 263.36114 l 0 6.05295" style="stroke: rgb(0,0,255); stroke-width: 2.21118379; stroke-dasharray: none; stroke-linecap: round; stroke-linejoin: round; stroke-miterlimit: 4; fill: none; fill-rule: nonzero; opacity: 1;" transform="translate(-23.09 -127.62) scale(1.07 1.07) translate(-405.88812, -266.387615)  matrix(1 0 0 1 0 0) " stroke-linecap="round" />
	<path id="path48883" d="m 405.88812 221.11972 l 0 10.04531" style="stroke: rgb(0,0,255); stroke-width: 2.21118379; stroke-dasharray: none; stroke-linecap: round; stroke-linejoin: round; stroke-miterlimit: 4; fill: none; fill-rule: nonzero; opacity: 1;" transform="translate(-23.09 -170.55) scale(1.07 1.07) translate(-405.88812, -226.14237500000002)  matrix(1 0 0 1 0 0) " stroke-linecap="round" />
	<path id="path48885" d="m 405.88812 221.11972 l 0 -24.2115 l 0 24.2115 z" style="stroke: rgb(0,0,255); stroke-width: 2.21118379; stroke-dasharray: none; stroke-linecap: round; stroke-linejoin: round; stroke-miterlimit: 4; fill: none; fill-rule: nonzero; opacity: 1;" transform="translate(-23.09 -188.82) scale(1.07 1.07) translate(-405.88812, -209.01397)  matrix(1 0 0 1 0 0) " stroke-linecap="round" />
	<path id="path48887" d="m 405.88812 269.41409 l 0 7.9846 l 0 -7.9846 z" style="stroke: rgb(0,0,255); stroke-width: 2.21118379; stroke-dasharray: none; stroke-linecap: round; stroke-linejoin: round; stroke-miterlimit: 4; fill: none; fill-rule: nonzero; opacity: 1;" transform="translate(-23.09 -120.13) scale(1.07 1.07) translate(-405.88812, -273.40639)  matrix(1 0 0 1 0 0) " stroke-linecap="round" />
	<path id="path48889" d="m 460.90792 277.39869 l 11.41919 0" style="stroke: rgb(0,0,255); stroke-width: 2.21118379; stroke-dasharray: none; stroke-linecap: round; stroke-linejoin: round; stroke-miterlimit: 4; fill: none; fill-rule: nonzero; opacity: 1;" transform="translate(41.68 -115.87) scale(1.07 1.07) translate(-466.617515, -277.39869)  matrix(1 0 0 1 0 0) " stroke-linecap="round" />
	<path id="path48891" d="m 472.32711 263.36114 l 0 28.20391" style="stroke: rgb(0,0,255); stroke-width: 2.21118379; stroke-dasharray: none; stroke-linecap: round; stroke-linejoin: round; stroke-miterlimit: 4; fill: none; fill-rule: nonzero; opacity: 1;" transform="translate(47.77 -115.8) scale(1.07 1.07) translate(-472.32711, -277.46309499999995)  matrix(1 0 0 1 0 0) " stroke-linecap="round" />
	<path id="path48893" d="m 479.29821 269.41409 l 0 16.09807" style="stroke: rgb(0,0,255); stroke-width: 2.21118379; stroke-dasharray: none; stroke-linecap: round; stroke-linejoin: round; stroke-miterlimit: 4; fill: none; fill-rule: nonzero; opacity: 1;" transform="translate(55.21 -115.8) scale(1.07 1.07) translate(-479.29821, -277.463125)  matrix(1 0 0 1 0 0) " stroke-linecap="round" />
	<path id="path48895" d="m 486.11889 273.40644 l 0 7.98461" style="stroke: rgb(0,0,255); stroke-width: 2.21118379; stroke-dasharray: none; stroke-linecap: round; stroke-linejoin: round; stroke-miterlimit: 4; fill: none; fill-rule: nonzero; opacity: 1;" transform="translate(62.49 -115.87) scale(1.07 1.07) translate(-486.11889, -277.39874499999996)  matrix(1 0 0 1 0 0) " stroke-linecap="round" />
	<path id="path48897" d="M 460.90792 277.39869 L 435.69674 265.42172" style="stroke: rgb(0,0,255); stroke-width: 2.21118379; stroke-dasharray: none; stroke-linecap: round; stroke-linejoin: round; stroke-miterlimit: 4; fill: none; fill-rule: nonzero; opacity: 1;" transform="translate(22.15 -122.26) scale(1.07 1.07) translate(-448.30233, -271.410205)  matrix(1 0 0 1 0 0) " stroke-linecap="round" />
	<path id="path48899" d="m 433.32388 277.39869 l 4.59744 0" style="stroke: rgb(0,0,255); stroke-width: 2.21118379; stroke-dasharray: none; stroke-linecap: round; stroke-linejoin: round; stroke-miterlimit: 4; fill: none; fill-rule: nonzero; opacity: 1;" transform="translate(8.62 -115.87) scale(1.07 1.07) translate(-435.6226, -277.39869)  matrix(1 0 0 1 0 0) " stroke-linecap="round" />
	<path id="path48901" d="m 433.32388 277.39869 l -27.43576 0 l 27.43576 0 z" style="stroke: rgb(0,0,255); stroke-width: 2.21118379; stroke-dasharray: none; stroke-linecap: round; stroke-linejoin: round; stroke-miterlimit: 4; fill: none; fill-rule: nonzero; opacity: 1;" transform="translate(-8.46 -115.87) scale(1.07 1.07) translate(-419.606, -277.39869)  matrix(1 0 0 1 0 0) " stroke-linecap="round" />
	<path id="path48903" d="m 405.88812 285.51216 l 0 7.98472" style="stroke: rgb(0,0,255); stroke-width: 2.21118379; stroke-dasharray: none; stroke-linecap: round; stroke-linejoin: round; stroke-miterlimit: 4; fill: none; fill-rule: nonzero; opacity: 1;" transform="translate(-23.09 -102.96) scale(1.07 1.07) translate(-405.88812, -289.50451999999996)  matrix(1 0 0 1 0 0) " stroke-linecap="round" />
	<path id="path48905" d="m 405.88812 327.75358 l 0 6.05289" style="stroke: rgb(0,0,255); stroke-width: 2.21118379; stroke-dasharray: none; stroke-linecap: round; stroke-linejoin: round; stroke-miterlimit: 4; fill: none; fill-rule: nonzero; opacity: 1;" transform="translate(-23.09 -58.93) scale(1.07 1.07) translate(-405.88812, -330.780025)  matrix(1 0 0 1 0 0) " stroke-linecap="round" />
	<path id="path48909" d="m 405.88812 285.51216 l 0 -8.11347 l 0 8.11347 z" style="stroke: rgb(0,0,255); stroke-width: 2.21118379; stroke-dasharray: none; stroke-linecap: round; stroke-linejoin: round; stroke-miterlimit: 4; fill: none; fill-rule: nonzero; opacity: 1;" transform="translate(-23.09 -111.54) scale(1.07 1.07) translate(-405.88812, -281.455425)  matrix(1 0 0 1 0 0) " stroke-linecap="round" />
	<path id="path48911" d="m 405.88812 333.80647 l 0 7.98461 l 0 -7.98461 z" style="stroke: rgb(0,0,255); stroke-width: 2.21118379; stroke-dasharray: none; stroke-linecap: round; stroke-linejoin: round; stroke-miterlimit: 4; fill: none; fill-rule: nonzero; opacity: 1;" transform="translate(-23.09 -51.45) scale(1.07 1.07) translate(-405.88812, -337.798775)  matrix(1 0 0 1 0 0) " stroke-linecap="round" />
	<path id="path48913" d="m 412.71015 350.80635 c 0 2.83298 -2.52127 5.02157 -5.7839 5.02157 c -3.1143 0 -5.6355 -2.18859 -5.6355 -5.02157 c 0 -2.7044 2.5212 -5.02321 5.6355 -5.02321 c 3.26263 0 5.7839 2.31881 5.7839 5.02321" style="stroke: rgb(0,0,255); stroke-width: 2.21118379; stroke-dasharray: none; stroke-linecap: round; stroke-linejoin: round; stroke-miterlimit: 4; fill: none; fill-rule: nonzero; opacity: 1;" transform="translate(-21.91 -37.57) scale(1.07 1.07) translate(-407.00045, -350.80553)  matrix(1 0 0 1 0 0) " stroke-linecap="round" />
	<path id="path48915" d="M 405.88812 450.48481 L 387.49877 434.38674" style="stroke: rgb(0,0,255); stroke-width: 2.21118379; stroke-dasharray: none; stroke-linecap: round; stroke-linejoin: round; stroke-miterlimit: 4; fill: none; fill-rule: nonzero; opacity: 1;" transform="translate(-32.9 60.17) scale(1.07 1.07) translate(-396.693445, -442.435775)  matrix(1 0 0 1 0 0) " stroke-linecap="round" />
	<path id="path48917" d="m 405.88812 450.48481 l 16.01657 -14.16491 l -32.18134 0" style="stroke: rgb(0,0,255); stroke-width: 2.21118379; stroke-dasharray: none; stroke-linecap: round; stroke-linejoin: round; stroke-miterlimit: 4; fill: none; fill-rule: nonzero; opacity: 1;" transform="translate(-23.17 61.2) scale(1.07 1.07) translate(-405.81402, -443.40235499999994)  matrix(1 0 0 1 0 0) " stroke-linecap="round" />
	<path id="path48919" d="m 405.88812 450.48481 l 0 7.98478 l -16.16477 14.03802" style="stroke: rgb(0,0,255); stroke-width: 2.21118379; stroke-dasharray: none; stroke-linecap: round; stroke-linejoin: round; stroke-miterlimit: 4; fill: none; fill-rule: nonzero; opacity: 1;" transform="translate(-31.72 80.5) scale(1.07 1.07) translate(-397.805735, -461.49621)  matrix(1 0 0 1 0 0) " stroke-linecap="round" />
	<path id="path48921" d="m 405.88812 458.46959 l 16.01657 14.03802 l -32.18134 0" style="stroke: rgb(0,0,255); stroke-width: 2.21118379; stroke-dasharray: none; stroke-linecap: round; stroke-linejoin: round; stroke-miterlimit: 4; fill: none; fill-rule: nonzero; opacity: 1;" transform="translate(-23.17 84.76) scale(1.07 1.07) translate(-405.81402, -465.4886)  matrix(1 0 0 1 0 0) " stroke-linecap="round" />
	<path id="path48923" d="m 405.88812 436.3199 l 0 -6.05324" style="stroke: rgb(0,0,255); stroke-width: 2.21118379; stroke-dasharray: none; stroke-linecap: round; stroke-linejoin: round; stroke-miterlimit: 4; fill: none; fill-rule: nonzero; opacity: 1;" transform="translate(-23.09 50.42) scale(1.07 1.07) translate(-405.88812, -433.29328)  matrix(1 0 0 1 0 0) " stroke-linecap="round" />
	<path id="path48925" d="m 405.88812 472.50761 l 0 6.05323" style="stroke: rgb(0,0,255); stroke-width: 2.21118379; stroke-dasharray: none; stroke-linecap: round; stroke-linejoin: round; stroke-miterlimit: 4; fill: none; fill-rule: nonzero; opacity: 1;" transform="translate(-23.09 95.47) scale(1.07 1.07) translate(-405.88812, -475.534225)  matrix(1 0 0 1 0 0) " stroke-linecap="round" />
	<path id="path48927" d="m 405.88812 430.26666 l 0 -7.98478 l 0 7.98478 z" style="stroke: rgb(0,0,255); stroke-width: 2.21118379; stroke-dasharray: none; stroke-linecap: round; stroke-linejoin: round; stroke-miterlimit: 4; fill: none; fill-rule: nonzero; opacity: 1;" transform="translate(-23.09 42.93) scale(1.07 1.07) translate(-405.88812, -426.27427)  matrix(1 0 0 1 0 0) " stroke-linecap="round" />
	<path id="path48929" d="m 405.88812 478.56084 l 0 16.09803 l 0 -16.09803 z" style="stroke: rgb(0,0,255); stroke-width: 2.21118379; stroke-dasharray: none; stroke-linecap: round; stroke-linejoin: round; stroke-miterlimit: 4; fill: none; fill-rule: nonzero; opacity: 1;" transform="translate(-23.09 107.29) scale(1.07 1.07) translate(-405.88812, -486.609855)  matrix(1 0 0 1 0 0) " stroke-linecap="round" />
	<path id="path48931" d="m 452.89963 275.46704 l 0 14.42377 c 0 0.51505 -0.44516 1.03038 -1.18633 1.03038 c -0.59309 0 -1.18652 -0.51505 -1.18652 -1.03038 l 0 -14.42377 c 0 -0.64411 0.59309 -1.03038 1.18652 -1.03038 c 0.74144 0 1.18633 0.38657 1.18633 1.03038 z m 0 24.72666 l 0 14.42383 c 0 0.51505 -0.44516 1.03039 -1.18633 1.03039 c -0.59309 0 -1.18652 -0.51505 -1.18652 -1.03039 l 0 -14.42383 c 0 -0.64404 0.59309 -1.03033 1.18652 -1.03033 c 0.74144 0 1.18633 0.386 1.18633 1.03033 z m 0 24.72655 l 0 14.424 c 0 0.64387 -0.44516 1.03033 -1.18633 1.03033 c -0.59309 0 -1.18652 -0.38657 -1.18652 -1.03033 l 0 -14.424 c 0 -0.51505 0.59309 -1.03016 1.18652 -1.03016 c 0.74144 0 1.18633 0.51505 1.18633 1.03016 z" style="stroke: rgb(0,0,255); stroke-width: 0.13819902; stroke-dasharray: none; stroke-linecap: butt; stroke-linejoin: round; stroke-miterlimit: 4; fill: rgb(0,0,255); fill-rule: nonzero; opacity: 1;" transform="translate(25.79 -83.86) scale(1.07 1.07) translate(-451.713205, -307.40562)  matrix(1 0 0 1 0 0) " stroke-linecap="round" />
	<path id="path48933" d="m 460.90792 349.90491 l 11.41919 0" style="stroke: rgb(0,0,255); stroke-width: 2.21118379; stroke-dasharray: none; stroke-linecap: round; stroke-linejoin: round; stroke-miterlimit: 4; fill: none; fill-rule: nonzero; opacity: 1;" transform="translate(41.68 -38.53) scale(1.07 1.07) translate(-466.617515, -349.90491)  matrix(1 0 0 1 0 0) " stroke-linecap="round" />
	<path id="path48935" d="m 472.32711 335.73836 l 0 28.20456" style="stroke: rgb(0,0,255); stroke-width: 2.21118379; stroke-dasharray: none; stroke-linecap: round; stroke-linejoin: round; stroke-miterlimit: 4; fill: none; fill-rule: nonzero; opacity: 1;" transform="translate(47.77 -38.6) scale(1.07 1.07) translate(-472.32711, -349.84064)  matrix(1 0 0 1 0 0) " stroke-linecap="round" />
	<path id="path48937" d="m 479.29821 341.79108 l 0 16.09853" style="stroke: rgb(0,0,255); stroke-width: 2.21118379; stroke-dasharray: none; stroke-linecap: round; stroke-linejoin: round; stroke-miterlimit: 4; fill: none; fill-rule: nonzero; opacity: 1;" transform="translate(55.21 -38.6) scale(1.07 1.07) translate(-479.29821, -349.840345)  matrix(1 0 0 1 0 0) " stroke-linecap="round" />
	<path id="path48939" d="m 486.11889 345.78314 l 0 8.1133" style="stroke: rgb(0,0,255); stroke-width: 2.21118379; stroke-dasharray: none; stroke-linecap: round; stroke-linejoin: round; stroke-miterlimit: 4; fill: none; fill-rule: nonzero; opacity: 1;" transform="translate(62.49 -38.6) scale(1.07 1.07) translate(-486.11889, -349.83979)  matrix(1 0 0 1 0 0) " stroke-linecap="round" />
	<path id="path48941" d="M 460.90792 349.90491 L 435.69674 337.79888" style="stroke: rgb(0,0,255); stroke-width: 2.21118379; stroke-dasharray: none; stroke-linecap: round; stroke-linejoin: round; stroke-miterlimit: 4; fill: none; fill-rule: nonzero; opacity: 1;" transform="translate(22.15 -44.99) scale(1.07 1.07) translate(-448.30233, -343.851895)  matrix(1 0 0 1 0 0) " stroke-linecap="round" />
	<path id="path48943" d="m 433.32388 349.90491 l 4.59744 0" style="stroke: rgb(0,0,255); stroke-width: 2.21118379; stroke-dasharray: none; stroke-linecap: round; stroke-linejoin: round; stroke-miterlimit: 4; fill: none; fill-rule: nonzero; opacity: 1;" transform="translate(8.62 -38.53) scale(1.07 1.07) translate(-435.6226, -349.90491)  matrix(1 0 0 1 0 0) " stroke-linecap="round" />
	<path id="path48945" d="m 433.32388 349.90491 l -27.43576 0 l 27.43576 0 z" style="stroke: rgb(0,0,255); stroke-width: 2.21118379; stroke-dasharray: none; stroke-linecap: round; stroke-linejoin: round; stroke-miterlimit: 4; fill: none; fill-rule: nonzero; opacity: 1;" transform="translate(-8.46 -38.53) scale(1.07 1.07) translate(-419.606, -349.90491)  matrix(1 0 0 1 0 0) " stroke-linecap="round" />
	<path id="path48947" d="m 405.88812 380.04094 l 0 -6.05324" style="stroke: rgb(0,0,255); stroke-width: 2.21118379; stroke-dasharray: none; stroke-linecap: round; stroke-linejoin: round; stroke-miterlimit: 4; fill: none; fill-rule: nonzero; opacity: 1;" transform="translate(-23.09 -9.62) scale(1.07 1.07) translate(-405.88812, -377.01432)  matrix(1 0 0 1 0 0) " stroke-linecap="round" />
	<path id="path48949" d="m 405.88812 422.28188 l 0 -10.04478" style="stroke: rgb(0,0,255); stroke-width: 2.21118379; stroke-dasharray: none; stroke-linecap: round; stroke-linejoin: round; stroke-miterlimit: 4; fill: none; fill-rule: nonzero; opacity: 1;" transform="translate(-23.09 33.31) scale(1.07 1.07) translate(-405.88812, -417.25949)  matrix(1 0 0 1 0 0) " stroke-linecap="round" />
	<path id="path48951" d="m 405.88812 422.28188 l 0 7.98478 l 0 -7.98478 z" style="stroke: rgb(0,0,255); stroke-width: 2.21118379; stroke-dasharray: none; stroke-linecap: round; stroke-linejoin: round; stroke-miterlimit: 4; fill: none; fill-rule: nonzero; opacity: 1;" transform="translate(-23.09 42.93) scale(1.07 1.07) translate(-405.88812, -426.27427)  matrix(1 0 0 1 0 0) " stroke-linecap="round" />
	<path id="path48953" d="m 405.88812 373.9877 l 0 -32.19662 l 0 32.19662 z" style="stroke: rgb(0,0,255); stroke-width: 2.21118379; stroke-dasharray: none; stroke-linecap: round; stroke-linejoin: round; stroke-miterlimit: 4; fill: none; fill-rule: nonzero; opacity: 1;" transform="translate(-23.09 -30.02) scale(1.07 1.07) translate(-405.88812, -357.88939000000005)  matrix(1 0 0 1 0 0) " stroke-linecap="round" />
	<path id="path48955" d="m 405.88812 500.71217 l 0 -6.0533" style="stroke: rgb(0,0,255); stroke-width: 2.21118379; stroke-dasharray: none; stroke-linecap: round; stroke-linejoin: round; stroke-miterlimit: 4; fill: none; fill-rule: nonzero; opacity: 1;" transform="translate(-23.09 119.1) scale(1.07 1.07) translate(-405.88812, -497.68552)  matrix(1 0 0 1 0 0) " stroke-linecap="round" />
	<path id="path48957" d="m 405.88812 542.95305 l 0 -10.04478" style="stroke: rgb(0,0,255); stroke-width: 2.21118379; stroke-dasharray: none; stroke-linecap: round; stroke-linejoin: round; stroke-miterlimit: 4; fill: none; fill-rule: nonzero; opacity: 1;" transform="translate(-23.09 162.03) scale(1.07 1.07) translate(-405.88812, -537.93066)  matrix(1 0 0 1 0 0) " stroke-linecap="round" />
	<path id="path48959" d="m 405.88812 542.95305 l 0 24.21139 l 0 -24.21139 z" style="stroke: rgb(0,0,255); stroke-width: 2.21118379; stroke-dasharray: none; stroke-linecap: round; stroke-linejoin: round; stroke-miterlimit: 4; fill: none; fill-rule: nonzero; opacity: 1;" transform="translate(-23.09 180.3) scale(1.07 1.07) translate(-405.88812, -555.058745)  matrix(1 0 0 1 0 0) " stroke-linecap="round" />
	<path id="path48961" d="m 405.88812 494.65887 l 0 -16.09803 l 0 16.09803 z" style="stroke: rgb(0,0,255); stroke-width: 2.21118379; stroke-dasharray: none; stroke-linecap: round; stroke-linejoin: round; stroke-miterlimit: 4; fill: none; fill-rule: nonzero; opacity: 1;" transform="translate(-23.09 107.29) scale(1.07 1.07) translate(-405.88812, -486.609855)  matrix(1 0 0 1 0 0) " stroke-linecap="round" />
	<path id="path48963" d="m 370.29587 259.316 l 0 14.42384 c 0 0.51505 -0.59309 1.03038 -1.18632 1.03038 c -0.74165 0 -1.18653 -0.51504 -1.18653 -1.03038 l 0 -14.42384 c 0 -0.64403 0.44448 -1.03032 1.18653 -1.03032 c 0.5931 0 1.18632 0.386 1.18632 1.03032 z m 0 24.72672 l 0 14.42384 c 0 0.64386 -0.59309 1.03032 -1.18632 1.03032 c -0.74165 0 -1.18653 -0.38657 -1.18653 -1.03032 l 0 -14.42384 c 0 -0.51503 0.44448 -1.03032 1.18653 -1.03032 c 0.5931 0 1.18632 0.51505 1.18632 1.03032 z m 0 24.72656 l 0 14.42401 c 0 0.64386 -0.59309 1.03014 -1.18632 1.03014 c -0.74165 0 -1.18653 -0.38657 -1.18653 -1.03014 l 0 -14.42401 c 0 -0.51505 0.44448 -1.03021 1.18653 -1.03021 c 0.5931 0 1.18632 0.51504 1.18632 1.03021 z m 0 24.72672 l 0 14.42395 c 0 0.64457 -0.59309 1.03021 -1.18632 1.03021 c -0.74165 0 -1.18653 -0.38541 -1.18653 -1.03021 l 0 -14.42395 c 0 -0.51505 0.44448 -1.0302 1.18653 -1.0302 c 0.5931 0 1.18632 0.51503 1.18632 1.0302 z m 0 24.85624 l 0 14.42366 c 0 0.51387 -0.59309 1.03003 -1.18632 1.03003 c -0.74165 0 -1.18653 -0.51562 -1.18653 -1.03003 l 0 -14.42366 c 0 -0.64439 0.44448 -1.03166 1.18653 -1.03166 c 0.5931 0 1.18632 0.38715 1.18632 1.03166 z m 0 24.72555 l 0 13.00799 c 0 0.51446 -0.59309 1.03003 -1.18632 1.03003 c -0.74165 0 -1.18653 -0.51563 -1.18653 -1.03003 l 0 -13.00799 c 0 -0.64274 0.44448 -1.03003 1.18653 -1.03003 c 0.5931 0 1.18632 0.38717 1.18632 1.03003 z" style="stroke: rgb(0,0,255); stroke-width: 0.13819902; stroke-dasharray: none; stroke-linecap: butt; stroke-linejoin: round; stroke-miterlimit: 4; fill: rgb(0,0,255); fill-rule: nonzero; opacity: 1;" transform="translate(-62.33 -62.22) scale(1.07 1.07) translate(-369.10944499999994, -327.700745)  matrix(1 0 0 1 0 0) " stroke-linecap="round" />
	<path id="path48965" d="m 369.10955 252.28568 l 16.60966 0 c 0.5931 0 1.18646 0.386 1.18646 1.03032 c 0 0.51505 -0.59309 1.03022 -1.18646 1.03022 l -16.60966 0 c -0.74165 0 -1.18653 -0.51505 -1.18653 -1.03022 c 0 -0.64403 0.44448 -1.03032 1.18653 -1.03032 z m 28.47368 0 l 3.70752 0 c 0.5931 0 1.18646 0.386 1.18646 1.03032 c 0 0.51505 -0.5931 1.03022 -1.18646 1.03022 l -3.70752 0 c -0.5931 0 -1.18633 -0.51505 -1.18633 -1.03022 c 0 -0.64403 0.59309 -1.03032 1.18633 -1.03032 z" style="stroke: rgb(0,0,255); stroke-width: 0.13819902; stroke-dasharray: none; stroke-linecap: butt; stroke-linejoin: round; stroke-miterlimit: 4; fill: rgb(0,0,255); fill-rule: nonzero; opacity: 1;" transform="translate(-45.16 -141.56) scale(1.07 1.07) translate(-385.200115, -253.31595000000002)  matrix(1 0 0 1 0 0) " stroke-linecap="round" />
	<path id="path48967" d="m 369.10955 403.05575 l 16.60966 0 c 0.5931 0 1.18646 0.51388 1.18646 1.03003 c 0 0.51446 -0.59309 1.03003 -1.18646 1.03003 l -16.60966 0 c -0.74165 0 -1.18653 -0.51563 -1.18653 -1.03003 c 0 -0.51563 0.44448 -1.03003 1.18653 -1.03003 z m 28.47368 0 l 3.70752 0 c 0.5931 0 1.18646 0.51388 1.18646 1.03003 c 0 0.51446 -0.5931 1.03003 -1.18646 1.03003 l -3.70752 0 c -0.5931 0 -1.18633 -0.51563 -1.18633 -1.03003 c 0 -0.51563 0.59309 -1.03003 1.18633 -1.03003 z" style="stroke: rgb(0,0,255); stroke-width: 0.13819902; stroke-dasharray: none; stroke-linecap: butt; stroke-linejoin: round; stroke-miterlimit: 4; fill: rgb(0,0,255); fill-rule: nonzero; opacity: 1;" transform="translate(-45.16 19.26) scale(1.07 1.07) translate(-385.200115, -404.08578)  matrix(1 0 0 1 0 0) " stroke-linecap="round" />
	<path id="path48989" d="m 399.0663 235.80114 c 0 -3.47702 3.2627 -6.31035 7.41506 -6.31035 c 4.00414 0 7.26683 2.83333 7.26683 6.31035 c 0 3.4772 -3.26269 6.31053 -7.26683 6.31053 c -4.15236 0 -7.41506 -2.83333 -7.41506 -6.31053" style="stroke: rgb(0,0,255); stroke-width: 3.5931735; stroke-dasharray: none; stroke-linecap: round; stroke-linejoin: round; stroke-miterlimit: 4; fill: none; fill-rule: nonzero; opacity: 1;" transform="translate(-22.54 -160.24) scale(1.07 1.07) translate(-406.407245, -235.80123)  matrix(1 0 0 1 0 0) " stroke-linecap="round" />
	<path id="path48991" d="m 397.43502 268.3837 l 17.94433 0" style="stroke: rgb(0,0,255); stroke-width: 3.5931735; stroke-dasharray: none; stroke-linecap: round; stroke-linejoin: round; stroke-miterlimit: 4; fill: none; fill-rule: nonzero; opacity: 1;" transform="translate(-22.54 -125.49) scale(1.07 1.07) translate(-406.407185, -268.3837)  matrix(1 0 0 1 0 0) " stroke-linecap="round" />
	<path id="path48993" d="m 406.48136 268.3837 l 0 -27.30224" style="stroke: rgb(0,0,255); stroke-width: 3.5931735; stroke-dasharray: none; stroke-linecap: round; stroke-linejoin: round; stroke-miterlimit: 4; fill: none; fill-rule: nonzero; opacity: 1;" transform="translate(-22.46 -140.05) scale(1.07 1.07) translate(-406.48136, -254.73257999999998)  matrix(1 0 0 1 0 0) " stroke-linecap="round" />
	<path id="path48995" d="m 399.0663 384.16107 c 0 -3.47737 3.2627 -6.31035 7.41506 -6.31035 c 4.00414 0 7.26683 2.83298 7.26683 6.31035 c 0 3.47738 -3.26269 6.31036 -7.26683 6.31036 c -4.15236 0 -7.41506 -2.83298 -7.41506 -6.31036" style="stroke: rgb(0,0,255); stroke-width: 3.5931735; stroke-dasharray: none; stroke-linecap: round; stroke-linejoin: round; stroke-miterlimit: 4; fill: none; fill-rule: nonzero; opacity: 1;" transform="translate(-22.54 -1.99) scale(1.07 1.07) translate(-406.407245, -384.161075)  matrix(1 0 0 1 0 0) " stroke-linecap="round" />
	<path id="path48997" d="m 397.43502 416.74445 l 17.94433 0" style="stroke: rgb(0,0,255); stroke-width: 3.5931735; stroke-dasharray: none; stroke-linecap: round; stroke-linejoin: round; stroke-miterlimit: 4; fill: none; fill-rule: nonzero; opacity: 1;" transform="translate(-22.54 32.76) scale(1.07 1.07) translate(-406.407185, -416.74445)  matrix(1 0 0 1 0 0) " stroke-linecap="round" />
	<path id="path48999" d="m 406.48136 416.74445 l 0 -27.30306" style="stroke: rgb(0,0,255); stroke-width: 3.5931735; stroke-dasharray: none; stroke-linecap: round; stroke-linejoin: round; stroke-miterlimit: 4; fill: none; fill-rule: nonzero; opacity: 1;" transform="translate(-22.46 18.2) scale(1.07 1.07) translate(-406.48136, -403.09291999999994)  matrix(1 0 0 1 0 0) " stroke-linecap="round" />
	<path id="path49001" d="m 399.0663 507.79544 c 0 -3.47737 3.2627 -6.31035 7.41506 -6.31035 c 4.00414 0 7.26683 2.83298 7.26683 6.31035 c 0 3.47738 -3.26269 6.31036 -7.26683 6.31036 c -4.15236 0 -7.41506 -2.83298 -7.41506 -6.31036" style="stroke: rgb(0,0,255); stroke-width: 3.5931735; stroke-dasharray: none; stroke-linecap: round; stroke-linejoin: round; stroke-miterlimit: 4; fill: none; fill-rule: nonzero; opacity: 1;" transform="translate(-22.54 129.88) scale(1.07 1.07) translate(-406.407245, -507.795445)  matrix(1 0 0 1 0 0) " stroke-linecap="round" />
	<path id="path49003" d="m 397.43502 540.37719 l 17.94433 0" style="stroke: rgb(0,0,255); stroke-width: 3.5931735; stroke-dasharray: none; stroke-linecap: round; stroke-linejoin: round; stroke-miterlimit: 4; fill: none; fill-rule: nonzero; opacity: 1;" transform="translate(-22.54 164.64) scale(1.07 1.07) translate(-406.407185, -540.37719)  matrix(1 0 0 1 0 0) " stroke-linecap="round" />
	<path id="path49005" d="m 406.48136 540.37719 l 0 -27.30143" style="stroke: rgb(0,0,255); stroke-width: 3.5931735; stroke-dasharray: none; stroke-linecap: round; stroke-linejoin: round; stroke-miterlimit: 4; fill: none; fill-rule: nonzero; opacity: 1;" transform="translate(-22.46 150.08) scale(1.07 1.07) translate(-406.48136, -526.726475)  matrix(1 0 0 1 0 0) " stroke-linecap="round" />
	<g style="stroke: none; stroke-width: 1; stroke-dasharray: none; stroke-linecap: butt; stroke-linejoin: miter; stroke-miterlimit: 10; fill: none; fill-rule: nonzero; opacity: 1;" transform="translate(-35.86027440391848 -107.8655059155924)" >
	<path id="path48568" d="m 165.90113 495.85954 l 0 15.16904" style="stroke: rgb(0,0,255); stroke-width: 3.91751194; stroke-dasharray: none; stroke-linecap: round; stroke-linejoin: round; stroke-miterlimit: 4; fill: none; fill-rule: nonzero; opacity: 1;" transform=" matrix(0.55 0 0 0.55 -79.2156215 -271.644233) " stroke-linecap="round" />
	<path id="path48570" d="m 165.90113 574.83835 l 0 11.31438" style="stroke: rgb(0,0,255); stroke-width: 3.91751194; stroke-dasharray: none; stroke-linecap: round; stroke-linejoin: round; stroke-miterlimit: 4; fill: none; fill-rule: nonzero; opacity: 1;" transform=" matrix(0.55 0 0 0.55 -79.2156215 -271.2825470000001) " stroke-linecap="round" />
	<path id="SquareWaves_Boolean_off" d="m 142.74649 511.02858 l 0 60.19546 l 42.32569 0 l 0 -60.19546 l -42.32569 0 z" style="stroke: none; stroke-width: 1; stroke-dasharray: none; stroke-linecap: butt; stroke-linejoin: miter; stroke-miterlimit: 10; fill: rgb(95,191,0); fill-rule: evenodd; opacity: 1;" transform=" matrix(0.55 0 0 0.55 -78.23013425 -270.4694705) " stroke-linecap="round" />
	<path id="SquareWaves_Boolean_on" d="m 142.74649 511.02858 l 0 60.19546 l 42.32569 0 l 0 -60.19546 l -42.32569 0 z" style="stroke: none; stroke-width: 1; stroke-dasharray: none; stroke-linecap: butt; stroke-linejoin: miter; stroke-miterlimit: 10; fill: rgb(191,0,0); fill-rule: evenodd; opacity: 1;" transform=" matrix(0.6 0 0 0.55 -85.30560100000001 -270.2394705) " stroke-linecap="round" />
</g>
</g>
</svg>