<?xml version="1.0" standalone="no"?><!DOCTYPE svg PUBLIC "-//W3C//DTD SVG 1.1//EN" "http://www.w3.org/Graphics/SVG/1.1/DTD/svg11.dtd"><svg width="100%" height="100%" version="1.1" xmlns="http://www.w3.org/2000/svg"><g transform="translate(62.02 191.87)" style="">
	<path id="path48494" d="m 177.35419 783.59666 c 0 5.29668 -4.23273 9.38861 -9.46112 9.38861 c -5.47753 0 -9.70994 -4.09193 -9.70994 -9.38861 c 0 -5.05635 4.23241 -9.39167 9.70994 -9.39167 c 5.22839 0 9.46112 4.33532 9.46112 9.39167" style="stroke: rgb(0,0,255); stroke-width: 3.91751194; stroke-dasharray: none; stroke-linecap: round; stroke-linejoin: round; stroke-miterlimit: 4; fill: none; fill-rule: nonzero; opacity: 1;" transform="translate(-12.87 185.63) scale(0.55 0.55) translate(-167.76866, -783.59513)  matrix(1 0 0 1 0 0) " stroke-linecap="round" />
	<path id="path48544" d="m 258.27084 616.25046 l 19.42021 0" style="stroke: rgb(0,0,255); stroke-width: 3.91751194; stroke-dasharray: none; stroke-linecap: round; stroke-linejoin: round; stroke-miterlimit: 4; fill: none; fill-rule: nonzero; opacity: 1;" transform="translate(42.71 92.81) scale(0.55 0.55) translate(-267.980945, -616.25046)  matrix(1 0 0 1 0 0) " stroke-linecap="round" />
	<path id="path48546" d="m 277.69105 590.00738 l 0 52.72957" style="stroke: rgb(0,0,255); stroke-width: 3.91751194; stroke-dasharray: none; stroke-linecap: round; stroke-linejoin: round; stroke-miterlimit: 4; fill: none; fill-rule: nonzero; opacity: 1;" transform="translate(48.1 92.87) scale(0.55 0.55) translate(-277.69105, -616.372165)  matrix(1 0 0 1 0 0) " stroke-linecap="round" />
	<path id="path48548" d="m 289.14379 601.32176 l 0 30.09773" style="stroke: rgb(0,0,255); stroke-width: 3.91751194; stroke-dasharray: none; stroke-linecap: round; stroke-linejoin: round; stroke-miterlimit: 4; fill: none; fill-rule: nonzero; opacity: 1;" transform="translate(54.45 92.87) scale(0.55 0.55) translate(-289.14379, -616.370625)  matrix(1 0 0 1 0 0) " stroke-linecap="round" />
	<path id="path48550" d="m 300.84569 608.78765 l 0 14.92869" style="stroke: rgb(0,0,255); stroke-width: 3.91751194; stroke-dasharray: none; stroke-linecap: round; stroke-linejoin: round; stroke-miterlimit: 4; fill: none; fill-rule: nonzero; opacity: 1;" transform="translate(60.94 92.81) scale(0.55 0.55) translate(-300.84569, -616.251995)  matrix(1 0 0 1 0 0) " stroke-linecap="round" />
	<path id="path48552" d="m 258.27084 616.25046 l -42.3257 -22.39151" style="stroke: rgb(0,0,255); stroke-width: 3.91751194; stroke-dasharray: none; stroke-linecap: round; stroke-linejoin: round; stroke-miterlimit: 4; fill: none; fill-rule: nonzero; opacity: 1;" transform="translate(25.59 86.6) scale(0.55 0.55) translate(-237.10799000000003, -605.054705)  matrix(1 0 0 1 0 0) " stroke-linecap="round" />
	<path id="path48554" d="m 212.21072 616.25046 l 7.718 0" style="stroke: rgb(0,0,255); stroke-width: 3.91751194; stroke-dasharray: none; stroke-linecap: round; stroke-linejoin: round; stroke-miterlimit: 4; fill: none; fill-rule: nonzero; opacity: 1;" transform="translate(13.92 92.81) scale(0.55 0.55) translate(-216.06972000000002, -616.25046)  matrix(1 0 0 1 0 0) " stroke-linecap="round" />
	<path id="path48556" d="m 212.21072 616.25046 l -46.30959 0 l 46.30959 0 z" style="stroke: rgb(0,0,255); stroke-width: 3.91751194; stroke-dasharray: none; stroke-linecap: round; stroke-linejoin: round; stroke-miterlimit: 4; fill: none; fill-rule: nonzero; opacity: 1;" transform="translate(-1.07 92.81) scale(0.55 0.55) translate(-189.05592500000003, -616.25046)  matrix(1 0 0 1 0 0) " stroke-linecap="round" />
	<path id="path48558" d="m 177.35419 618.17932 c 0 5.29669 -4.23273 9.3886 -9.46112 9.3886 c -5.47753 0 -9.70994 -4.09191 -9.70994 -9.3886 c 0 -5.29975 4.23241 -9.39167 9.70994 -9.39167 c 5.22839 0 9.46112 4.09192 9.46112 9.39167" style="stroke: rgb(0,0,255); stroke-width: 3.91751194; stroke-dasharray: none; stroke-linecap: round; stroke-linejoin: round; stroke-miterlimit: 4; fill: none; fill-rule: nonzero; opacity: 1;" transform="translate(-12.87 93.88) scale(0.55 0.55) translate(-167.76866, -618.177785)  matrix(1 0 0 1 0 0) " stroke-linecap="round" />
	<path id="path48560" d="m 165.90113 672.83468 l 0 -11.31438" style="stroke: rgb(0,0,255); stroke-width: 3.91751194; stroke-dasharray: none; stroke-linecap: round; stroke-linejoin: round; stroke-miterlimit: 4; fill: none; fill-rule: nonzero; opacity: 1;" transform="translate(-13.91 121.05) scale(0.55 0.55) translate(-165.90113, -667.17749)  matrix(1 0 0 1 0 0) " stroke-linecap="round" />
	<path id="path48562" d="m 165.90113 751.81348 l 0 -19.02368" style="stroke: rgb(0,0,255); stroke-width: 3.91751194; stroke-dasharray: none; stroke-linecap: round; stroke-linejoin: round; stroke-miterlimit: 4; fill: none; fill-rule: nonzero; opacity: 1;" transform="translate(-13.91 162.72) scale(0.55 0.55) translate(-165.90113, -742.30164)  matrix(1 0 0 1 0 0) " stroke-linecap="round" />
	<path id="path48564" d="m 165.90113 751.81348 l 0 30.09774 l 0 -30.09774 z" style="stroke: rgb(0,0,255); stroke-width: 3.91751194; stroke-dasharray: none; stroke-linecap: round; stroke-linejoin: round; stroke-miterlimit: 4; fill: none; fill-rule: nonzero; opacity: 1;" transform="translate(-13.91 176.35) scale(0.55 0.55) translate(-165.90113, -766.8623500000001)  matrix(1 0 0 1 0 0) " stroke-linecap="round" />
	<path id="path48566" d="m 165.90113 661.5203 l 0 -45.26984 l 0 45.26984 z" style="stroke: rgb(0,0,255); stroke-width: 3.91751194; stroke-dasharray: none; stroke-linecap: round; stroke-linejoin: round; stroke-miterlimit: 4; fill: none; fill-rule: nonzero; opacity: 1;" transform="translate(-13.91 105.36) scale(0.55 0.55) translate(-165.90113, -638.8853799999999)  matrix(1 0 0 1 0 0) " stroke-linecap="round" />
	<path id="path48568" d="m 165.90113 495.85954 l 0 15.16904" style="stroke: rgb(0,0,255); stroke-width: 3.91751194; stroke-dasharray: none; stroke-linecap: round; stroke-linejoin: round; stroke-miterlimit: 4; fill: none; fill-rule: nonzero; opacity: 1;" transform="translate(-13.91 30.24) scale(0.55 0.55) translate(-165.90113, -503.44406)  matrix(1 0 0 1 0 0) " stroke-linecap="round" />
	<path id="path48570" d="m 165.90113 574.83835 l 0 11.31438" style="stroke: rgb(0,0,255); stroke-width: 3.91751194; stroke-dasharray: none; stroke-linecap: round; stroke-linejoin: round; stroke-miterlimit: 4; fill: none; fill-rule: nonzero; opacity: 1;" transform="translate(-13.91 72.98) scale(0.55 0.55) translate(-165.90113, -580.49554)  matrix(1 0 0 1 0 0) " stroke-linecap="round" />
	<path id="SquareWaves_Boolean_off" d="m 142.74649 511.02858 l 0 60.19546 l 42.32569 0 l 0 -60.19546 l -42.32569 0 z" style="stroke: none; stroke-width: 1; stroke-dasharray: none; stroke-linecap: butt; stroke-linejoin: miter; stroke-miterlimit: 10; fill: rgb(95,191,0); fill-rule: evenodd; opacity: 1;" transform="translate(-14.02 52.14) scale(0.55 0.55) translate(-163.909335, -541.1263099999999)  matrix(1 0 0 1 0 0) " stroke-linecap="round" />
	<path id="path48576" d="m 165.90113 495.85954 l 0 -30.09772 l 0 30.09772 z" style="stroke: rgb(0,0,255); stroke-width: 3.91751194; stroke-dasharray: none; stroke-linecap: round; stroke-linejoin: round; stroke-miterlimit: 4; fill: none; fill-rule: nonzero; opacity: 1;" transform="translate(-13.91 17.68) scale(0.55 0.55) translate(-165.90113, -480.81068)  matrix(1 0 0 1 0 0) " stroke-linecap="round" />
	<path id="path48578" d="m 165.90113 586.15273 l 0 30.09773 l 0 -30.09773 z" style="stroke: rgb(0,0,255); stroke-width: 3.91751194; stroke-dasharray: none; stroke-linecap: round; stroke-linejoin: round; stroke-miterlimit: 4; fill: none; fill-rule: nonzero; opacity: 1;" transform="translate(-13.91 84.46) scale(0.55 0.55) translate(-165.90113, -601.201595)  matrix(1 0 0 1 0 0) " stroke-linecap="round" />
	<path id="path48580" d="M 165.90113 307.80944 L 135.02817 277.71142" style="stroke: rgb(0,0,255); stroke-width: 3.91751194; stroke-dasharray: none; stroke-linecap: round; stroke-linejoin: round; stroke-miterlimit: 4; fill: none; fill-rule: nonzero; opacity: 1;" transform="translate(-22.47 -86.62) scale(0.55 0.55) translate(-150.46465, -292.76043)  matrix(1 0 0 1 0 0) " stroke-linecap="round" />
	<path id="path48582" d="m 165.90113 307.80944 l 26.88937 -26.24553 l -53.77844 0" style="stroke: rgb(0,0,255); stroke-width: 3.91751194; stroke-dasharray: none; stroke-linecap: round; stroke-linejoin: round; stroke-miterlimit: 4; fill: none; fill-rule: nonzero; opacity: 1;" transform="translate(-13.91 -85.55) scale(0.55 0.55) translate(-165.90128, -294.68667500000004)  matrix(1 0 0 1 0 0) " stroke-linecap="round" />
	<path id="path48584" d="m 165.90113 307.80944 l 0 15.16903 l -26.88907 26.24555" style="stroke: rgb(0,0,255); stroke-width: 3.91751194; stroke-dasharray: none; stroke-linecap: round; stroke-linejoin: round; stroke-miterlimit: 4; fill: none; fill-rule: nonzero; opacity: 1;" transform="translate(-21.37 -66.79) scale(0.55 0.55) translate(-152.456595, -328.51673)  matrix(1 0 0 1 0 0) " stroke-linecap="round" />
	<path id="path48586" d="m 165.90113 322.97847 l 26.88937 26.24555 l -53.77844 0" style="stroke: rgb(0,0,255); stroke-width: 3.91751194; stroke-dasharray: none; stroke-linecap: round; stroke-linejoin: round; stroke-miterlimit: 4; fill: none; fill-rule: nonzero; opacity: 1;" transform="translate(-13.91 -62.58) scale(0.55 0.55) translate(-165.90128, -336.101245)  matrix(1 0 0 1 0 0) " stroke-linecap="round" />
	<path id="path48588" d="m 165.90113 281.56391 l 0 -11.31654" style="stroke: rgb(0,0,255); stroke-width: 3.91751194; stroke-dasharray: none; stroke-linecap: round; stroke-linejoin: round; stroke-miterlimit: 4; fill: none; fill-rule: nonzero; opacity: 1;" transform="translate(-13.91 -95.97) scale(0.55 0.55) translate(-165.90113, -275.90564000000006)  matrix(1 0 0 1 0 0) " stroke-linecap="round" />
	<path id="path48590" d="m 165.90113 349.22402 l 0 11.31592" style="stroke: rgb(0,0,255); stroke-width: 3.91751194; stroke-dasharray: none; stroke-linecap: round; stroke-linejoin: round; stroke-miterlimit: 4; fill: none; fill-rule: nonzero; opacity: 1;" transform="translate(-13.91 -52.17) scale(0.55 0.55) translate(-165.90113, -354.88198)  matrix(1 0 0 1 0 0) " stroke-linecap="round" />
	<path id="path48592" d="m 165.90113 360.53994 l 0 30.09773 l 0 -30.09773 z" style="stroke: rgb(0,0,255); stroke-width: 3.91751194; stroke-dasharray: none; stroke-linecap: round; stroke-linejoin: round; stroke-miterlimit: 4; fill: none; fill-rule: nonzero; opacity: 1;" transform="translate(-13.91 -40.68) scale(0.55 0.55) translate(-165.90113, -375.588805)  matrix(1 0 0 1 0 0) " stroke-linecap="round" />
	<path id="path48594" d="m 165.90113 244.00183 l 0 11.31685" style="stroke: rgb(0,0,255); stroke-width: 3.91751194; stroke-dasharray: none; stroke-linecap: round; stroke-linejoin: round; stroke-miterlimit: 4; fill: none; fill-rule: nonzero; opacity: 1;" transform="translate(-13.91 -110.53) scale(0.55 0.55) translate(-165.90113, -249.660255)  matrix(1 0 0 1 0 0) " stroke-linecap="round" />
	<path id="path48596" d="m 165.90113 165.02519 l 0 18.7812" style="stroke: rgb(0,0,255); stroke-width: 3.91751194; stroke-dasharray: none; stroke-linecap: round; stroke-linejoin: round; stroke-miterlimit: 4; fill: none; fill-rule: nonzero; opacity: 1;" transform="translate(-13.91 -159.26) scale(0.55 0.55) translate(-165.90113, -174.41579000000002)  matrix(1 0 0 1 0 0) " stroke-linecap="round" />
	<path id="path48598" d="m 165.90113 165.02519 l 0 -15.16933 l 0 15.16933 z" style="stroke: rgb(0,0,255); stroke-width: 3.91751194; stroke-dasharray: none; stroke-linecap: round; stroke-linejoin: round; stroke-miterlimit: 4; fill: none; fill-rule: nonzero; opacity: 1;" transform="translate(-13.91 -161.68) scale(0.55 0.55) translate(-165.90113, -157.440525)  matrix(1 0 0 1 0 0) " stroke-linecap="round" />
	<path id="path48600" d="m 165.90113 255.31868 l 0 14.92869 l 0 -14.92869 z" style="stroke: rgb(0,0,255); stroke-width: 3.91751194; stroke-dasharray: none; stroke-linecap: round; stroke-linejoin: round; stroke-miterlimit: 4; fill: none; fill-rule: nonzero; opacity: 1;" transform="translate(-13.91 -103.25) scale(0.55 0.55) translate(-165.90113, -262.783025)  matrix(1 0 0 1 0 0) " stroke-linecap="round" />
	<path id="path48602" d="m 165.90113 134.92746 l 0 -30.09773" style="stroke: rgb(0,0,255); stroke-width: 3.91751194; stroke-dasharray: none; stroke-linecap: round; stroke-linejoin: round; stroke-miterlimit: 4; fill: none; fill-rule: nonzero; opacity: 1;" transform="translate(-13.91 -182.51) scale(0.55 0.55) translate(-165.90113, -119.87859499999999)  matrix(1 0 0 1 0 0) " stroke-linecap="round" />
	<path id="path48604" d="M 177.35419 127.46312 L 165.90113 108.68223" style="stroke: rgb(0,0,255); stroke-width: 3.91751194; stroke-dasharray: none; stroke-linecap: round; stroke-linejoin: round; stroke-miterlimit: 4; fill: none; fill-rule: nonzero; opacity: 1;" transform="translate(-10.73 -183.52) scale(0.55 0.55) translate(-171.62766, -118.072675)  matrix(1 0 0 1 0 0) " stroke-linecap="round" />
	<path id="path48606" d="m 154.19923 127.46312 l 11.7019 -18.78089" style="stroke: rgb(0,0,255); stroke-width: 3.91751194; stroke-dasharray: none; stroke-linecap: round; stroke-linejoin: round; stroke-miterlimit: 4; fill: none; fill-rule: nonzero; opacity: 1;" transform="translate(-17.16 -183.52) scale(0.55 0.55) translate(-160.05018, -118.072675)  matrix(1 0 0 1 0 0) " stroke-linecap="round" />
	<path id="path48608" d="m 165.90113 134.92746 l 0 14.9284 l 0 -14.9284 z" style="stroke: rgb(0,0,255); stroke-width: 3.91751194; stroke-dasharray: none; stroke-linecap: round; stroke-linejoin: round; stroke-miterlimit: 4; fill: none; fill-rule: nonzero; opacity: 1;" transform="translate(-13.91 -170.03) scale(0.55 0.55) translate(-165.90113, -142.39166)  matrix(1 0 0 1 0 0) " stroke-linecap="round" />
	<path id="path48634" d="m 258.27084 480.93085 l 19.42021 0" style="stroke: rgb(0,0,255); stroke-width: 3.91751194; stroke-dasharray: none; stroke-linecap: round; stroke-linejoin: round; stroke-miterlimit: 4; fill: none; fill-rule: nonzero; opacity: 1;" transform="translate(42.71 17.75) scale(0.55 0.55) translate(-267.980945, -480.93085)  matrix(1 0 0 1 0 0) " stroke-linecap="round" />
	<path id="path48636" d="m 277.69105 454.68778 l 0 52.48923" style="stroke: rgb(0,0,255); stroke-width: 3.91751194; stroke-dasharray: none; stroke-linecap: round; stroke-linejoin: round; stroke-miterlimit: 4; fill: none; fill-rule: nonzero; opacity: 1;" transform="translate(48.1 17.75) scale(0.55 0.55) translate(-277.69105, -480.932395)  matrix(1 0 0 1 0 0) " stroke-linecap="round" />
	<path id="path48638" d="m 289.14379 465.76182 l 0 30.09772" style="stroke: rgb(0,0,255); stroke-width: 3.91751194; stroke-dasharray: none; stroke-linecap: round; stroke-linejoin: round; stroke-miterlimit: 4; fill: none; fill-rule: nonzero; opacity: 1;" transform="translate(54.45 17.68) scale(0.55 0.55) translate(-289.14379, -480.81068)  matrix(1 0 0 1 0 0) " stroke-linecap="round" />
	<path id="path48640" d="m 300.84569 473.46804 l 0 14.9287" style="stroke: rgb(0,0,255); stroke-width: 3.91751194; stroke-dasharray: none; stroke-linecap: round; stroke-linejoin: round; stroke-miterlimit: 4; fill: none; fill-rule: nonzero; opacity: 1;" transform="translate(60.94 17.75) scale(0.55 0.55) translate(-300.84569, -480.93238999999994)  matrix(1 0 0 1 0 0) " stroke-linecap="round" />
	<path id="path48642" d="m 258.27084 480.93085 l -42.3257 -22.63184" style="stroke: rgb(0,0,255); stroke-width: 3.91751194; stroke-dasharray: none; stroke-linecap: round; stroke-linejoin: round; stroke-miterlimit: 4; fill: none; fill-rule: nonzero; opacity: 1;" transform="translate(25.59 11.47) scale(0.55 0.55) translate(-237.10799000000003, -469.61493)  matrix(1 0 0 1 0 0) " stroke-linecap="round" />
	<path id="path48644" d="m 212.21072 480.93085 l 7.718 0" style="stroke: rgb(0,0,255); stroke-width: 3.91751194; stroke-dasharray: none; stroke-linecap: round; stroke-linejoin: round; stroke-miterlimit: 4; fill: none; fill-rule: nonzero; opacity: 1;" transform="translate(13.92 17.75) scale(0.55 0.55) translate(-216.06972000000002, -480.93085)  matrix(1 0 0 1 0 0) " stroke-linecap="round" />
	<path id="path48646" d="m 212.21072 480.93085 l -46.30959 0 l 46.30959 0 z" style="stroke: rgb(0,0,255); stroke-width: 3.91751194; stroke-dasharray: none; stroke-linecap: round; stroke-linejoin: round; stroke-miterlimit: 4; fill: none; fill-rule: nonzero; opacity: 1;" transform="translate(-1.07 17.75) scale(0.55 0.55) translate(-189.05592500000003, -480.93085)  matrix(1 0 0 1 0 0) " stroke-linecap="round" />
	<path id="path48648" d="m 177.35419 482.85972 c 0 5.05634 -4.23273 9.3886 -9.46112 9.3886 c -5.47753 0 -9.70994 -4.33226 -9.70994 -9.3886 c 0 -5.29976 4.23241 -9.39168 9.70994 -9.39168 c 5.22839 0 9.46112 4.09192 9.46112 9.39168" style="stroke: rgb(0,0,255); stroke-width: 3.91751194; stroke-dasharray: none; stroke-linecap: round; stroke-linejoin: round; stroke-miterlimit: 4; fill: none; fill-rule: nonzero; opacity: 1;" transform="translate(-12.87 18.82) scale(0.55 0.55) translate(-167.76866, -482.85817999999995)  matrix(1 0 0 1 0 0) " stroke-linecap="round" />
	<path id="path48650" d="m 165.90113 454.68778 l 0 11.07404" style="stroke: rgb(0,0,255); stroke-width: 3.91751194; stroke-dasharray: none; stroke-linecap: round; stroke-linejoin: round; stroke-miterlimit: 4; fill: none; fill-rule: nonzero; opacity: 1;" transform="translate(-13.91 6.26) scale(0.55 0.55) translate(-165.90113, -460.22479999999996)  matrix(1 0 0 1 0 0) " stroke-linecap="round" />
	<path id="path48652" d="m 165.90113 375.70897 l 0 18.78336" style="stroke: rgb(0,0,255); stroke-width: 3.91751194; stroke-dasharray: none; stroke-linecap: round; stroke-linejoin: round; stroke-miterlimit: 4; fill: none; fill-rule: nonzero; opacity: 1;" transform="translate(-13.91 -35.4) scale(0.55 0.55) translate(-165.90113, -385.10065000000003)  matrix(1 0 0 1 0 0) " stroke-linecap="round" />
	<path id="path48654" d="m 165.90113 375.70897 l 0 -15.16903 l 0 15.16903 z" style="stroke: rgb(0,0,255); stroke-width: 3.91751194; stroke-dasharray: none; stroke-linecap: round; stroke-linejoin: round; stroke-miterlimit: 4; fill: none; fill-rule: nonzero; opacity: 1;" transform="translate(-13.91 -44.82) scale(0.55 0.55) translate(-165.90113, -368.124455)  matrix(1 0 0 1 0 0) " stroke-linecap="round" />
	<path id="path48656" d="m 165.90113 465.76182 l 0 15.16903 l 0 -15.16903 z" style="stroke: rgb(0,0,255); stroke-width: 3.91751194; stroke-dasharray: none; stroke-linecap: round; stroke-linejoin: round; stroke-miterlimit: 4; fill: none; fill-rule: nonzero; opacity: 1;" transform="translate(-13.91 13.54) scale(0.55 0.55) translate(-165.90113, -473.346335)  matrix(1 0 0 1 0 0) " stroke-linecap="round" />
	<path id="path48658" d="m 244.82615 480.93085 l 0 26.97025 c 0 0.96132 -0.74678 1.92579 -1.99162 1.92579 c -0.99595 0 -1.99195 -0.96448 -1.99195 -1.92579 l 0 -26.97025 c 0 -1.20169 0.99595 -1.92578 1.99195 -1.92578 c 1.2448 0 1.99162 0.72407 1.99162 1.92578 z m 0 46.2312 l 0 26.96717 c 0 1.20477 -0.74678 1.92578 -1.99162 1.92578 c -0.99595 0 -1.99195 -0.72101 -1.99195 -1.92578 l 0 -26.96717 c 0 -0.96449 0.99595 -1.92579 1.99195 -1.92579 c 1.2448 0 1.99162 0.96132 1.99162 1.92579 z m 0 46.23119 l 0 26.96717 c 0 1.20477 -0.74678 1.92579 -1.99162 1.92579 c -0.99595 0 -1.99195 -0.72102 -1.99195 -1.92579 l 0 -26.96717 c 0 -0.96448 0.99595 -1.92579 1.99195 -1.92579 c 1.2448 0 1.99162 0.96132 1.99162 1.92579 z" style="stroke: rgb(0,0,255); stroke-width: 0.24484457; stroke-dasharray: none; stroke-linecap: butt; stroke-linejoin: round; stroke-miterlimit: 4; fill: rgb(0,0,255); fill-rule: nonzero; opacity: 1;" transform="translate(28.76 50.87) scale(0.55 0.55) translate(-242.834365, -540.6456350000001)  matrix(1 0 0 1 0 0) " stroke-linecap="round" />
	<path id="path48660" d="m 83.241509 403.40024 l 0 26.96717 c 0 0.96448 -0.7469 1.92579 -1.99182 1.92579 c -0.99594 0 -1.99178 -0.96132 -1.99178 -1.92579 l 0 -26.96717 c 0 -1.20478 0.99583 -1.92579 1.99178 -1.92579 c 1.24488 0 1.99182 0.72101 1.99182 1.92579 z m 0 46.23119 l 0 26.96717 c 0 0.96132 -0.7469 1.92579 -1.99182 1.92579 c -0.99594 0 -1.99178 -0.96448 -1.99178 -1.92579 l 0 -26.96717 c 0 -1.20477 0.99583 -1.92887 1.99178 -1.92887 c 1.24488 0 1.99182 0.72407 1.99182 1.92887 z m 0 46.22811 l 0 26.96718 c 0 1.20477 -0.7469 1.92886 -1.99182 1.92886 c -0.99594 0 -1.99178 -0.72407 -1.99178 -1.92886 l 0 -26.96718 c 0 -0.96132 0.99583 -1.92578 1.99178 -1.92578 c 1.24488 0 1.99182 0.96448 1.99182 1.92578 z m 0 46.23121 l 0 26.96716 c 0 1.20477 -0.7469 1.92578 -1.99182 1.92578 c -0.99594 0 -1.99178 -0.72101 -1.99178 -1.92578 l 0 -26.96716 c 0 -0.96449 0.99583 -1.92579 1.99178 -1.92579 c 1.24488 0 1.99182 0.96131 1.99182 1.92579 z m 0 46.23119 l 0 27.20751 c 0 0.96448 -0.7469 1.92578 -1.99182 1.92578 c -0.99594 0 -1.99178 -0.96132 -1.99178 -1.92578 l 0 -27.20751 c 0 -0.96448 0.99583 -1.92579 1.99178 -1.92579 c 1.24488 0 1.99182 0.96132 1.99182 1.92579 z m 0 46.47152 l 0 26.96717 c 0 0.96132 -0.7469 1.9258 -1.99182 1.9258 c -0.99594 0 -1.99178 -0.96449 -1.99178 -1.9258 l 0 -26.96717 c 0 -1.20477 0.99583 -1.92886 1.99178 -1.92886 c 1.24488 0 1.99182 0.72407 1.99182 1.92886 z m 0 46.22812 l 0 10.59645 c 0 0.96132 -0.7469 1.92578 -1.99182 1.92578 c -0.99594 0 -1.99178 -0.96448 -1.99178 -1.92578 l 0 -10.59645 c 0 -1.20478 0.99583 -1.92579 1.99178 -1.92579 c 1.24488 0 1.99182 0.72101 1.99182 1.92579 z" style="stroke: rgb(0,0,255); stroke-width: 0.24484457; stroke-dasharray: none; stroke-linecap: butt; stroke-linejoin: round; stroke-miterlimit: 4; fill: rgb(0,0,255); fill-rule: nonzero; opacity: 1;" transform="translate(-60.86 54.68) scale(0.55 0.55) translate(-81.249709, -547.50913)  matrix(1 0 0 1 0 0) " stroke-linecap="round" />
	<path id="path48662" d="m 81.249689 401.47445 l 28.134221 0 c 0.99594 0 1.99164 0.72101 1.99164 1.92579 c 0 0.96131 -0.99572 1.92578 -1.99164 1.92578 l -28.134221 0 c -0.99594 0 -1.99178 -0.96448 -1.99178 -1.92578 c 0 -1.20478 0.99583 -1.92579 1.99178 -1.92579 z m 48.052111 0 l 27.88535 0 c 0.99594 0 1.99163 0.72101 1.99163 1.92579 c 0 0.96131 -0.99561 1.92578 -1.99163 1.92578 l -27.88535 0 c -1.24482 0 -1.99163 -0.96448 -1.99163 -1.92578 c 0 -1.20478 0.74679 -1.92579 1.99163 -1.92579 z" style="stroke: rgb(0,0,255); stroke-width: 0.24484457; stroke-dasharray: none; stroke-linecap: butt; stroke-linejoin: round; stroke-miterlimit: 4; fill: rgb(0,0,255); fill-rule: nonzero; opacity: 1;" transform="translate(-39.8 -25.25) scale(0.55 0.55) translate(-119.2183445, -403.40023499999995)  matrix(1 0 0 1 0 0) " stroke-linecap="round" />
	<path id="path48664" d="m 81.249689 689.68916 l 28.134221 0 c 0.99594 0 1.99164 0.72407 1.99164 1.92887 c 0 0.96132 -0.99572 1.92578 -1.99164 1.92578 l -28.134221 0 c -0.99594 0 -1.99178 -0.96448 -1.99178 -1.92578 c 0 -1.20477 0.99583 -1.92887 1.99178 -1.92887 z m 48.052111 0 l 27.88535 0 c 0.99594 0 1.99163 0.72407 1.99163 1.92887 c 0 0.96132 -0.99561 1.92578 -1.99163 1.92578 l -27.88535 0 c -1.24482 0 -1.99163 -0.96448 -1.99163 -1.92578 c 0 -1.20477 0.74679 -1.92887 1.99163 -1.92887 z" style="stroke: rgb(0,0,255); stroke-width: 0.24484457; stroke-dasharray: none; stroke-linecap: butt; stroke-linejoin: round; stroke-miterlimit: 4; fill: rgb(0,0,255); fill-rule: nonzero; opacity: 1;" transform="translate(-39.8 134.61) scale(0.55 0.55) translate(-119.2183445, -691.616485)  matrix(1 0 0 1 0 0) " stroke-linecap="round" />
	<path id="path48666" d="m 208.22683 783.59666 c 0 5.29668 -4.23241 9.38861 -9.70996 9.38861 c -5.22838 0 -9.4611 -4.09193 -9.4611 -9.38861 c 0 -5.05635 4.23272 -9.39167 9.4611 -9.39167 c 5.47755 0 9.70996 4.33532 9.70996 9.39167" style="stroke: rgb(0,0,255); stroke-width: 3.91751194; stroke-dasharray: none; stroke-linecap: round; stroke-linejoin: round; stroke-miterlimit: 4; fill: none; fill-rule: nonzero; opacity: 1;" transform="translate(4.25 185.63) scale(0.55 0.55) translate(-198.6413, -783.59513)  matrix(1 0 0 1 0 0) " stroke-linecap="round" />
	<path id="path48668" d="m 177.35419 718.58519 c 0 6.50146 -5.47754 11.79814 -12.44872 11.79814 c -6.72234 0 -12.19989 -5.29668 -12.19989 -11.79814 c 0 -6.74178 5.47755 -12.04155 12.19989 -12.04155 c 6.97118 0 12.44872 5.29977 12.44872 12.04155" style="stroke: rgb(0,0,255); stroke-width: 6.36595678; stroke-dasharray: none; stroke-linecap: round; stroke-linejoin: round; stroke-miterlimit: 4; fill: none; fill-rule: nonzero; opacity: 1;" transform="translate(-14.39 149.5) scale(0.55 0.55) translate(-165.02988499999998, -718.463485)  matrix(1 0 0 1 0 0) " stroke-linecap="round" />
	<path id="path48670" d="m 180.09264 657.66565 l -30.12582 0" style="stroke: rgb(0,0,255); stroke-width: 6.36595678; stroke-dasharray: none; stroke-linecap: round; stroke-linejoin: round; stroke-miterlimit: 4; fill: none; fill-rule: nonzero; opacity: 1;" transform="translate(-14.39 115.78) scale(0.55 0.55) translate(-165.02972999999997, -657.66565)  matrix(1 0 0 1 0 0) " stroke-linecap="round" />
	<path id="path48672" d="m 164.90547 657.66565 l 0 50.80686" style="stroke: rgb(0,0,255); stroke-width: 6.36595678; stroke-dasharray: none; stroke-linecap: round; stroke-linejoin: round; stroke-miterlimit: 4; fill: none; fill-rule: nonzero; opacity: 1;" transform="translate(-14.46 129.87) scale(0.55 0.55) translate(-164.90547, -683.06908)  matrix(1 0 0 1 0 0) " stroke-linecap="round" />
	<path id="path48674" d="m 177.35419 229.55505 c 0 6.74179 -5.47754 12.03909 -12.44872 12.03909 c -6.72234 0 -12.19989 -5.2973 -12.19989 -12.03909 c 0 -6.50115 5.47755 -11.79844 12.19989 -11.79844 c 6.97118 0 12.44872 5.29729 12.44872 11.79844" style="stroke: rgb(0,0,255); stroke-width: 6.36595678; stroke-dasharray: none; stroke-linecap: round; stroke-linejoin: round; stroke-miterlimit: 4; fill: none; fill-rule: nonzero; opacity: 1;" transform="translate(-14.39 -121.61) scale(0.55 0.55) translate(-165.02988499999998, -229.67537499999997)  matrix(1 0 0 1 0 0) " stroke-linecap="round" />
	<path id="path48676" d="m 180.09264 168.63703 l -30.12582 0" style="stroke: rgb(0,0,255); stroke-width: 6.36595678; stroke-dasharray: none; stroke-linecap: round; stroke-linejoin: round; stroke-miterlimit: 4; fill: none; fill-rule: nonzero; opacity: 1;" transform="translate(-14.39 -155.47) scale(0.55 0.55) translate(-165.02972999999997, -168.63703)  matrix(1 0 0 1 0 0) " stroke-linecap="round" />
	<path id="SquareWaves_Boolean_on" d="m 164.90547 168.63703 l 0 51.04598" style="stroke: rgb(0,0,255); stroke-width: 6.36595678; stroke-dasharray: none; stroke-linecap: round; stroke-linejoin: round; stroke-miterlimit: 4; fill: none; fill-rule: nonzero; opacity: 1;" transform="translate(-13.96 -141.31) scale(0.55 0.55) translate(-164.90547, -194.16002000000003)  matrix(1 0 0 1 0 0) " stroke-linecap="round" />
	<path id="path48680" d="m 177.35419 441.2042 c 0 6.49836 -5.47754 11.79813 -12.44872 11.79813 c -6.72234 0 -12.19989 -5.29977 -12.19989 -11.79813 c 0 -6.7418 5.47755 -12.04156 12.19989 -12.04156 c 6.97118 0 12.44872 5.29976 12.44872 12.04156" style="stroke: rgb(0,0,255); stroke-width: 6.36595678; stroke-dasharray: none; stroke-linecap: round; stroke-linejoin: round; stroke-miterlimit: 4; fill: none; fill-rule: nonzero; opacity: 1;" transform="translate(-14.39 -4.35) scale(0.55 0.55) translate(-165.02988499999998, -441.082485)  matrix(1 0 0 1 0 0) " stroke-linecap="round" />
	<path id="path48682" d="m 180.09264 380.28464 l -30.12582 0" style="stroke: rgb(0,0,255); stroke-width: 6.36595678; stroke-dasharray: none; stroke-linecap: round; stroke-linejoin: round; stroke-miterlimit: 4; fill: none; fill-rule: nonzero; opacity: 1;" transform="translate(-14.39 -38.08) scale(0.55 0.55) translate(-165.02972999999997, -380.28464)  matrix(1 0 0 1 0 0) " stroke-linecap="round" />
	<path id="path48684" d="m 164.90547 380.28464 l 0 50.80378" style="stroke: rgb(0,0,255); stroke-width: 6.36595678; stroke-dasharray: none; stroke-linecap: round; stroke-linejoin: round; stroke-miterlimit: 4; fill: none; fill-rule: nonzero; opacity: 1;" transform="translate(-14.46 -23.99) scale(0.55 0.55) translate(-164.90547, -405.68653000000006)  matrix(1 0 0 1 0 0) " stroke-linecap="round" />
	<path id="SquareWaves_Boolean_on" d="m 142.74649 511.02858 l 0 60.19546 l 42.32569 0 l 0 -60.19546 l -42.32569 0 z" style="stroke: none; stroke-width: 1; stroke-dasharray: none; stroke-linecap: butt; stroke-linejoin: miter; stroke-miterlimit: 10; fill: rgb(191,0,0); fill-rule: evenodd; opacity: 1;" transform="translate(-12.9 51.37) scale(0.6 0.55) translate(-163.909335, -541.1263099999999)  matrix(1 0 0 1 0 0) " stroke-linecap="round" />
	<path id="SquareWaves_Boolean_off" d="m 432.28645 235.9609 l -24.5729 54.23117" style="stroke: rgb(0,0,255); stroke-width: 6.65306091; stroke-dasharray: none; stroke-linecap: round; stroke-linejoin: round; stroke-miterlimit: 4; fill: none; fill-rule: nonzero; opacity: 1;" transform="translate(-3.33 -140.32) scale(0.55 0.55) translate(-420, -263.076485)  matrix(1 0 0 1 0 0) " stroke-linecap="round" />
</g>
</svg>