<?xml version="1.0" standalone="no"?><!DOCTYPE svg PUBLIC "-//W3C//DTD SVG 1.1//EN" "http://www.w3.org/Graphics/SVG/1.1/DTD/svg11.dtd"><svg width="100%" height="100%" version="1.1" xmlns="http://www.w3.org/2000/svg"><g style="stroke: none; stroke-width: 1; stroke-dasharray: none; stroke-linecap: butt; stroke-linejoin: miter; stroke-miterlimit: 10; fill: none; fill-rule: nonzero; opacity: 1;" transform="translate(0 0)" >
	<path id="path48282" d="m 210.08961 531.11353 l 0 41.69962 l -74.21734 0 l 0 -41.69962 l 74.21734 0 z" style="stroke: rgb(0,0,255); stroke-width: 3.70287466; stroke-dasharray: none; stroke-linecap: round; stroke-linejoin: round; stroke-miterlimit: 4; fill: none; fill-rule: nonzero; opacity: 1;" transform=" matrix(0.62 0 0 0.62 -48.6781828 -325.9272708) " stroke-linecap="round" />
	<path id="path48284" d="m 146.92066 572.81315 l 0 -41.69962" style="stroke: rgb(0,0,255); stroke-width: 3.70287466; stroke-dasharray: none; stroke-linecap: round; stroke-linejoin: round; stroke-miterlimit: 4; fill: none; fill-rule: nonzero; opacity: 1;" transform=" matrix(0.62 0 0 0.62 -48.6508092 -325.9272708) " stroke-linecap="round" />
	<path id="path48286" d="m 158.20952 572.81315 l 0 -41.69962" style="stroke: rgb(0,0,255); stroke-width: 3.70287466; stroke-dasharray: none; stroke-linecap: round; stroke-linejoin: round; stroke-miterlimit: 4; fill: none; fill-rule: nonzero; opacity: 1;" transform=" matrix(0.62 0 0 0.62 -48.65990240000001 -325.9272708) " stroke-linecap="round" />
	<path id="path48288" d="m 176.70385 551.85062 l -18.49433 0" style="stroke: rgb(0,0,255); stroke-width: 3.70287466; stroke-dasharray: none; stroke-linecap: round; stroke-linejoin: round; stroke-miterlimit: 4; fill: none; fill-rule: nonzero; opacity: 1;" transform=" matrix(0.62 0 0 0.62 -48.673144699999995 -325.9273844) " stroke-linecap="round" />
	<path id="path48290" d="m 176.70385 551.85062 l -14.89176 14.04829" style="stroke: rgb(0,0,255); stroke-width: 3.70287466; stroke-dasharray: none; stroke-linecap: round; stroke-linejoin: round; stroke-miterlimit: 4; fill: none; fill-rule: nonzero; opacity: 1;" transform=" matrix(0.62 0 0 0.62 -48.67994139999999 -325.93235430000004) " stroke-linecap="round" />
	<path id="path48292" d="m 176.70385 551.85062 l -14.89176 -13.8257" style="stroke: rgb(0,0,255); stroke-width: 3.70287466; stroke-dasharray: none; stroke-linecap: round; stroke-linejoin: round; stroke-miterlimit: 4; fill: none; fill-rule: nonzero; opacity: 1;" transform=" matrix(0.62 0 0 0.62 -48.67994139999999 -325.9214174) " stroke-linecap="round" />
	<path id="path48294" d="m 191.59528 551.85062 l 14.89165 -13.8257" style="stroke: rgb(0,0,255); stroke-width: 3.70287466; stroke-dasharray: none; stroke-linecap: round; stroke-linejoin: round; stroke-miterlimit: 4; fill: none; fill-rule: nonzero; opacity: 1;" transform=" matrix(0.62 0 0 0.62 -48.71548510000001 -325.9214174) " stroke-linecap="round" />
	<path id="path48296" d="m 191.59528 551.85062 l 14.89165 14.04829" style="stroke: rgb(0,0,255); stroke-width: 3.70287466; stroke-dasharray: none; stroke-linecap: round; stroke-linejoin: round; stroke-miterlimit: 4; fill: none; fill-rule: nonzero; opacity: 1;" transform=" matrix(0.62 0 0 0.62 -48.71548510000001 -325.93235430000004) " stroke-linecap="round" />
	<path id="path48298" d="m 195.19818 551.85062 l 14.89143 0" style="stroke: rgb(0,0,255); stroke-width: 3.70287466; stroke-dasharray: none; stroke-linecap: round; stroke-linejoin: round; stroke-miterlimit: 4; fill: none; fill-rule: nonzero; opacity: 1;" transform=" matrix(0.62 0 0 0.62 -48.71921489999998 -325.9273844) " stroke-linecap="round" />
	<path id="path48300" d="m 210.08961 551.85062 l 7.44582 0" style="stroke: rgb(0,0,255); stroke-width: 3.70287466; stroke-dasharray: none; stroke-linecap: round; stroke-linejoin: round; stroke-miterlimit: 4; fill: none; fill-rule: nonzero; opacity: 1;" transform=" matrix(0.62 0 0 0.62 -48.7337624 -325.9273844) " stroke-linecap="round" />
	<path id="path48302" d="m 135.87227 551.85062 l -7.44593 0" style="stroke: rgb(0,0,255); stroke-width: 3.70287466; stroke-dasharray: none; stroke-linecap: round; stroke-linejoin: round; stroke-miterlimit: 4; fill: none; fill-rule: nonzero; opacity: 1;" transform=" matrix(0.62 0 0 0.62 -48.62256909999998 -325.9273844) " stroke-linecap="round" />
	<path id="path48304" d="m 128.42634 551.85062 l -18.73468 0 l 18.73468 0 z" style="stroke: rgb(0,0,255); stroke-width: 3.70287466; stroke-dasharray: none; stroke-linecap: round; stroke-linejoin: round; stroke-miterlimit: 4; fill: none; fill-rule: nonzero; opacity: 1;" transform=" matrix(0.62 0 0 0.62 -48.606579999999994 -325.9273844) " stroke-linecap="round" />
	<path id="path48306" d="m 217.53543 551.85062 l 29.78308 0 l -29.78308 0 z" style="stroke: rgb(0,0,255); stroke-width: 3.70287466; stroke-dasharray: none; stroke-linecap: round; stroke-linejoin: round; stroke-miterlimit: 4; fill: none; fill-rule: nonzero; opacity: 1;" transform=" matrix(0.62 0 0 0.62 -48.7647214 -325.9273844) " stroke-linecap="round" />
	<path id="path48308" d="m 117.13759 551.85062 l -14.89143 0" style="stroke: rgb(0,0,255); stroke-width: 3.70287466; stroke-dasharray: none; stroke-linecap: round; stroke-linejoin: round; stroke-miterlimit: 4; fill: none; fill-rule: nonzero; opacity: 1;" transform=" matrix(0.62 0 0 0.62 -48.59896250000001 -325.9273844) " stroke-linecap="round" />
	<path id="path48310" d="m 102.24616 576.38017 l 0 -48.83372" style="stroke: rgb(0,0,255); stroke-width: 3.70287466; stroke-dasharray: none; stroke-linecap: round; stroke-linejoin: round; stroke-miterlimit: 4; fill: none; fill-rule: nonzero; opacity: 1;" transform=" matrix(0.62 0 0 0.62 -48.582619199999996 -325.92725220000005) " stroke-linecap="round" />
	<path id="path48312" d="m 91.197329 569.2462 l 0 -34.7883" style="stroke: rgb(0,0,255); stroke-width: 3.70287466; stroke-dasharray: none; stroke-linecap: round; stroke-linejoin: round; stroke-miterlimit: 4; fill: none; fill-rule: nonzero; opacity: 1;" transform=" matrix(0.62 0 0 0.62 -48.57234398 -325.92827099999994) " stroke-linecap="round" />
	<path id="path48314" d="m 80.148939 558.98751 l 0 -14.04828" style="stroke: rgb(0,0,255); stroke-width: 3.70287466; stroke-dasharray: none; stroke-linecap: round; stroke-linejoin: round; stroke-miterlimit: 4; fill: none; fill-rule: nonzero; opacity: 1;" transform=" matrix(0.62 0 0 0.62 -48.55234218 -325.9272894) " stroke-linecap="round" />
	<path id="path48316" d="m 117.13759 551.85062 l -7.44593 0 l 7.44593 0 z" style="stroke: rgb(0,0,255); stroke-width: 3.70287466; stroke-dasharray: none; stroke-linecap: round; stroke-linejoin: round; stroke-miterlimit: 4; fill: none; fill-rule: nonzero; opacity: 1;" transform=" matrix(0.62 0 0 0.62 -48.597067499999994 -325.9273844) " stroke-linecap="round" />
</g>
</svg>