<?xml version="1.0" standalone="no"?><!DOCTYPE svg PUBLIC "-//W3C//DTD SVG 1.1//EN" "http://www.w3.org/Graphics/SVG/1.1/DTD/svg11.dtd"><svg width="100%" height="100%" version="1.1" xmlns="http://www.w3.org/2000/svg"><g transform="translate(52.86 16.29)" style="">
	<path id="path48282" d="m 210.08961 531.11353 l 0 41.69962 l -74.21734 0 l 0 -41.69962 l 74.21734 0 z" style="stroke: rgb(0,0,255); stroke-width: 3.70287466; stroke-dasharray: none; stroke-linecap: round; stroke-linejoin: round; stroke-miterlimit: 4; fill: none; fill-rule: nonzero; opacity: 1;" transform="translate(5.71 0) scale(0.62 0.62) translate(-172.98094, -551.96334)  matrix(1 0 0 1 0 0) " stroke-linecap="round" />
	<path id="path48284" d="m 146.92066 572.81315 l 0 -41.69962" style="stroke: rgb(0,0,255); stroke-width: 3.70287466; stroke-dasharray: none; stroke-linecap: round; stroke-linejoin: round; stroke-miterlimit: 4; fill: none; fill-rule: nonzero; opacity: 1;" transform="translate(-10.42 0) scale(0.62 0.62) translate(-146.92066, -551.96334)  matrix(1 0 0 1 0 0) " stroke-linecap="round" />
	<path id="path48286" d="m 158.20952 572.81315 l 0 -41.69962" style="stroke: rgb(0,0,255); stroke-width: 3.70287466; stroke-dasharray: none; stroke-linecap: round; stroke-linejoin: round; stroke-miterlimit: 4; fill: none; fill-rule: nonzero; opacity: 1;" transform="translate(-3.43 0) scale(0.62 0.62) translate(-158.20952, -551.96334)  matrix(1 0 0 1 0 0) " stroke-linecap="round" />
	<path id="path48288" d="m 176.70385 551.85062 l -18.49433 0" style="stroke: rgb(0,0,255); stroke-width: 3.70287466; stroke-dasharray: none; stroke-linecap: round; stroke-linejoin: round; stroke-miterlimit: 4; fill: none; fill-rule: nonzero; opacity: 1;" transform="translate(2.29 -0.07) scale(0.62 0.62) translate(-167.456685, -551.85062)  matrix(1 0 0 1 0 0) " stroke-linecap="round" />
	<path id="path48290" d="m 176.70385 551.85062 l -14.89176 14.04829" style="stroke: rgb(0,0,255); stroke-width: 3.70287466; stroke-dasharray: none; stroke-linecap: round; stroke-linejoin: round; stroke-miterlimit: 4; fill: none; fill-rule: nonzero; opacity: 1;" transform="translate(3.4 4.28) scale(0.62 0.62) translate(-169.25797, -558.874765)  matrix(1 0 0 1 0 0) " stroke-linecap="round" />
	<path id="path48292" d="m 176.70385 551.85062 l -14.89176 -13.8257" style="stroke: rgb(0,0,255); stroke-width: 3.70287466; stroke-dasharray: none; stroke-linecap: round; stroke-linejoin: round; stroke-miterlimit: 4; fill: none; fill-rule: nonzero; opacity: 1;" transform="translate(3.4 -4.35) scale(0.62 0.62) translate(-169.25797, -544.93777)  matrix(1 0 0 1 0 0) " stroke-linecap="round" />
	<path id="path48294" d="m 191.59528 551.85062 l 14.89165 -13.8257" style="stroke: rgb(0,0,255); stroke-width: 3.70287466; stroke-dasharray: none; stroke-linecap: round; stroke-linejoin: round; stroke-miterlimit: 4; fill: none; fill-rule: nonzero; opacity: 1;" transform="translate(21.83 -4.35) scale(0.62 0.62) translate(-199.04110500000002, -544.93777)  matrix(1 0 0 1 0 0) " stroke-linecap="round" />
	<path id="path48296" d="m 191.59528 551.85062 l 14.89165 14.04829" style="stroke: rgb(0,0,255); stroke-width: 3.70287466; stroke-dasharray: none; stroke-linecap: round; stroke-linejoin: round; stroke-miterlimit: 4; fill: none; fill-rule: nonzero; opacity: 1;" transform="translate(21.83 4.28) scale(0.62 0.62) translate(-199.04110500000002, -558.874765)  matrix(1 0 0 1 0 0) " stroke-linecap="round" />
	<path id="path48298" d="m 195.19818 551.85062 l 14.89143 0" style="stroke: rgb(0,0,255); stroke-width: 3.70287466; stroke-dasharray: none; stroke-linecap: round; stroke-linejoin: round; stroke-miterlimit: 4; fill: none; fill-rule: nonzero; opacity: 1;" transform="translate(24.06 -0.07) scale(0.62 0.62) translate(-202.643895, -551.85062)  matrix(1 0 0 1 0 0) " stroke-linecap="round" />
	<path id="path48300" d="m 210.08961 551.85062 l 7.44582 0" style="stroke: rgb(0,0,255); stroke-width: 3.70287466; stroke-dasharray: none; stroke-linecap: round; stroke-linejoin: round; stroke-miterlimit: 4; fill: none; fill-rule: nonzero; opacity: 1;" transform="translate(30.97 -0.07) scale(0.62 0.62) translate(-213.81252, -551.85062)  matrix(1 0 0 1 0 0) " stroke-linecap="round" />
	<path id="path48302" d="m 135.87227 551.85062 l -7.44593 0" style="stroke: rgb(0,0,255); stroke-width: 3.70287466; stroke-dasharray: none; stroke-linecap: round; stroke-linejoin: round; stroke-miterlimit: 4; fill: none; fill-rule: nonzero; opacity: 1;" transform="translate(-19.55 -0.07) scale(0.62 0.62) translate(-132.14930499999997, -551.85062)  matrix(1 0 0 1 0 0) " stroke-linecap="round" />
	<path id="path48304" d="m 128.42634 551.85062 l -18.73468 0 l 18.73468 0 z" style="stroke: rgb(0,0,255); stroke-width: 3.70287466; stroke-dasharray: none; stroke-linecap: round; stroke-linejoin: round; stroke-miterlimit: 4; fill: none; fill-rule: nonzero; opacity: 1;" transform="translate(-27.65 -0.07) scale(0.62 0.62) translate(-119.05900000000001, -551.85062)  matrix(1 0 0 1 0 0) " stroke-linecap="round" />
	<path id="path48306" d="m 217.53543 551.85062 l 29.78308 0 l -29.78308 0 z" style="stroke: rgb(0,0,255); stroke-width: 3.70287466; stroke-dasharray: none; stroke-linecap: round; stroke-linejoin: round; stroke-miterlimit: 4; fill: none; fill-rule: nonzero; opacity: 1;" transform="translate(42.48 -0.07) scale(0.62 0.62) translate(-232.42696999999998, -551.85062)  matrix(1 0 0 1 0 0) " stroke-linecap="round" />
	<path id="path48308" d="m 117.13759 551.85062 l -14.89143 0" style="stroke: rgb(0,0,255); stroke-width: 3.70287466; stroke-dasharray: none; stroke-linecap: round; stroke-linejoin: round; stroke-miterlimit: 4; fill: none; fill-rule: nonzero; opacity: 1;" transform="translate(-33.45 -0.07) scale(0.62 0.62) translate(-109.69187500000001, -551.85062)  matrix(1 0 0 1 0 0) " stroke-linecap="round" />
	<path id="path48310" d="m 102.24616 576.38017 l 0 -48.83372" style="stroke: rgb(0,0,255); stroke-width: 3.70287466; stroke-dasharray: none; stroke-linecap: round; stroke-linejoin: round; stroke-miterlimit: 4; fill: none; fill-rule: nonzero; opacity: 1;" transform="translate(-38.05 0) scale(0.62 0.62) translate(-102.24616, -551.9633100000001)  matrix(1 0 0 1 0 0) " stroke-linecap="round" />
	<path id="path48312" d="m 91.197329 569.2462 l 0 -34.7883" style="stroke: rgb(0,0,255); stroke-width: 3.70287466; stroke-dasharray: none; stroke-linecap: round; stroke-linejoin: round; stroke-miterlimit: 4; fill: none; fill-rule: nonzero; opacity: 1;" transform="translate(-44.89 -0.07) scale(0.62 0.62) translate(-91.197329, -551.85205)  matrix(1 0 0 1 0 0) " stroke-linecap="round" />
	<path id="path48314" d="m 80.148939 558.98751 l 0 -14.04828" style="stroke: rgb(0,0,255); stroke-width: 3.70287466; stroke-dasharray: none; stroke-linecap: round; stroke-linejoin: round; stroke-miterlimit: 4; fill: none; fill-rule: nonzero; opacity: 1;" transform="translate(-51.72 0) scale(0.62 0.62) translate(-80.148939, -551.96337)  matrix(1 0 0 1 0 0) " stroke-linecap="round" />
	<path id="path48316" d="m 117.13759 551.85062 l -7.44593 0 l 7.44593 0 z" style="stroke: rgb(0,0,255); stroke-width: 3.70287466; stroke-dasharray: none; stroke-linecap: round; stroke-linejoin: round; stroke-miterlimit: 4; fill: none; fill-rule: nonzero; opacity: 1;" transform="translate(-31.14 -0.07) scale(0.62 0.62) translate(-113.414625, -551.85062)  matrix(1 0 0 1 0 0) " stroke-linecap="round" />
</g>
</svg>