<?xml version="1.0" standalone="no"?><!DOCTYPE svg PUBLIC "-//W3C//DTD SVG 1.1//EN" "http://www.w3.org/Graphics/SVG/1.1/DTD/svg11.dtd"><svg width="100%" height="100%" version="1.1" xmlns="http://www.w3.org/2000/svg"><g transform="translate(97.73 174.14)" style="">
	<path id="path48268" d="m 258.36701 553.63416 c 0 4.90813 -4.08296 8.69773 -9.12715 8.69773 c -5.28389 0 -9.36718 -3.7896 -9.36718 -8.69773 c 0 -4.68282 4.08329 -8.69493 9.36718 -8.69493 c 5.04419 0 9.12715 4.01211 9.12715 8.69493" style="stroke: rgb(0,0,255); stroke-width: 3.70287466; stroke-dasharray: none; stroke-linecap: round; stroke-linejoin: round; stroke-miterlimit: 4; fill: none; fill-rule: nonzero; opacity: 1;" transform="translate(7.95 64.15) scale(0.62 0.62) translate(-249.119845, -553.6355599999999)  matrix(1 0 0 1 0 0) " stroke-linecap="round" />
	<path id="path48270" d="m 232.42686 416.04771 l 29.78308 0 l 0 48.83652 l -29.78308 0 l 0 -48.83652 z" style="stroke: rgb(0,0,255); stroke-width: 3.70287466; stroke-dasharray: none; stroke-linecap: round; stroke-linejoin: round; stroke-miterlimit: 4; fill: none; fill-rule: nonzero; opacity: 1;" transform="translate(6.84 -5.86) scale(0.62 0.62) translate(-247.3184, -440.46596999999997)  matrix(1 0 0 1 0 0) " stroke-linecap="round" />
	<path id="path48272" d="m 247.31851 412.70333 l 0 3.34438" style="stroke: rgb(0,0,255); stroke-width: 3.70287466; stroke-dasharray: none; stroke-linecap: round; stroke-linejoin: round; stroke-miterlimit: 4; fill: none; fill-rule: nonzero; opacity: 1;" transform="translate(6.84 -22) scale(0.62 0.62) translate(-247.31851, -414.37552)  matrix(1 0 0 1 0 0) " stroke-linecap="round" />
	<path id="path48274" d="m 247.31851 461.31731 l 0 6.9114" style="stroke: rgb(0,0,255); stroke-width: 3.70287466; stroke-dasharray: none; stroke-linecap: round; stroke-linejoin: round; stroke-miterlimit: 4; fill: none; fill-rule: nonzero; opacity: 1;" transform="translate(6.84 9.17) scale(0.62 0.62) translate(-247.31851, -464.77301)  matrix(1 0 0 1 0 0) " stroke-linecap="round" />
	<path id="path48276" d="m 247.31851 416.04771 l 0 45.2696" style="stroke: rgb(0,0,255); stroke-width: 3.70287466; stroke-dasharray: none; stroke-linecap: round; stroke-linejoin: round; stroke-miterlimit: 4; fill: none; fill-rule: nonzero; opacity: 1;" transform="translate(6.84 -6.97) scale(0.62 0.62) translate(-247.31851, -438.68251)  matrix(1 0 0 1 0 0) " stroke-linecap="round" />
	<path id="path48278" d="m 247.31851 412.70333 l 0 -41.92167 l 0 41.92167 z" style="stroke: rgb(0,0,255); stroke-width: 3.70287466; stroke-dasharray: none; stroke-linecap: round; stroke-linejoin: round; stroke-miterlimit: 4; fill: none; fill-rule: nonzero; opacity: 1;" transform="translate(6.84 -36.01) scale(0.62 0.62) translate(-247.31851, -391.74249499999996)  matrix(1 0 0 1 0 0) " stroke-linecap="round" />
	<path id="path48280" d="m 247.31851 468.22871 l 0 83.62191 l 0 -83.62191 z" style="stroke: rgb(0,0,255); stroke-width: 3.70287466; stroke-dasharray: none; stroke-linecap: round; stroke-linejoin: round; stroke-miterlimit: 4; fill: none; fill-rule: nonzero; opacity: 1;" transform="translate(6.84 37.18) scale(0.62 0.62) translate(-247.31851, -510.0396649999999)  matrix(1 0 0 1 0 0) " stroke-linecap="round" />
	<path id="path48282" d="m 210.08961 531.11353 l 0 41.69962 l -74.21734 0 l 0 -41.69962 l 74.21734 0 z" style="stroke: rgb(0,0,255); stroke-width: 3.70287466; stroke-dasharray: none; stroke-linecap: round; stroke-linejoin: round; stroke-miterlimit: 4; fill: none; fill-rule: nonzero; opacity: 1;" transform="translate(-39.16 63.12) scale(0.62 0.62) translate(-172.98094, -551.96334)  matrix(1 0 0 1 0 0) " stroke-linecap="round" />
	<path id="path48284" d="m 146.92066 572.81315 l 0 -41.69962" style="stroke: rgb(0,0,255); stroke-width: 3.70287466; stroke-dasharray: none; stroke-linecap: round; stroke-linejoin: round; stroke-miterlimit: 4; fill: none; fill-rule: nonzero; opacity: 1;" transform="translate(-55.28 63.12) scale(0.62 0.62) translate(-146.92066, -551.96334)  matrix(1 0 0 1 0 0) " stroke-linecap="round" />
	<path id="path48286" d="m 158.20952 572.81315 l 0 -41.69962" style="stroke: rgb(0,0,255); stroke-width: 3.70287466; stroke-dasharray: none; stroke-linecap: round; stroke-linejoin: round; stroke-miterlimit: 4; fill: none; fill-rule: nonzero; opacity: 1;" transform="translate(-48.29 63.12) scale(0.62 0.62) translate(-158.20952, -551.96334)  matrix(1 0 0 1 0 0) " stroke-linecap="round" />
	<path id="path48288" d="m 176.70385 551.85062 l -18.49433 0" style="stroke: rgb(0,0,255); stroke-width: 3.70287466; stroke-dasharray: none; stroke-linecap: round; stroke-linejoin: round; stroke-miterlimit: 4; fill: none; fill-rule: nonzero; opacity: 1;" transform="translate(-42.57 63.05) scale(0.62 0.62) translate(-167.456685, -551.85062)  matrix(1 0 0 1 0 0) " stroke-linecap="round" />
	<path id="path48290" d="m 176.70385 551.85062 l -14.89176 14.04829" style="stroke: rgb(0,0,255); stroke-width: 3.70287466; stroke-dasharray: none; stroke-linecap: round; stroke-linejoin: round; stroke-miterlimit: 4; fill: none; fill-rule: nonzero; opacity: 1;" transform="translate(-41.46 67.39) scale(0.62 0.62) translate(-169.25797, -558.874765)  matrix(1 0 0 1 0 0) " stroke-linecap="round" />
	<path id="path48292" d="m 176.70385 551.85062 l -14.89176 -13.8257" style="stroke: rgb(0,0,255); stroke-width: 3.70287466; stroke-dasharray: none; stroke-linecap: round; stroke-linejoin: round; stroke-miterlimit: 4; fill: none; fill-rule: nonzero; opacity: 1;" transform="translate(-41.46 58.77) scale(0.62 0.62) translate(-169.25797, -544.93777)  matrix(1 0 0 1 0 0) " stroke-linecap="round" />
	<path id="path48294" d="m 191.59528 551.85062 l 14.89165 -13.8257" style="stroke: rgb(0,0,255); stroke-width: 3.70287466; stroke-dasharray: none; stroke-linecap: round; stroke-linejoin: round; stroke-miterlimit: 4; fill: none; fill-rule: nonzero; opacity: 1;" transform="translate(-23.03 58.77) scale(0.62 0.62) translate(-199.04110500000002, -544.93777)  matrix(1 0 0 1 0 0) " stroke-linecap="round" />
	<path id="path48296" d="m 191.59528 551.85062 l 14.89165 14.04829" style="stroke: rgb(0,0,255); stroke-width: 3.70287466; stroke-dasharray: none; stroke-linecap: round; stroke-linejoin: round; stroke-miterlimit: 4; fill: none; fill-rule: nonzero; opacity: 1;" transform="translate(-23.03 67.39) scale(0.62 0.62) translate(-199.04110500000002, -558.874765)  matrix(1 0 0 1 0 0) " stroke-linecap="round" />
	<path id="path48298" d="m 195.19818 551.85062 l 14.89143 0" style="stroke: rgb(0,0,255); stroke-width: 3.70287466; stroke-dasharray: none; stroke-linecap: round; stroke-linejoin: round; stroke-miterlimit: 4; fill: none; fill-rule: nonzero; opacity: 1;" transform="translate(-20.8 63.05) scale(0.62 0.62) translate(-202.643895, -551.85062)  matrix(1 0 0 1 0 0) " stroke-linecap="round" />
	<path id="path48300" d="m 210.08961 551.85062 l 7.44582 0" style="stroke: rgb(0,0,255); stroke-width: 3.70287466; stroke-dasharray: none; stroke-linecap: round; stroke-linejoin: round; stroke-miterlimit: 4; fill: none; fill-rule: nonzero; opacity: 1;" transform="translate(-13.89 63.05) scale(0.62 0.62) translate(-213.81252, -551.85062)  matrix(1 0 0 1 0 0) " stroke-linecap="round" />
	<path id="path48302" d="m 135.87227 551.85062 l -7.44593 0" style="stroke: rgb(0,0,255); stroke-width: 3.70287466; stroke-dasharray: none; stroke-linecap: round; stroke-linejoin: round; stroke-miterlimit: 4; fill: none; fill-rule: nonzero; opacity: 1;" transform="translate(-64.42 63.05) scale(0.62 0.62) translate(-132.14930499999997, -551.85062)  matrix(1 0 0 1 0 0) " stroke-linecap="round" />
	<path id="path48304" d="m 128.42634 551.85062 l -18.73468 0 l 18.73468 0 z" style="stroke: rgb(0,0,255); stroke-width: 3.70287466; stroke-dasharray: none; stroke-linecap: round; stroke-linejoin: round; stroke-miterlimit: 4; fill: none; fill-rule: nonzero; opacity: 1;" transform="translate(-72.51 63.05) scale(0.62 0.62) translate(-119.05900000000001, -551.85062)  matrix(1 0 0 1 0 0) " stroke-linecap="round" />
	<path id="path48306" d="m 217.53543 551.85062 l 29.78308 0 l -29.78308 0 z" style="stroke: rgb(0,0,255); stroke-width: 3.70287466; stroke-dasharray: none; stroke-linecap: round; stroke-linejoin: round; stroke-miterlimit: 4; fill: none; fill-rule: nonzero; opacity: 1;" transform="translate(-2.38 63.05) scale(0.62 0.62) translate(-232.42696999999998, -551.85062)  matrix(1 0 0 1 0 0) " stroke-linecap="round" />
	<path id="path48308" d="m 117.13759 551.85062 l -14.89143 0" style="stroke: rgb(0,0,255); stroke-width: 3.70287466; stroke-dasharray: none; stroke-linecap: round; stroke-linejoin: round; stroke-miterlimit: 4; fill: none; fill-rule: nonzero; opacity: 1;" transform="translate(-78.31 63.05) scale(0.62 0.62) translate(-109.69187500000001, -551.85062)  matrix(1 0 0 1 0 0) " stroke-linecap="round" />
	<path id="path48310" d="m 102.24616 576.38017 l 0 -48.83372" style="stroke: rgb(0,0,255); stroke-width: 3.70287466; stroke-dasharray: none; stroke-linecap: round; stroke-linejoin: round; stroke-miterlimit: 4; fill: none; fill-rule: nonzero; opacity: 1;" transform="translate(-82.92 63.12) scale(0.62 0.62) translate(-102.24616, -551.9633100000001)  matrix(1 0 0 1 0 0) " stroke-linecap="round" />
	<path id="path48312" d="m 91.197329 569.2462 l 0 -34.7883" style="stroke: rgb(0,0,255); stroke-width: 3.70287466; stroke-dasharray: none; stroke-linecap: round; stroke-linejoin: round; stroke-miterlimit: 4; fill: none; fill-rule: nonzero; opacity: 1;" transform="translate(-89.75 63.05) scale(0.62 0.62) translate(-91.197329, -551.85205)  matrix(1 0 0 1 0 0) " stroke-linecap="round" />
	<path id="path48314" d="m 80.148939 558.98751 l 0 -14.04828" style="stroke: rgb(0,0,255); stroke-width: 3.70287466; stroke-dasharray: none; stroke-linecap: round; stroke-linejoin: round; stroke-miterlimit: 4; fill: none; fill-rule: nonzero; opacity: 1;" transform="translate(-96.59 63.12) scale(0.62 0.62) translate(-80.148939, -551.96337)  matrix(1 0 0 1 0 0) " stroke-linecap="round" />
	<path id="path48316" d="m 117.13759 551.85062 l -7.44593 0 l 7.44593 0 z" style="stroke: rgb(0,0,255); stroke-width: 3.70287466; stroke-dasharray: none; stroke-linecap: round; stroke-linejoin: round; stroke-miterlimit: 4; fill: none; fill-rule: nonzero; opacity: 1;" transform="translate(-76.01 63.05) scale(0.62 0.62) translate(-113.414625, -551.85062)  matrix(1 0 0 1 0 0) " stroke-linecap="round" />
	<path id="path48318" d="m 247.31851 618.0798 l 0 -10.48127" style="stroke: rgb(0,0,255); stroke-width: 3.70287466; stroke-dasharray: none; stroke-linecap: round; stroke-linejoin: round; stroke-miterlimit: 4; fill: none; fill-rule: nonzero; opacity: 1;" transform="translate(6.84 100.78) scale(0.62 0.62) translate(-247.31851, -612.839165)  matrix(1 0 0 1 0 0) " stroke-linecap="round" />
	<path id="path48320" d="m 247.31851 618.0798 l -33.38598 59.3179" style="stroke: rgb(0,0,255); stroke-width: 3.70287466; stroke-dasharray: none; stroke-linecap: round; stroke-linejoin: round; stroke-miterlimit: 4; fill: none; fill-rule: nonzero; opacity: 1;" transform="translate(-3.49 122.37) scale(0.62 0.62) translate(-230.62552, -647.73875)  matrix(1 0 0 1 0 0) " stroke-linecap="round" />
	<path id="path48322" d="m 247.31851 691.22049 l 0 -17.39266" style="stroke: rgb(0,0,255); stroke-width: 3.70287466; stroke-dasharray: none; stroke-linecap: round; stroke-linejoin: round; stroke-miterlimit: 4; fill: none; fill-rule: nonzero; opacity: 1;" transform="translate(6.84 143.89) scale(0.62 0.62) translate(-247.31851, -682.52416)  matrix(1 0 0 1 0 0) " stroke-linecap="round" />
	<path id="path48324" d="m 247.31851 673.82783 l -7.44583 0" style="stroke: rgb(0,0,255); stroke-width: 3.70287466; stroke-dasharray: none; stroke-linecap: round; stroke-linejoin: round; stroke-miterlimit: 4; fill: none; fill-rule: nonzero; opacity: 1;" transform="translate(4.53 138.51) scale(0.62 0.62) translate(-243.595595, -673.82783)  matrix(1 0 0 1 0 0) " stroke-linecap="round" />
	<path id="path48326" d="m 247.31851 691.22049 l 0 27.87398 l 0 -27.87398 z" style="stroke: rgb(0,0,255); stroke-width: 3.70287466; stroke-dasharray: none; stroke-linecap: round; stroke-linejoin: round; stroke-miterlimit: 4; fill: none; fill-rule: nonzero; opacity: 1;" transform="translate(6.84 157.89) scale(0.62 0.62) translate(-247.31851, -705.1574800000001)  matrix(1 0 0 1 0 0) " stroke-linecap="round" />
	<path id="path48328" d="m 247.31851 607.59853 l 0 -55.74791 l 0 55.74791 z" style="stroke: rgb(0,0,255); stroke-width: 3.70287466; stroke-dasharray: none; stroke-linecap: round; stroke-linejoin: round; stroke-miterlimit: 4; fill: none; fill-rule: nonzero; opacity: 1;" transform="translate(6.84 80.29) scale(0.62 0.62) translate(-247.31851, -579.724575)  matrix(1 0 0 1 0 0) " stroke-linecap="round" />
	<path id="path48330" d="m 351.31901 551.85062 l 18.73373 0" style="stroke: rgb(0,0,255); stroke-width: 3.70287466; stroke-dasharray: none; stroke-linecap: round; stroke-linejoin: round; stroke-miterlimit: 4; fill: none; fill-rule: nonzero; opacity: 1;" transform="translate(76.97 63.05) scale(0.62 0.62) translate(-360.685875, -551.85062)  matrix(1 0 0 1 0 0) " stroke-linecap="round" />
	<path id="path48332" d="m 370.05274 527.54645 l 0 48.83372" style="stroke: rgb(0,0,255); stroke-width: 3.70287466; stroke-dasharray: none; stroke-linecap: round; stroke-linejoin: round; stroke-miterlimit: 4; fill: none; fill-rule: nonzero; opacity: 1;" transform="translate(82.77 63.12) scale(0.62 0.62) translate(-370.05274, -551.9633100000001)  matrix(1 0 0 1 0 0) " stroke-linecap="round" />
	<path id="path48334" d="m 381.1024 538.02492 l 0 27.87399" style="stroke: rgb(0,0,255); stroke-width: 3.70287466; stroke-dasharray: none; stroke-linecap: round; stroke-linejoin: round; stroke-miterlimit: 4; fill: none; fill-rule: nonzero; opacity: 1;" transform="translate(89.6 63.12) scale(0.62 0.62) translate(-381.1024, -551.961915)  matrix(1 0 0 1 0 0) " stroke-linecap="round" />
	<path id="path48336" d="m 392.39183 544.93923 l 0 14.04828" style="stroke: rgb(0,0,255); stroke-width: 3.70287466; stroke-dasharray: none; stroke-linecap: round; stroke-linejoin: round; stroke-miterlimit: 4; fill: none; fill-rule: nonzero; opacity: 1;" transform="translate(96.59 63.12) scale(0.62 0.62) translate(-392.39183, -551.9633699999999)  matrix(1 0 0 1 0 0) " stroke-linecap="round" />
	<path id="path48338" d="M 351.31901 551.85062 L 310.48744 531.11353" style="stroke: rgb(0,0,255); stroke-width: 3.70287466; stroke-dasharray: none; stroke-linecap: round; stroke-linejoin: round; stroke-miterlimit: 4; fill: none; fill-rule: nonzero; opacity: 1;" transform="translate(58.55 56.63) scale(0.62 0.62) translate(-330.903225, -541.482075)  matrix(1 0 0 1 0 0) " stroke-linecap="round" />
	<path id="path48340" d="m 306.88477 551.85062 l 7.44561 0" style="stroke: rgb(0,0,255); stroke-width: 3.70287466; stroke-dasharray: none; stroke-linecap: round; stroke-linejoin: round; stroke-miterlimit: 4; fill: none; fill-rule: nonzero; opacity: 1;" transform="translate(45.99 63.05) scale(0.62 0.62) translate(-310.607575, -551.85062)  matrix(1 0 0 1 0 0) " stroke-linecap="round" />
	<path id="path48342" d="m 306.88477 551.85062 l -59.56626 0 l 59.56626 0 z" style="stroke: rgb(0,0,255); stroke-width: 3.70287466; stroke-dasharray: none; stroke-linecap: round; stroke-linejoin: round; stroke-miterlimit: 4; fill: none; fill-rule: nonzero; opacity: 1;" transform="translate(25.26 63.05) scale(0.62 0.62) translate(-277.10164, -551.85062)  matrix(1 0 0 1 0 0) " stroke-linecap="round" />
	<path id="path48344" d="m 258.36701 720.8808 c 0 4.68284 -4.08296 8.69494 -9.12715 8.69494 c -5.28389 0 -9.36718 -4.0121 -9.36718 -8.69494 c 0 -4.90812 4.08329 -8.69772 9.36718 -8.69772 c 5.04419 0 9.12715 3.7896 9.12715 8.69772" style="stroke: rgb(0,0,255); stroke-width: 3.70287466; stroke-dasharray: none; stroke-linecap: round; stroke-linejoin: round; stroke-miterlimit: 4; fill: none; fill-rule: nonzero; opacity: 1;" transform="translate(7.95 167.62) scale(0.62 0.62) translate(-249.119845, -720.87941)  matrix(1 0 0 1 0 0) " stroke-linecap="round" />
	<path id="path48346" d="m 298.95855 236.5403 c 0 22.96807 -19.9355 41.69964 -44.6745 41.69964 c -24.49897 0 -44.43459 -18.73157 -44.43459 -41.69964 c 0 -23.19122 19.93562 -41.92259 44.43459 -41.92259 c 24.739 0 44.6745 18.73137 44.6745 41.92259" style="stroke: rgb(0,0,255); stroke-width: 3.70287466; stroke-dasharray: none; stroke-linecap: round; stroke-linejoin: round; stroke-miterlimit: 4; fill: none; fill-rule: nonzero; opacity: 1;" transform="translate(11.22 -132.09) scale(0.62 0.62) translate(-254.40400500000004, -236.428825)  matrix(1 0 0 1 0 0) " stroke-linecap="round" />
	<path id="path48348" d="m 298.95855 302.76887 c 0 22.96837 -19.9355 41.69974 -44.6745 41.69974 c -24.49897 0 -44.43459 -18.73137 -44.43459 -41.69974 c 0 -23.19122 19.93562 -41.92249 44.43459 -41.92249 c 24.739 0 44.6745 18.73127 44.6745 41.92249" style="stroke: rgb(0,0,255); stroke-width: 3.70287466; stroke-dasharray: none; stroke-linecap: round; stroke-linejoin: round; stroke-miterlimit: 4; fill: none; fill-rule: nonzero; opacity: 1;" transform="translate(11.22 -91.12) scale(0.62 0.62) translate(-254.40400500000004, -302.65749500000004)  matrix(1 0 0 1 0 0) " stroke-linecap="round" />
	<path id="path48350" d="m 362.1289 267.75919 c 0 23.19122 -19.93549 41.92259 -44.43599 41.92259 c -24.739 0 -44.67451 -18.73137 -44.67451 -41.92259 c 0 -22.96836 19.93551 -41.69964 44.67451 -41.69964 c 24.5005 0 44.43599 18.73128 44.43599 41.69964" style="stroke: rgb(0,0,255); stroke-width: 3.70287466; stroke-dasharray: none; stroke-linecap: round; stroke-linejoin: round; stroke-miterlimit: 4; fill: none; fill-rule: nonzero; opacity: 1;" transform="translate(50.3 -112.64) scale(0.62 0.62) translate(-317.57365, -267.87066500000003)  matrix(1 0 0 1 0 0) " stroke-linecap="round" />
	<path id="path48352" d="m 269.17536 247.02095 l -14.89131 -14.04858 l -18.49433 17.39326" style="stroke: rgb(0,0,255); stroke-width: 3.70287466; stroke-dasharray: none; stroke-linecap: round; stroke-linejoin: round; stroke-miterlimit: 4; fill: none; fill-rule: nonzero; opacity: 1;" transform="translate(10.03 -128.85) scale(0.62 0.62) translate(-252.48254000000003, -241.669)  matrix(1 0 0 1 0 0) " stroke-linecap="round" />
	<path id="path48354" d="m 254.28405 232.97237 l 0 -20.73824" style="stroke: rgb(0,0,255); stroke-width: 3.70287466; stroke-dasharray: none; stroke-linecap: round; stroke-linejoin: round; stroke-miterlimit: 4; fill: none; fill-rule: nonzero; opacity: 1;" transform="translate(11.14 -140.65) scale(0.62 0.62) translate(-254.28405, -222.60325)  matrix(1 0 0 1 0 0) " stroke-linecap="round" />
	<path id="path48356" d="M 265.5728 327.07504 L 250.68115 313.24962" style="stroke: rgb(0,0,255); stroke-width: 3.70287466; stroke-dasharray: none; stroke-linecap: round; stroke-linejoin: round; stroke-miterlimit: 4; fill: none; fill-rule: nonzero; opacity: 1;" transform="translate(13.52 -80.29) scale(0.62 0.62) translate(-258.126975, -320.16233)  matrix(1 0 0 1 0 0) " stroke-linecap="round" />
	<path id="path48358" d="m 235.78972 327.07504 l 14.89143 -13.82542 l 0 -17.61642" style="stroke: rgb(0,0,255); stroke-width: 3.70287466; stroke-dasharray: none; stroke-linecap: round; stroke-linejoin: round; stroke-miterlimit: 4; fill: none; fill-rule: nonzero; opacity: 1;" transform="translate(4.31 -85.74) scale(0.62 0.62) translate(-243.235435, -311.35411999999997)  matrix(1 0 0 1 0 0) " stroke-linecap="round" />
	<path id="path48360" d="m 336.18756 250.58878 l 0 34.56367 l -26.18051 -10.48034" style="stroke: rgb(0,0,255); stroke-width: 3.70287466; stroke-dasharray: none; stroke-linecap: round; stroke-linejoin: round; stroke-miterlimit: 4; fill: none; fill-rule: nonzero; opacity: 1;" transform="translate(53.72 -112.64) scale(0.62 0.62) translate(-323.097305, -267.87061500000004)  matrix(1 0 0 1 0 0) " stroke-linecap="round" />
	<path id="path48362" d="m 336.18756 247.2438 l -26.18051 10.2576" style="stroke: rgb(0,0,255); stroke-width: 3.70287466; stroke-dasharray: none; stroke-linecap: round; stroke-linejoin: round; stroke-miterlimit: 4; fill: none; fill-rule: nonzero; opacity: 1;" transform="translate(53.72 -122.23) scale(0.62 0.62) translate(-323.097305, -252.37259999999998)  matrix(1 0 0 1 0 0) " stroke-linecap="round" />
	<path id="path48364" d="m 246.83811 344.46861 l 0 34.78682 l 0 -34.78682 z" style="stroke: rgb(0,0,255); stroke-width: 3.70287466; stroke-dasharray: none; stroke-linecap: round; stroke-linejoin: round; stroke-miterlimit: 4; fill: none; fill-rule: nonzero; opacity: 1;" transform="translate(6.54 -54.49) scale(0.62 0.62) translate(-246.83811, -361.86202000000003)  matrix(1 0 0 1 0 0) " stroke-linecap="round" />
	<path id="path48366" d="m 172.62056 333.98786 l 0 14.04858" style="stroke: rgb(0,0,255); stroke-width: 3.70287466; stroke-dasharray: none; stroke-linecap: round; stroke-linejoin: round; stroke-miterlimit: 4; fill: none; fill-rule: nonzero; opacity: 1;" transform="translate(-39.38 -67.39) scale(0.62 0.62) translate(-172.62056, -341.01215)  matrix(1 0 0 1 0 0) " stroke-linecap="round" />
	<path id="path48368" d="m 198.56071 348.03644 l -51.88008 0" style="stroke: rgb(0,0,255); stroke-width: 3.70287466; stroke-dasharray: none; stroke-linecap: round; stroke-linejoin: round; stroke-miterlimit: 4; fill: none; fill-rule: nonzero; opacity: 1;" transform="translate(-39.38 -63.05) scale(0.62 0.62) translate(-172.62067000000002, -348.03644)  matrix(1 0 0 1 0 0) " stroke-linecap="round" />
	<path id="path48370" d="m 191.11489 358.51719 l -36.98865 0" style="stroke: rgb(0,0,255); stroke-width: 3.70287466; stroke-dasharray: none; stroke-linecap: round; stroke-linejoin: round; stroke-miterlimit: 4; fill: none; fill-rule: nonzero; opacity: 1;" transform="translate(-39.38 -56.56) scale(0.62 0.62) translate(-172.620565, -358.51719)  matrix(1 0 0 1 0 0) " stroke-linecap="round" />
	<path id="path48372" d="m 180.06639 368.77468 l -14.89143 0" style="stroke: rgb(0,0,255); stroke-width: 3.70287466; stroke-dasharray: none; stroke-linecap: round; stroke-linejoin: round; stroke-miterlimit: 4; fill: none; fill-rule: nonzero; opacity: 1;" transform="translate(-39.38 -50.22) scale(0.62 0.62) translate(-172.620675, -368.77468)  matrix(1 0 0 1 0 0) " stroke-linecap="round" />
	<path id="path48374" d="m 172.62056 333.98786 l 0 -163.67622 l 0 163.67622 z" style="stroke: rgb(0,0,255); stroke-width: 3.70287466; stroke-dasharray: none; stroke-linecap: round; stroke-linejoin: round; stroke-miterlimit: 4; fill: none; fill-rule: nonzero; opacity: 1;" transform="translate(-39.38 -122.37) scale(0.62 0.62) translate(-172.62056, -252.14975)  matrix(1 0 0 1 0 0) " stroke-linecap="round" />
	<path id="path48376" d="m 172.62056 218.92379 l 63.16916 0 l -63.16916 0 z" style="stroke: rgb(0,0,255); stroke-width: 3.70287466; stroke-dasharray: none; stroke-linecap: round; stroke-linejoin: round; stroke-miterlimit: 4; fill: none; fill-rule: nonzero; opacity: 1;" transform="translate(-19.84 -142.92) scale(0.62 0.62) translate(-204.20514000000003, -218.92379)  matrix(1 0 0 1 0 0) " stroke-linecap="round" />
	<path id="path48378" d="m 172.62056 300.762 l 63.16916 0 l -63.16916 0 z" style="stroke: rgb(0,0,255); stroke-width: 3.70287466; stroke-dasharray: none; stroke-linecap: round; stroke-linejoin: round; stroke-miterlimit: 4; fill: none; fill-rule: nonzero; opacity: 1;" transform="translate(-19.84 -92.29) scale(0.62 0.62) translate(-204.20514000000003, -300.762)  matrix(1 0 0 1 0 0) " stroke-linecap="round" />
	<path id="path48380" d="m 183.66928 220.70791 c 0 4.90564 -4.08329 8.69663 -9.12714 8.69663 c -5.28422 0 -9.36718 -3.79099 -9.36718 -8.69663 c 0 -4.90595 4.08296 -8.69694 9.36718 -8.69694 c 5.04385 0 9.12714 3.79099 9.12714 8.69694" style="stroke: rgb(0,0,255); stroke-width: 3.70287466; stroke-dasharray: none; stroke-linecap: round; stroke-linejoin: round; stroke-miterlimit: 4; fill: none; fill-rule: nonzero; opacity: 1;" transform="translate(-38.26 -141.82) scale(0.62 0.62) translate(-174.42212, -220.707755)  matrix(1 0 0 1 0 0) " stroke-linecap="round" />
	<path id="path48382" d="m 172.62056 170.31164 l 141.22942 0 l -141.22942 0 z" style="stroke: rgb(0,0,255); stroke-width: 3.70287466; stroke-dasharray: none; stroke-linecap: round; stroke-linejoin: round; stroke-miterlimit: 4; fill: none; fill-rule: nonzero; opacity: 1;" transform="translate(4.31 -173) scale(0.62 0.62) translate(-243.23527, -170.31164)  matrix(1 0 0 1 0 0) " stroke-linecap="round" />
	<path id="path48384" d="m 313.84998 170.31164 l 0 83.62192 l 0 -83.62192 z" style="stroke: rgb(0,0,255); stroke-width: 3.70287466; stroke-dasharray: none; stroke-linecap: round; stroke-linejoin: round; stroke-miterlimit: 4; fill: none; fill-rule: nonzero; opacity: 1;" transform="translate(48 -147.13) scale(0.62 0.62) translate(-313.84998, -212.1226)  matrix(1 0 0 1 0 0) " stroke-linecap="round" />
	<path id="path48386" d="m 183.66928 302.54602 c 0 4.90594 -4.08329 8.69663 -9.12714 8.69663 c -5.28422 0 -9.36718 -3.79069 -9.36718 -8.69663 c 0 -4.6827 4.08296 -8.69663 9.36718 -8.69663 c 5.04385 0 9.12714 4.01393 9.12714 8.69663" style="stroke: rgb(0,0,255); stroke-width: 3.70287466; stroke-dasharray: none; stroke-linecap: round; stroke-linejoin: round; stroke-miterlimit: 4; fill: none; fill-rule: nonzero; opacity: 1;" transform="translate(-38.26 -91.19) scale(0.62 0.62) translate(-174.42212, -302.54602)  matrix(1 0 0 1 0 0) " stroke-linecap="round" />
	<path id="path48388" d="M 250.92151 311.24265 L 236.27012 297.41722" style="stroke: rgb(0,0,255); stroke-width: 3.70287466; stroke-dasharray: none; stroke-linecap: round; stroke-linejoin: round; stroke-miterlimit: 4; fill: none; fill-rule: nonzero; opacity: 1;" transform="translate(4.53 -90.09) scale(0.62 0.62) translate(-243.59581500000002, -304.329935)  matrix(1 0 0 1 0 0) " stroke-linecap="round" />
	<path id="path48390" d="m 255.00447 234.75619 l -14.6514 -13.82543" style="stroke: rgb(0,0,255); stroke-width: 3.70287466; stroke-dasharray: none; stroke-linecap: round; stroke-linejoin: round; stroke-miterlimit: 4; fill: none; fill-rule: nonzero; opacity: 1;" transform="translate(7.06 -137.41) scale(0.62 0.62) translate(-247.67877, -227.843475)  matrix(1 0 0 1 0 0) " stroke-linecap="round" />
	<path id="path48392" d="m 237.71097 218.70094 c 0 2.89867 -2.40164 5.35165 -5.76429 5.35165 c -3.1225 0 -5.7645 -2.45298 -5.7645 -5.35165 c 0 -2.89898 2.642 -5.35186 5.7645 -5.35186 c 3.36265 0 5.76429 2.45288 5.76429 5.35186" style="stroke: rgb(0,0,255); stroke-width: 3.70287466; stroke-dasharray: none; stroke-linecap: round; stroke-linejoin: round; stroke-miterlimit: 4; fill: none; fill-rule: nonzero; opacity: 1;" transform="translate(-2.67 -143.06) scale(0.62 0.62) translate(-231.946575, -218.700835)  matrix(1 0 0 1 0 0) " stroke-linecap="round" />
	<path id="path48394" d="m 237.71097 298.97819 c 0 2.89867 -2.40164 5.35165 -5.76429 5.35165 c -3.1225 0 -5.7645 -2.45298 -5.7645 -5.35165 c 0 -2.89898 2.642 -5.35195 5.7645 -5.35195 c 3.36265 0 5.76429 2.45297 5.76429 5.35195" style="stroke: rgb(0,0,255); stroke-width: 3.70287466; stroke-dasharray: none; stroke-linecap: round; stroke-linejoin: round; stroke-miterlimit: 4; fill: none; fill-rule: nonzero; opacity: 1;" transform="translate(-2.67 -93.4) scale(0.62 0.62) translate(-231.946575, -298.97803999999996)  matrix(1 0 0 1 0 0) " stroke-linecap="round" />
</g>
</svg>