<?xml version="1.0" standalone="no"?><!DOCTYPE svg PUBLIC "-//W3C//DTD SVG 1.1//EN" "http://www.w3.org/Graphics/SVG/1.1/DTD/svg11.dtd"><svg width="100%" height="100%" version="1.1" xmlns="http://www.w3.org/2000/svg"><g transform="translate(67.84 76.2)" style="">
	<path id="path48278" d="m 247.31851 412.70333 l 0 -41.92167 l 0 41.92167 z" style="stroke: rgb(0,0,255); stroke-width: 3.70287466; stroke-dasharray: none; stroke-linecap: round; stroke-linejoin: round; stroke-miterlimit: 4; fill: none; fill-rule: nonzero; opacity: 1;" transform="translate(-4.39 62.05) scale(0.62 0.62) translate(-247.31851, -391.74249499999996)  matrix(1 0 0 1 0 0) " stroke-linecap="round" />
	<path id="path48346" d="m 298.95855 236.5403 c 0 22.96807 -19.9355 41.69964 -44.6745 41.69964 c -24.49897 0 -44.43459 -18.73157 -44.43459 -41.69964 c 0 -23.19122 19.93562 -41.92259 44.43459 -41.92259 c 24.739 0 44.6745 18.73137 44.6745 41.92259" style="stroke: rgb(0,0,255); stroke-width: 3.70287466; stroke-dasharray: none; stroke-linecap: round; stroke-linejoin: round; stroke-miterlimit: 4; fill: none; fill-rule: nonzero; opacity: 1;" transform="translate(-0.01 -34.04) scale(0.62 0.62) translate(-254.40400500000004, -236.428825)  matrix(1 0 0 1 0 0) " stroke-linecap="round" />
	<path id="path48348" d="m 298.95855 302.76887 c 0 22.96837 -19.9355 41.69974 -44.6745 41.69974 c -24.49897 0 -44.43459 -18.73137 -44.43459 -41.69974 c 0 -23.19122 19.93562 -41.92249 44.43459 -41.92249 c 24.739 0 44.6745 18.73127 44.6745 41.92249" style="stroke: rgb(0,0,255); stroke-width: 3.70287466; stroke-dasharray: none; stroke-linecap: round; stroke-linejoin: round; stroke-miterlimit: 4; fill: none; fill-rule: nonzero; opacity: 1;" transform="translate(-0.01 6.93) scale(0.62 0.62) translate(-254.40400500000004, -302.65749500000004)  matrix(1 0 0 1 0 0) " stroke-linecap="round" />
	<path id="path48350" d="m 362.1289 267.75919 c 0 23.19122 -19.93549 41.92259 -44.43599 41.92259 c -24.739 0 -44.67451 -18.73137 -44.67451 -41.92259 c 0 -22.96836 19.93551 -41.69964 44.67451 -41.69964 c 24.5005 0 44.43599 18.73128 44.43599 41.69964" style="stroke: rgb(0,0,255); stroke-width: 3.70287466; stroke-dasharray: none; stroke-linecap: round; stroke-linejoin: round; stroke-miterlimit: 4; fill: none; fill-rule: nonzero; opacity: 1;" transform="translate(39.07 -14.59) scale(0.62 0.62) translate(-317.57365, -267.87066500000003)  matrix(1 0 0 1 0 0) " stroke-linecap="round" />
	<path id="path48352" d="m 269.17536 247.02095 l -14.89131 -14.04858 l -18.49433 17.39326" style="stroke: rgb(0,0,255); stroke-width: 3.70287466; stroke-dasharray: none; stroke-linecap: round; stroke-linejoin: round; stroke-miterlimit: 4; fill: none; fill-rule: nonzero; opacity: 1;" transform="translate(-1.2 -30.8) scale(0.62 0.62) translate(-252.48254000000003, -241.669)  matrix(1 0 0 1 0 0) " stroke-linecap="round" />
	<path id="path48354" d="m 254.28405 232.97237 l 0 -20.73824" style="stroke: rgb(0,0,255); stroke-width: 3.70287466; stroke-dasharray: none; stroke-linecap: round; stroke-linejoin: round; stroke-miterlimit: 4; fill: none; fill-rule: nonzero; opacity: 1;" transform="translate(-0.08 -42.59) scale(0.62 0.62) translate(-254.28405, -222.60325)  matrix(1 0 0 1 0 0) " stroke-linecap="round" />
	<path id="path48356" d="M 265.5728 327.07504 L 250.68115 313.24962" style="stroke: rgb(0,0,255); stroke-width: 3.70287466; stroke-dasharray: none; stroke-linecap: round; stroke-linejoin: round; stroke-miterlimit: 4; fill: none; fill-rule: nonzero; opacity: 1;" transform="translate(2.29 17.76) scale(0.62 0.62) translate(-258.126975, -320.16233)  matrix(1 0 0 1 0 0) " stroke-linecap="round" />
	<path id="path48358" d="m 235.78972 327.07504 l 14.89143 -13.82542 l 0 -17.61642" style="stroke: rgb(0,0,255); stroke-width: 3.70287466; stroke-dasharray: none; stroke-linecap: round; stroke-linejoin: round; stroke-miterlimit: 4; fill: none; fill-rule: nonzero; opacity: 1;" transform="translate(-6.92 12.31) scale(0.62 0.62) translate(-243.235435, -311.35411999999997)  matrix(1 0 0 1 0 0) " stroke-linecap="round" />
	<path id="path48360" d="m 336.18756 250.58878 l 0 34.56367 l -26.18051 -10.48034" style="stroke: rgb(0,0,255); stroke-width: 3.70287466; stroke-dasharray: none; stroke-linecap: round; stroke-linejoin: round; stroke-miterlimit: 4; fill: none; fill-rule: nonzero; opacity: 1;" transform="translate(42.49 -14.59) scale(0.62 0.62) translate(-323.097305, -267.87061500000004)  matrix(1 0 0 1 0 0) " stroke-linecap="round" />
	<path id="path48362" d="m 336.18756 247.2438 l -26.18051 10.2576" style="stroke: rgb(0,0,255); stroke-width: 3.70287466; stroke-dasharray: none; stroke-linecap: round; stroke-linejoin: round; stroke-miterlimit: 4; fill: none; fill-rule: nonzero; opacity: 1;" transform="translate(42.49 -24.18) scale(0.62 0.62) translate(-323.097305, -252.37259999999998)  matrix(1 0 0 1 0 0) " stroke-linecap="round" />
	<path id="path48364" d="m 246.83811 344.46861 l 0 34.78682 l 0 -34.78682 z" style="stroke: rgb(0,0,255); stroke-width: 3.70287466; stroke-dasharray: none; stroke-linecap: round; stroke-linejoin: round; stroke-miterlimit: 4; fill: none; fill-rule: nonzero; opacity: 1;" transform="translate(-4.69 43.56) scale(0.62 0.62) translate(-246.83811, -361.86202000000003)  matrix(1 0 0 1 0 0) " stroke-linecap="round" />
	<path id="path48366" d="m 172.62056 333.98786 l 0 14.04858" style="stroke: rgb(0,0,255); stroke-width: 3.70287466; stroke-dasharray: none; stroke-linecap: round; stroke-linejoin: round; stroke-miterlimit: 4; fill: none; fill-rule: nonzero; opacity: 1;" transform="translate(-50.61 30.66) scale(0.62 0.62) translate(-172.62056, -341.01215)  matrix(1 0 0 1 0 0) " stroke-linecap="round" />
	<path id="path48368" d="m 198.56071 348.03644 l -51.88008 0" style="stroke: rgb(0,0,255); stroke-width: 3.70287466; stroke-dasharray: none; stroke-linecap: round; stroke-linejoin: round; stroke-miterlimit: 4; fill: none; fill-rule: nonzero; opacity: 1;" transform="translate(-50.61 35.01) scale(0.62 0.62) translate(-172.62067000000002, -348.03644)  matrix(1 0 0 1 0 0) " stroke-linecap="round" />
	<path id="path48370" d="m 191.11489 358.51719 l -36.98865 0" style="stroke: rgb(0,0,255); stroke-width: 3.70287466; stroke-dasharray: none; stroke-linecap: round; stroke-linejoin: round; stroke-miterlimit: 4; fill: none; fill-rule: nonzero; opacity: 1;" transform="translate(-50.61 41.49) scale(0.62 0.62) translate(-172.620565, -358.51719)  matrix(1 0 0 1 0 0) " stroke-linecap="round" />
	<path id="path48372" d="m 180.06639 368.77468 l -14.89143 0" style="stroke: rgb(0,0,255); stroke-width: 3.70287466; stroke-dasharray: none; stroke-linecap: round; stroke-linejoin: round; stroke-miterlimit: 4; fill: none; fill-rule: nonzero; opacity: 1;" transform="translate(-50.61 47.84) scale(0.62 0.62) translate(-172.620675, -368.77468)  matrix(1 0 0 1 0 0) " stroke-linecap="round" />
	<path id="path48374" d="m 172.62056 333.98786 l 0 -163.67622 l 0 163.67622 z" style="stroke: rgb(0,0,255); stroke-width: 3.70287466; stroke-dasharray: none; stroke-linecap: round; stroke-linejoin: round; stroke-miterlimit: 4; fill: none; fill-rule: nonzero; opacity: 1;" transform="translate(-50.61 -24.31) scale(0.62 0.62) translate(-172.62056, -252.14975)  matrix(1 0 0 1 0 0) " stroke-linecap="round" />
	<path id="path48376" d="m 172.62056 218.92379 l 63.16916 0 l -63.16916 0 z" style="stroke: rgb(0,0,255); stroke-width: 3.70287466; stroke-dasharray: none; stroke-linecap: round; stroke-linejoin: round; stroke-miterlimit: 4; fill: none; fill-rule: nonzero; opacity: 1;" transform="translate(-31.07 -44.87) scale(0.62 0.62) translate(-204.20514000000003, -218.92379)  matrix(1 0 0 1 0 0) " stroke-linecap="round" />
	<path id="path48378" d="m 172.62056 300.762 l 63.16916 0 l -63.16916 0 z" style="stroke: rgb(0,0,255); stroke-width: 3.70287466; stroke-dasharray: none; stroke-linecap: round; stroke-linejoin: round; stroke-miterlimit: 4; fill: none; fill-rule: nonzero; opacity: 1;" transform="translate(-31.07 5.76) scale(0.62 0.62) translate(-204.20514000000003, -300.762)  matrix(1 0 0 1 0 0) " stroke-linecap="round" />
	<path id="path48380" d="m 183.66928 220.70791 c 0 4.90564 -4.08329 8.69663 -9.12714 8.69663 c -5.28422 0 -9.36718 -3.79099 -9.36718 -8.69663 c 0 -4.90595 4.08296 -8.69694 9.36718 -8.69694 c 5.04385 0 9.12714 3.79099 9.12714 8.69694" style="stroke: rgb(0,0,255); stroke-width: 3.70287466; stroke-dasharray: none; stroke-linecap: round; stroke-linejoin: round; stroke-miterlimit: 4; fill: none; fill-rule: nonzero; opacity: 1;" transform="translate(-49.49 -43.77) scale(0.62 0.62) translate(-174.42212, -220.707755)  matrix(1 0 0 1 0 0) " stroke-linecap="round" />
	<path id="path48382" d="m 172.62056 170.31164 l 141.22942 0 l -141.22942 0 z" style="stroke: rgb(0,0,255); stroke-width: 3.70287466; stroke-dasharray: none; stroke-linecap: round; stroke-linejoin: round; stroke-miterlimit: 4; fill: none; fill-rule: nonzero; opacity: 1;" transform="translate(-6.92 -74.95) scale(0.62 0.62) translate(-243.23527, -170.31164)  matrix(1 0 0 1 0 0) " stroke-linecap="round" />
	<path id="path48384" d="m 313.84998 170.31164 l 0 83.62192 l 0 -83.62192 z" style="stroke: rgb(0,0,255); stroke-width: 3.70287466; stroke-dasharray: none; stroke-linecap: round; stroke-linejoin: round; stroke-miterlimit: 4; fill: none; fill-rule: nonzero; opacity: 1;" transform="translate(36.77 -49.08) scale(0.62 0.62) translate(-313.84998, -212.1226)  matrix(1 0 0 1 0 0) " stroke-linecap="round" />
	<path id="path48386" d="m 183.66928 302.54602 c 0 4.90594 -4.08329 8.69663 -9.12714 8.69663 c -5.28422 0 -9.36718 -3.79069 -9.36718 -8.69663 c 0 -4.6827 4.08296 -8.69663 9.36718 -8.69663 c 5.04385 0 9.12714 4.01393 9.12714 8.69663" style="stroke: rgb(0,0,255); stroke-width: 3.70287466; stroke-dasharray: none; stroke-linecap: round; stroke-linejoin: round; stroke-miterlimit: 4; fill: none; fill-rule: nonzero; opacity: 1;" transform="translate(-49.49 6.86) scale(0.62 0.62) translate(-174.42212, -302.54602)  matrix(1 0 0 1 0 0) " stroke-linecap="round" />
	<path id="path48388" d="M 250.92151 311.24265 L 236.27012 297.41722" style="stroke: rgb(0,0,255); stroke-width: 3.70287466; stroke-dasharray: none; stroke-linecap: round; stroke-linejoin: round; stroke-miterlimit: 4; fill: none; fill-rule: nonzero; opacity: 1;" transform="translate(-6.7 7.97) scale(0.62 0.62) translate(-243.59581500000002, -304.329935)  matrix(1 0 0 1 0 0) " stroke-linecap="round" />
	<path id="path48390" d="m 255.00447 234.75619 l -14.6514 -13.82543" style="stroke: rgb(0,0,255); stroke-width: 3.70287466; stroke-dasharray: none; stroke-linecap: round; stroke-linejoin: round; stroke-miterlimit: 4; fill: none; fill-rule: nonzero; opacity: 1;" transform="translate(-4.17 -39.35) scale(0.62 0.62) translate(-247.67877, -227.843475)  matrix(1 0 0 1 0 0) " stroke-linecap="round" />
	<path id="path48392" d="m 237.71097 218.70094 c 0 2.89867 -2.40164 5.35165 -5.76429 5.35165 c -3.1225 0 -5.7645 -2.45298 -5.7645 -5.35165 c 0 -2.89898 2.642 -5.35186 5.7645 -5.35186 c 3.36265 0 5.76429 2.45288 5.76429 5.35186" style="stroke: rgb(0,0,255); stroke-width: 3.70287466; stroke-dasharray: none; stroke-linecap: round; stroke-linejoin: round; stroke-miterlimit: 4; fill: none; fill-rule: nonzero; opacity: 1;" transform="translate(-13.9 -45.01) scale(0.62 0.62) translate(-231.946575, -218.700835)  matrix(1 0 0 1 0 0) " stroke-linecap="round" />
	<path id="path48394" d="m 237.71097 298.97819 c 0 2.89867 -2.40164 5.35165 -5.76429 5.35165 c -3.1225 0 -5.7645 -2.45298 -5.7645 -5.35165 c 0 -2.89898 2.642 -5.35195 5.7645 -5.35195 c 3.36265 0 5.76429 2.45297 5.76429 5.35195" style="stroke: rgb(0,0,255); stroke-width: 3.70287466; stroke-dasharray: none; stroke-linecap: round; stroke-linejoin: round; stroke-miterlimit: 4; fill: none; fill-rule: nonzero; opacity: 1;" transform="translate(-13.9 4.66) scale(0.62 0.62) translate(-231.946575, -298.97803999999996)  matrix(1 0 0 1 0 0) " stroke-linecap="round" />
</g>
</svg>