<?xml version="1.0" standalone="no"?><!DOCTYPE svg PUBLIC "-//W3C//DTD SVG 1.1//EN" "http://www.w3.org/Graphics/SVG/1.1/DTD/svg11.dtd"><svg width="100%" height="100%" version="1.1" xmlns="http://www.w3.org/2000/svg"><g transform="translate(48.33 16.29)" style="">
	<path id="path48268" d="m 258.36701 553.63416 c 0 4.90813 -4.08296 8.69773 -9.12715 8.69773 c -5.28389 0 -9.36718 -3.7896 -9.36718 -8.69773 c 0 -4.68282 4.08329 -8.69493 9.36718 -8.69493 c 5.04419 0 9.12715 4.01211 9.12715 8.69493" style="stroke: rgb(0,0,255); stroke-width: 3.70287466; stroke-dasharray: none; stroke-linecap: round; stroke-linejoin: round; stroke-miterlimit: 4; fill: none; fill-rule: nonzero; opacity: 1;" transform="translate(-41.45 1.03) scale(0.62 0.62) translate(-249.119845, -553.6355599999999)  matrix(1 0 0 1 0 0) " stroke-linecap="round" />
	<path id="path48330" d="m 351.31901 551.85062 l 18.73373 0" style="stroke: rgb(0,0,255); stroke-width: 3.70287466; stroke-dasharray: none; stroke-linecap: round; stroke-linejoin: round; stroke-miterlimit: 4; fill: none; fill-rule: nonzero; opacity: 1;" transform="translate(27.57 -0.07) scale(0.62 0.62) translate(-360.685875, -551.85062)  matrix(1 0 0 1 0 0) " stroke-linecap="round" />
	<path id="path48332" d="m 370.05274 527.54645 l 0 48.83372" style="stroke: rgb(0,0,255); stroke-width: 3.70287466; stroke-dasharray: none; stroke-linecap: round; stroke-linejoin: round; stroke-miterlimit: 4; fill: none; fill-rule: nonzero; opacity: 1;" transform="translate(33.37 0) scale(0.62 0.62) translate(-370.05274, -551.9633100000001)  matrix(1 0 0 1 0 0) " stroke-linecap="round" />
	<path id="path48334" d="m 381.1024 538.02492 l 0 27.87399" style="stroke: rgb(0,0,255); stroke-width: 3.70287466; stroke-dasharray: none; stroke-linecap: round; stroke-linejoin: round; stroke-miterlimit: 4; fill: none; fill-rule: nonzero; opacity: 1;" transform="translate(40.2 0) scale(0.62 0.62) translate(-381.1024, -551.961915)  matrix(1 0 0 1 0 0) " stroke-linecap="round" />
	<path id="path48336" d="m 392.39183 544.93923 l 0 14.04828" style="stroke: rgb(0,0,255); stroke-width: 3.70287466; stroke-dasharray: none; stroke-linecap: round; stroke-linejoin: round; stroke-miterlimit: 4; fill: none; fill-rule: nonzero; opacity: 1;" transform="translate(47.19 0) scale(0.62 0.62) translate(-392.39183, -551.9633699999999)  matrix(1 0 0 1 0 0) " stroke-linecap="round" />
	<path id="path48338" d="M 351.31901 551.85062 L 310.48744 531.11353" style="stroke: rgb(0,0,255); stroke-width: 3.70287466; stroke-dasharray: none; stroke-linecap: round; stroke-linejoin: round; stroke-miterlimit: 4; fill: none; fill-rule: nonzero; opacity: 1;" transform="translate(9.15 -6.48) scale(0.62 0.62) translate(-330.903225, -541.482075)  matrix(1 0 0 1 0 0) " stroke-linecap="round" />
	<path id="path48340" d="m 306.88477 551.85062 l 7.44561 0" style="stroke: rgb(0,0,255); stroke-width: 3.70287466; stroke-dasharray: none; stroke-linecap: round; stroke-linejoin: round; stroke-miterlimit: 4; fill: none; fill-rule: nonzero; opacity: 1;" transform="translate(-3.41 -0.07) scale(0.62 0.62) translate(-310.607575, -551.85062)  matrix(1 0 0 1 0 0) " stroke-linecap="round" />
	<path id="path48342" d="m 306.88477 551.85062 l -59.56626 0 l 59.56626 0 z" style="stroke: rgb(0,0,255); stroke-width: 3.70287466; stroke-dasharray: none; stroke-linecap: round; stroke-linejoin: round; stroke-miterlimit: 4; fill: none; fill-rule: nonzero; opacity: 1;" transform="translate(-24.14 -0.07) scale(0.62 0.62) translate(-277.10164, -551.85062)  matrix(1 0 0 1 0 0) " stroke-linecap="round" />
</g>
</svg>